<svg aria-roledescription="er" role="graphics-document document" viewBox="-219.8378448486328 0 1238.927734375 990" style="max-width: 1238.93px; background-color: white;" xmlns:xlink="http://www.w3.org/1999/xlink" xmlns="http://www.w3.org/2000/svg" width="100%" id="mermaid-0"><style>#mermaid-0{font-family:"trebuchet ms",verdana,arial,sans-serif;font-size:16px;fill:#000000;}#mermaid-0 .error-icon{fill:#552222;}#mermaid-0 .error-text{fill:#552222;stroke:#552222;}#mermaid-0 .edge-thickness-normal{stroke-width:2px;}#mermaid-0 .edge-thickness-thick{stroke-width:3.5px;}#mermaid-0 .edge-pattern-solid{stroke-dasharray:0;}#mermaid-0 .edge-pattern-dashed{stroke-dasharray:3;}#mermaid-0 .edge-pattern-dotted{stroke-dasharray:2;}#mermaid-0 .marker{fill:#000000;stroke:#000000;}#mermaid-0 .marker.cross{stroke:#000000;}#mermaid-0 svg{font-family:"trebuchet ms",verdana,arial,sans-serif;font-size:16px;}#mermaid-0 .entityBox{fill:#cde498;stroke:#13540c;}#mermaid-0 .attributeBoxOdd{fill:#ffffff;stroke:#13540c;}#mermaid-0 .attributeBoxEven{fill:#f2f2f2;stroke:#13540c;}#mermaid-0 .relationshipLabelBox{fill:hsl(78.1578947368, 58.4615384615%, 84.5098039216%);opacity:0.7;background-color:hsl(78.1578947368, 58.4615384615%, 84.5098039216%);}#mermaid-0 .relationshipLabelBox rect{opacity:0.5;}#mermaid-0 .relationshipLine{stroke:#000000;}#mermaid-0 .entityTitleText{text-anchor:middle;font-size:18px;fill:#000000;}#mermaid-0 :root{--mermaid-font-family:"trebuchet ms",verdana,arial,sans-serif;}</style><g/><defs><marker orient="auto" markerHeight="18" markerWidth="18" refY="9" refX="0" id="ONLY_ONE_START"><path d="M9,0 L9,18 M15,0 L15,18" fill="none" stroke="gray"/></marker></defs><defs><marker orient="auto" markerHeight="18" markerWidth="18" refY="9" refX="18" id="ONLY_ONE_END"><path d="M3,0 L3,18 M9,0 L9,18" fill="none" stroke="gray"/></marker></defs><defs><marker orient="auto" markerHeight="18" markerWidth="30" refY="9" refX="0" id="ZERO_OR_ONE_START"><circle r="6" cy="9" cx="21" fill="white" stroke="gray"/><path d="M9,0 L9,18" fill="none" stroke="gray"/></marker></defs><defs><marker orient="auto" markerHeight="18" markerWidth="30" refY="9" refX="30" id="ZERO_OR_ONE_END"><circle r="6" cy="9" cx="9" fill="white" stroke="gray"/><path d="M21,0 L21,18" fill="none" stroke="gray"/></marker></defs><defs><marker orient="auto" markerHeight="36" markerWidth="45" refY="18" refX="18" id="ONE_OR_MORE_START"><path d="M0,18 Q 18,0 36,18 Q 18,36 0,18 M42,9 L42,27" fill="none" stroke="gray"/></marker></defs><defs><marker orient="auto" markerHeight="36" markerWidth="45" refY="18" refX="27" id="ONE_OR_MORE_END"><path d="M3,9 L3,27 M9,18 Q27,0 45,18 Q27,36 9,18" fill="none" stroke="gray"/></marker></defs><defs><marker orient="auto" markerHeight="36" markerWidth="57" refY="18" refX="18" id="ZERO_OR_MORE_START"><circle r="6" cy="18" cx="48" fill="white" stroke="gray"/><path d="M0,18 Q18,0 36,18 Q18,36 0,18" fill="none" stroke="gray"/></marker></defs><defs><marker orient="auto" markerHeight="36" markerWidth="57" refY="18" refX="39" id="ZERO_OR_MORE_END"><circle r="6" cy="18" cx="9" fill="white" stroke="gray"/><path d="M21,18 Q39,0 57,18 Q39,36 21,18" fill="none" stroke="gray"/></marker></defs><path style="stroke: gray; fill: none;" marker-start="url(#ZERO_OR_MORE_START)" marker-end="url(#ZERO_OR_MORE_END)" d="M466.42857142857144,95L471.1904761904762,103.33333333333333C475.95238095238096,111.66666666666667,485.47619047619054,128.33333333333334,485.47619047619054,145C485.47619047619054,161.66666666666666,475.95238095238096,178.33333333333334,471.1904761904762,186.66666666666666L466.42857142857144,195" class="er relationshipLine"/><path style="stroke: gray; fill: none;" marker-start="url(#ZERO_OR_MORE_START)" marker-end="url(#ZERO_OR_MORE_END)" d="M423.57142857142856,195L418.8095238095238,186.66666666666666C414.04761904761904,178.33333333333334,404.52380952380946,161.66666666666666,404.52380952380946,145C404.52380952380946,128.33333333333334,414.04761904761904,111.66666666666667,418.8095238095238,103.33333333333333L423.57142857142856,95" class="er relationshipLine"/><path style="stroke: gray; fill: none;" marker-start="url(#ZERO_OR_MORE_START)" marker-end="url(#ZERO_OR_MORE_END)" d="M487.85714285714283,270L497.38095238095235,278.3333333333333C506.9047619047619,286.6666666666667,525.952380952381,303.3333333333333,528.3333333333334,320C530.7142857142857,336.6666666666667,516.4285714285714,353.3333333333333,509.2857142857143,361.6666666666667L502.14285714285717,370" class="er relationshipLine"/><path style="stroke: gray; fill: none;" marker-start="url(#ZERO_OR_MORE_START)" marker-end="url(#ZERO_OR_MORE_END)" d="M495,240.83333333333334L574.1666666666666,254.0277777777778C653.3333333333334,267.22222222222223,811.6666666666666,293.61111111111114,890.8333333333334,321.38888888888886C970,349.1666666666667,970,378.3333333333333,970,407.5C970,436.6666666666667,970,465.8333333333333,970,495C970,524.1666666666666,970,553.3333333333334,970,582.5C970,611.6666666666666,970,640.8333333333334,970,670C970,699.1666666666666,970,728.3333333333334,970,757.5C970,786.6666666666666,970,815.8333333333334,936.6666666666666,842.0833333333334C903.3333333333334,868.3333333333334,836.6666666666666,891.6666666666666,803.3333333333334,903.3333333333334L770,915" class="er relationshipLine"/><path style="stroke: gray; fill: none;" marker-start="url(#ZERO_OR_MORE_START)" marker-end="url(#ZERO_OR_MORE_END)" d="M395,267.5L382.5,276.25C370,285,345,302.5,332.5,325.8333333333333C320,349.1666666666667,320,378.3333333333333,320,407.5C320,436.6666666666667,320,465.8333333333333,320,495C320,524.1666666666666,320,553.3333333333334,320,582.5C320,611.6666666666666,320,640.8333333333334,320,670C320,699.1666666666666,320,728.3333333333334,320,757.5C320,786.6666666666666,320,815.8333333333334,286.6666666666667,842.0833333333334C253.33333333333334,868.3333333333334,186.66666666666666,891.6666666666666,153.33333333333334,903.3333333333334L120,915" class="er relationshipLine"/><path style="stroke: gray; fill: none;" marker-start="url(#ZERO_OR_MORE_START)" marker-end="url(#ZERO_OR_MORE_END)" d="M502.14285714285717,445L509.2857142857143,453.3333333333333C516.4285714285714,461.6666666666667,530.7142857142857,478.3333333333333,533.0952380952382,495C535.4761904761905,511.6666666666667,525.952380952381,528.3333333333334,521.1904761904763,536.6666666666666L516.4285714285714,545" class="er relationshipLine"/><path style="stroke: gray; fill: none;" marker-start="url(#ZERO_OR_MORE_START)" marker-end="url(#ZERO_OR_MORE_END)" d="M420,425L386.6666666666667,436.6666666666667C353.3333333333333,448.3333333333333,286.6666666666667,471.6666666666667,253.33333333333334,497.9166666666667C220,524.1666666666666,220,553.3333333333334,220,582.5C220,611.6666666666666,220,640.8333333333334,220,670C220,699.1666666666666,220,728.3333333333334,220,757.5C220,786.6666666666666,220,815.8333333333334,203.33333333333334,840.1388888888888C186.66666666666666,864.4444444444445,153.33333333333334,883.888888888889,136.66666666666666,893.6111111111112L120,903.3333333333334" class="er relationshipLine"/><path style="stroke: gray; fill: none;" marker-start="url(#ZERO_OR_MORE_START)" marker-end="url(#ONLY_ONE_END)" d="M459.2857142857143,370L456.9047619047619,361.6666666666667C454.52380952380946,353.3333333333333,449.76190476190476,336.6666666666667,447.38095238095235,320C445,303.3333333333333,445,286.6666666666667,445,278.3333333333333L445,270" class="er relationshipLine"/><path style="stroke: gray; fill: none;" marker-start="url(#ZERO_OR_MORE_START)" marker-end="url(#ZERO_OR_MORE_END)" d="M516.4285714285714,620L521.1904761904763,628.3333333333334C525.952380952381,636.6666666666666,535.4761904761905,653.3333333333334,535.4761904761905,670C535.4761904761905,686.6666666666666,525.952380952381,703.3333333333334,521.1904761904763,711.6666666666666L516.4285714285714,720" class="er relationshipLine"/><path style="stroke: gray; fill: none;" marker-start="url(#ZERO_OR_MORE_START)" marker-end="url(#ONLY_ONE_END)" d="M473.57142857142856,545L468.8095238095238,536.6666666666666C464.04761904761904,528.3333333333334,454.52380952380946,511.6666666666667,452.1428571428571,495C449.76190476190476,478.3333333333333,454.52380952380946,461.6666666666667,456.90476190476187,453.3333333333333L459.2857142857143,445" class="er relationshipLine"/><path style="stroke: gray; fill: none;" marker-start="url(#ZERO_OR_MORE_START)" marker-end="url(#ZERO_OR_MORE_END)" d="M445,769.1666666666666L390.8333333333333,781.8055555555555C336.6666666666667,794.4444444444443,228.33333333333334,819.7222222222222,169.4047619047619,840.6944444444445C110.47619047619048,861.6666666666666,100.95238095238096,878.3333333333334,96.19047619047619,886.6666666666666L91.42857142857143,895" class="er relationshipLine"/><path style="stroke: gray; fill: none;" marker-start="url(#ZERO_OR_MORE_START)" marker-end="url(#ONLY_ONE_END)" d="M545,769.1666666666666L599.1666666666666,781.8055555555555C653.3333333333334,794.4444444444443,761.6666666666666,819.7222222222222,799.1666666666666,842.0833333333334C836.6666666666666,864.4444444444445,803.3333333333334,883.888888888889,786.6666666666666,893.6111111111112L770,903.3333333333334" class="er relationshipLine"/><path style="stroke: gray; fill: none;" marker-start="url(#ZERO_OR_MORE_START)" marker-end="url(#ZERO_OR_ONE_END)" d="M473.57142857142856,720L468.8095238095238,711.6666666666666C464.04761904761904,703.3333333333334,454.52380952380946,686.6666666666666,454.52380952380946,670C454.52380952380946,653.3333333333334,464.04761904761904,636.6666666666666,468.8095238095238,628.3333333333334L473.57142857142856,620" class="er relationshipLine"/><path style="stroke: gray; fill: none;" marker-start="url(#ZERO_OR_MORE_START)" marker-end="url(#ZERO_OR_ONE_END)" d="M545,773.4090909090909L582.5,785.340909090909C620,797.2727272727274,695,821.1363636363636,727.7380952380953,841.4015151515151C760.4761904761905,861.6666666666666,750.9523809523811,878.3333333333334,746.1904761904761,886.6666666666666L741.4285714285714,895" class="er relationshipLine"/><path style="stroke: gray; fill: none;" marker-start="url(#ZERO_OR_MORE_START)" marker-end="url(#ZERO_OR_ONE_END)" d="M698.5714285714286,895L693.8095238095239,886.6666666666666C689.0476190476189,878.3333333333334,679.5238095238095,861.6666666666666,674.7619047619047,838.75C670,815.8333333333334,670,786.6666666666666,670,757.5C670,728.3333333333334,670,699.1666666666666,670,670C670,640.8333333333334,670,611.6666666666666,670,582.5C670,553.3333333333334,670,524.1666666666666,670,495C670,465.8333333333333,670,436.6666666666667,670,407.5C670,378.3333333333333,670,349.1666666666667,640.8333333333334,323.2407407407407C611.6666666666666,297.31481481481484,553.3333333333334,274.6296296296296,524.1666666666666,263.287037037037L495,251.94444444444446" class="er relationshipLine"/><path style="stroke: gray; fill: none;" marker-start="url(#ZERO_OR_MORE_START)" marker-end="url(#ZERO_OR_MORE_END)" d="M670,907.5L649.1666666666666,897.0833333333334C628.3333333333334,886.6666666666666,586.6666666666666,865.8333333333334,561.0714285714286,847.0833333333334C535.4761904761905,828.3333333333334,525.952380952381,811.6666666666666,521.1904761904763,803.3333333333334L516.4285714285714,795" class="er relationshipLine"/><path style="stroke: gray; fill: none;" marker-start="url(#ZERO_OR_MORE_START)" marker-end="url(#ZERO_OR_MORE_END)" d="M670,916.5909090909091L632.5,904.659090909091C595,892.7272727272726,520,868.8636363636364,487.26190476190476,848.5984848484849C454.52380952380946,828.3333333333334,464.04761904761904,811.6666666666666,468.8095238095238,803.3333333333334L473.57142857142856,795" class="er relationshipLine"/><path style="stroke: gray; fill: none;" marker-start="url(#ZERO_OR_MORE_START)" marker-end="url(#ZERO_OR_MORE_END)" d="M48.57142857142857,895L43.8095238095238,886.6666666666666C39.047619047619044,878.3333333333334,29.523809523809522,861.6666666666666,95.59523809523809,840.2850877192982C161.66666666666666,818.9035087719299,303.3333333333333,792.8070175438597,374.1666666666667,779.7587719298245L445,766.7105263157895" class="er relationshipLine"/><path style="stroke: gray; fill: none;" marker-start="url(#ZERO_OR_MORE_START)" marker-end="url(#ONLY_ONE_END)" d="M20,903.3333333333334L3.3333333333333335,893.6111111111112C-13.333333333333334,883.888888888889,-46.666666666666664,864.4444444444445,-63.333333333333336,840.1388888888888C-80,815.8333333333334,-80,786.6666666666666,-80,757.5C-80,728.3333333333334,-80,699.1666666666666,-80,670C-80,640.8333333333334,-80,611.6666666666666,-80,582.5C-80,553.3333333333334,-80,524.1666666666666,3.3333333333333335,496.32575757575756C86.66666666666667,468.4848484848485,253.33333333333334,441.969696969697,336.6666666666667,428.71212121212125L420,415.45454545454544" class="er relationshipLine"/><path style="stroke: gray; fill: none;" marker-start="url(#ZERO_OR_MORE_START)" marker-end="url(#ONLY_ONE_END)" d="M20,915L-13.333333333333334,903.3333333333334C-46.666666666666664,891.6666666666666,-113.33333333333333,868.3333333333334,-146.66666666666666,842.0833333333334C-180,815.8333333333334,-180,786.6666666666666,-180,757.5C-180,728.3333333333334,-180,699.1666666666666,-180,670C-180,640.8333333333334,-180,611.6666666666666,-180,582.5C-180,553.3333333333334,-180,524.1666666666666,-180,495C-180,465.8333333333333,-180,436.6666666666667,-180,407.5C-180,378.3333333333333,-180,349.1666666666667,-84.16666666666667,321.1666666666667C11.666666666666666,293.1666666666667,203.33333333333334,266.3333333333333,299.1666666666667,252.91666666666666L395,239.5" class="er relationshipLine"/><g transform="translate(395,20 )" id="entity-User-818c511a-4a32-5484-ba70-875d765a9175"><rect height="75" width="100" y="0" x="0" class="er entityBox"/><text style="dominant-baseline: middle; text-anchor: middle; font-size: 12px;" transform="translate(50,37.5)" y="0" x="0" id="text-entity-User-818c511a-4a32-5484-ba70-875d765a9175" class="er entityLabel">User</text></g><g transform="translate(395,195 )" id="entity-Project-c2395ed5-a5fa-58df-9cbe-a2926add311c"><rect height="75" width="100" y="0" x="0" class="er entityBox"/><text style="dominant-baseline: middle; text-anchor: middle; font-size: 12px;" transform="translate(50,37.5)" y="0" x="0" id="text-entity-Project-c2395ed5-a5fa-58df-9cbe-a2926add311c" class="er entityLabel">Project</text></g><g transform="translate(420,370 )" id="entity-Feature-4fad3d01-3517-571c-a342-eed3efd89186"><rect height="75" width="100" y="0" x="0" class="er entityBox"/><text style="dominant-baseline: middle; text-anchor: middle; font-size: 12px;" transform="translate(50,37.5)" y="0" x="0" id="text-entity-Feature-4fad3d01-3517-571c-a342-eed3efd89186" class="er entityLabel">Feature</text></g><g transform="translate(445,545 )" id="entity-Scenario-c93c47a9-e6c7-5329-9f48-596f0b9a515d"><rect height="75" width="100" y="0" x="0" class="er entityBox"/><text style="dominant-baseline: middle; text-anchor: middle; font-size: 12px;" transform="translate(50,37.5)" y="0" x="0" id="text-entity-Scenario-c93c47a9-e6c7-5329-9f48-596f0b9a515d" class="er entityLabel">Scenario</text></g><g transform="translate(445,720 )" id="entity-Step-e219be1f-61cb-5c54-96b3-c2b2bab46dfc"><rect height="75" width="100" y="0" x="0" class="er entityBox"/><text style="dominant-baseline: middle; text-anchor: middle; font-size: 12px;" transform="translate(50,37.5)" y="0" x="0" id="text-entity-Step-e219be1f-61cb-5c54-96b3-c2b2bab46dfc" class="er entityLabel">Step</text></g><g transform="translate(670,895 )" id="entity-Behaviour-97a2395c-598e-5946-8da9-ce5730d44919"><rect height="75" width="100" y="0" x="0" class="er entityBox"/><text style="dominant-baseline: middle; text-anchor: middle; font-size: 12px;" transform="translate(50,37.5)" y="0" x="0" id="text-entity-Behaviour-97a2395c-598e-5946-8da9-ce5730d44919" class="er entityLabel">Behaviour</text></g><g transform="translate(20,895 )" id="entity-Param-e2866454-d78f-59a5-b770-d23bf52d1823"><rect height="75" width="100" y="0" x="0" class="er entityBox"/><text style="dominant-baseline: middle; text-anchor: middle; font-size: 12px;" transform="translate(50,37.5)" y="0" x="0" id="text-entity-Param-e2866454-d78f-59a5-b770-d23bf52d1823" class="er entityLabel">Param</text></g><rect height="14" width="44.43359375" y="138" x="463.2593994140625" class="er relationshipLabelBox"/><text style="text-anchor: middle; dominant-baseline: middle; font-size: 12px;" y="145" x="485.4761962890625" id="rel1" class="er relationshipLabel">projects</text><rect height="14" width="27.623046875" y="138" x="390.7122802734375" class="er relationshipLabelBox"/><text style="text-anchor: middle; dominant-baseline: middle; font-size: 12px;" y="145" x="404.5238037109375" id="rel2" class="er relationshipLabel">users</text><rect height="14" width="44.80859375" y="309.3968505859375" x="505.163330078125" class="er relationshipLabelBox"/><text style="text-anchor: middle; dominant-baseline: middle; font-size: 12px;" y="316.3968505859375" x="527.567626953125" id="rel3" class="er relationshipLabel">features</text><rect height="14" width="58.05078125" y="448.170654296875" x="940.974609375" class="er relationshipLabelBox"/><text style="text-anchor: middle; dominant-baseline: middle; font-size: 12px;" y="455.170654296875" x="970" id="rel4" class="er relationshipLabel">behaviours</text><rect height="14" width="33.958984375" y="629.4373779296875" x="303.0205078125" class="er relationshipLabelBox"/><text style="text-anchor: middle; dominant-baseline: middle; font-size: 12px;" y="636.4373779296875" x="320" id="rel5" class="er relationshipLabel">param</text><rect height="14" width="49.73046875" y="485.13128662109375" x="507.70538330078125" class="er relationshipLabelBox"/><text style="text-anchor: middle; dominant-baseline: middle; font-size: 12px;" y="492.13128662109375" x="532.5706176757812" id="rel6" class="er relationshipLabel">scenarios</text><rect height="14" width="38.919921875" y="619.7244873046875" x="200.5400390625" class="er relationshipLabelBox"/><text style="text-anchor: middle; dominant-baseline: middle; font-size: 12px;" y="626.7244873046875" x="220" id="rel7" class="er relationshipLabel">params</text><rect height="14" width="39.67578125" y="313.66192626953125" x="427.63909912109375" class="er relationshipLabelBox"/><text style="text-anchor: middle; dominant-baseline: middle; font-size: 12px;" y="320.66192626953125" x="447.47698974609375" id="rel8" class="er relationshipLabel">project</text><rect height="14" width="27.845703125" y="663" x="521.5533447265625" class="er relationshipLabelBox"/><text style="text-anchor: middle; dominant-baseline: middle; font-size: 12px;" y="670" x="535.4761962890625" id="rel9" class="er relationshipLabel">steps</text><rect height="14" width="40.263671875" y="489.8833923339844" x="432.3101501464844" class="er relationshipLabelBox"/><text style="text-anchor: middle; dominant-baseline: middle; font-size: 12px;" y="496.8833923339844" x="452.4419860839844" id="rel10" class="er relationshipLabel">feature</text><rect height="14" width="38.919921875" y="807.0626831054688" x="239.56991577148438" class="er relationshipLabelBox"/><text style="text-anchor: middle; dominant-baseline: middle; font-size: 12px;" y="814.0626831054688" x="259.0298767089844" id="rel11" class="er relationshipLabel">params</text><rect height="14" width="54.38671875" y="804.9215087890625" x="691.0215454101562" class="er relationshipLabelBox"/><text style="text-anchor: middle; dominant-baseline: middle; font-size: 12px;" y="811.9215087890625" x="718.2149047851562" id="rel12" class="er relationshipLabel">behaviour</text><rect height="14" width="45.291015625" y="663" x="431.8782958984375" class="er relationshipLabelBox"/><text style="text-anchor: middle; dominant-baseline: middle; font-size: 12px;" y="670" x="454.5238037109375" id="rel13" class="er relationshipLabel">scenario</text><rect height="14" width="90.005859375" y="807.6358642578125" x="623.7644653320312" class="er relationshipLabelBox"/><text style="text-anchor: middle; dominant-baseline: middle; font-size: 12px;" y="814.6358642578125" x="668.7673950195312" id="rel14" class="er relationshipLabel">parentBehaviour</text><rect height="14" width="39.67578125" y="519.1348876953125" x="650.162109375" class="er relationshipLabelBox"/><text style="text-anchor: middle; dominant-baseline: middle; font-size: 12px;" y="526.1348876953125" x="670" id="rel15" class="er relationshipLabel">project</text><rect height="14" width="27.845703125" y="855.2650756835938" x="570.31103515625" class="er relationshipLabelBox"/><text style="text-anchor: middle; dominant-baseline: middle; font-size: 12px;" y="862.2650756835938" x="584.23388671875" id="rel16" class="er relationshipLabel">steps</text><rect height="14" width="46.859375" y="868.3641357421875" x="522.8029174804688" class="er relationshipLabelBox"/><text style="text-anchor: middle; dominant-baseline: middle; font-size: 12px;" y="875.3641357421875" x="546.2326049804688" id="rel17" class="er relationshipLabel">subSteps</text><rect height="14" width="27.845703125" y="801.4560546875" x="211.65200805664062" class="er relationshipLabelBox"/><text style="text-anchor: middle; dominant-baseline: middle; font-size: 12px;" y="808.4560546875" x="225.57485961914062" id="rel18" class="er relationshipLabel">steps</text><rect height="14" width="40.263671875" y="502.7099609375" x="-50.58110046386719" class="er relationshipLabelBox"/><text style="text-anchor: middle; dominant-baseline: middle; font-size: 12px;" y="509.7099609375" x="-30.449264526367188" id="rel19" class="er relationshipLabel">feature</text><rect height="14" width="39.67578125" y="400.31585693359375" x="-199.8378448486328" class="er relationshipLabelBox"/><text style="text-anchor: middle; dominant-baseline: middle; font-size: 12px;" y="407.31585693359375" x="-179.9999542236328" id="rel20" class="er relationshipLabel">project</text></svg>