<svg aria-roledescription="er" viewBox="0 0 693.8046875 640" style="max-width: 693.805px; background-color: white;" xmlns:xlink="http://www.w3.org/1999/xlink" xmlns="http://www.w3.org/2000/svg" width="100%" id="mermaid-0"><style>#mermaid-0{font-family:"trebuchet ms",verdana,arial,sans-serif;font-size:16px;fill:#000000;}#mermaid-0 .error-icon{fill:#552222;}#mermaid-0 .error-text{fill:#552222;stroke:#552222;}#mermaid-0 .edge-thickness-normal{stroke-width:2px;}#mermaid-0 .edge-thickness-thick{stroke-width:3.5px;}#mermaid-0 .edge-pattern-solid{stroke-dasharray:0;}#mermaid-0 .edge-pattern-dashed{stroke-dasharray:3;}#mermaid-0 .edge-pattern-dotted{stroke-dasharray:2;}#mermaid-0 .marker{fill:#000000;stroke:#000000;}#mermaid-0 .marker.cross{stroke:#000000;}#mermaid-0 svg{font-family:"trebuchet ms",verdana,arial,sans-serif;font-size:16px;}#mermaid-0 .entityBox{fill:#cde498;stroke:#13540c;}#mermaid-0 .attributeBoxOdd{fill:#ffffff;stroke:#13540c;}#mermaid-0 .attributeBoxEven{fill:#f2f2f2;stroke:#13540c;}#mermaid-0 .relationshipLabelBox{fill:hsl(78.1578947368, 58.4615384615%, 84.5098039216%);opacity:0.7;background-color:hsl(78.1578947368, 58.4615384615%, 84.5098039216%);}#mermaid-0 .relationshipLabelBox rect{opacity:0.5;}#mermaid-0 .relationshipLine{stroke:#000000;}#mermaid-0 .entityTitleText{text-anchor:middle;font-size:18px;fill:#000000;}#mermaid-0 :root{--mermaid-font-family:"trebuchet ms",verdana,arial,sans-serif;}</style><g/><defs><marker orient="auto" markerHeight="18" markerWidth="18" refY="9" refX="0" id="ONLY_ONE_START"><path d="M9,0 L9,18 M15,0 L15,18" fill="none" stroke="gray"/></marker></defs><defs><marker orient="auto" markerHeight="18" markerWidth="18" refY="9" refX="18" id="ONLY_ONE_END"><path d="M3,0 L3,18 M9,0 L9,18" fill="none" stroke="gray"/></marker></defs><defs><marker orient="auto" markerHeight="18" markerWidth="30" refY="9" refX="0" id="ZERO_OR_ONE_START"><circle r="6" cy="9" cx="21" fill="white" stroke="gray"/><path d="M9,0 L9,18" fill="none" stroke="gray"/></marker></defs><defs><marker orient="auto" markerHeight="18" markerWidth="30" refY="9" refX="30" id="ZERO_OR_ONE_END"><circle r="6" cy="9" cx="9" fill="white" stroke="gray"/><path d="M21,0 L21,18" fill="none" stroke="gray"/></marker></defs><defs><marker orient="auto" markerHeight="36" markerWidth="45" refY="18" refX="18" id="ONE_OR_MORE_START"><path d="M0,18 Q 18,0 36,18 Q 18,36 0,18 M42,9 L42,27" fill="none" stroke="gray"/></marker></defs><defs><marker orient="auto" markerHeight="36" markerWidth="45" refY="18" refX="27" id="ONE_OR_MORE_END"><path d="M3,9 L3,27 M9,18 Q27,0 45,18 Q27,36 9,18" fill="none" stroke="gray"/></marker></defs><defs><marker orient="auto" markerHeight="36" markerWidth="57" refY="18" refX="18" id="ZERO_OR_MORE_START"><circle r="6" cy="18" cx="48" fill="white" stroke="gray"/><path d="M0,18 Q18,0 36,18 Q18,36 0,18" fill="none" stroke="gray"/></marker></defs><defs><marker orient="auto" markerHeight="36" markerWidth="57" refY="18" refX="39" id="ZERO_OR_MORE_END"><circle r="6" cy="18" cx="9" fill="white" stroke="gray"/><path d="M21,18 Q39,0 57,18 Q39,36 21,18" fill="none" stroke="gray"/></marker></defs><path style="stroke: gray; fill: none;" marker-start="url(#ZERO_OR_MORE_START)" marker-end="url(#ONLY_ONE_END)" d="M98.57142857142857,445L93.80952380952381,453.3333333333333C89.04761904761904,461.6666666666667,79.52380952380952,478.3333333333333,74.76190476190476,495C70,511.6666666666667,70,528.3333333333334,70,536.6666666666666L70,545" class="er relationshipLine"/><path style="stroke: gray; fill: none;" marker-start="url(#ZERO_OR_MORE_START)" marker-end="url(#ONLY_ONE_END)" d="M142.24386160714286,445L147.18694196428572,453.3333333333333C152.13002232142858,461.6666666666667,162.0161830357143,478.3333333333333,183.94298735119048,496.4497668458182C205.86979166666666,514.566200358303,239.83723958333334,534.1324007166062,256.8209635416667,543.9155008957578L273.8046875,553.6986010749093" class="er relationshipLine"/><path style="stroke: gray; fill: none;" marker-start="url(#ZERO_OR_MORE_START)" marker-end="url(#ONLY_ONE_END)" d="M371.90234375,445L371.90234375,453.3333333333333C371.90234375,461.6666666666667,371.90234375,478.3333333333333,367.3216145833333,495C362.7408854166667,511.6666666666667,353.5794270833333,528.3333333333334,348.9986979166667,536.6666666666666L344.41796875,545" class="er relationshipLine"/><path style="stroke: gray; fill: none;" marker-start="url(#ZERO_OR_MORE_START)" marker-end="url(#ONLY_ONE_END)" d="M223.8046875,270L223.8046875,278.3333333333333C223.8046875,286.6666666666667,223.8046875,303.3333333333333,240.154296875,321.32644695311194C256.50390625,339.31956057289057,289.203125,358.6391211457811,305.552734375,368.2989014322264L321.90234375,377.9586817186717" class="er relationshipLine"/><path style="stroke: gray; fill: none;" marker-start="url(#ZERO_OR_MORE_START)" marker-end="url(#ONLY_ONE_END)" d="M421.90234375,75.13418512745423L388.8860677083333,86.77848760621185C355.8697916666667,98.42279008496949,289.8372395833333,121.71139504248474,256.8209635416667,141.6890308545757C223.8046875,161.66666666666666,223.8046875,178.33333333333334,223.8046875,186.66666666666666L223.8046875,195" class="er relationshipLine"/><path style="stroke: gray; fill: none;" marker-start="url(#ZERO_OR_MORE_START)" marker-end="url(#ONLY_ONE_END)" d="M521.90234375,86.30139892509065L538.8860677083334,96.0844991042422C555.8697916666666,105.86759928339377,589.8372395833334,125.4337996416969,606.8209635416666,149.80023315418177C623.8046875,174.16666666666666,623.8046875,203.33333333333334,623.8046875,232.5C623.8046875,261.6666666666667,623.8046875,290.8333333333333,623.8046875,313.75C623.8046875,336.6666666666667,623.8046875,353.3333333333333,623.8046875,361.6666666666667L623.8046875,370" class="er relationshipLine"/><path style="stroke: gray; fill: none;" marker-start="url(#ZERO_OR_MORE_START)" marker-end="url(#ZERO_OR_MORE_END)" d="M429.86049107142856,95L420.5178571428571,103.33333333333333C411.1752232142857,111.66666666666667,392.48995535714283,128.33333333333334,387.90922619047615,145C383.32849702380946,161.66666666666666,392.85230654761904,178.33333333333334,397.6142113095238,186.66666666666666L402.37611607142856,195" class="er relationshipLine"/><path style="stroke: gray; fill: none;" marker-start="url(#ZERO_OR_MORE_START)" marker-end="url(#ZERO_OR_ONE_END)" d="M623.8046875,445L623.8046875,453.3333333333333C623.8046875,461.6666666666667,623.8046875,478.3333333333333,582.1380208333334,498.8194444444444C540.4713541666666,519.3055555555555,457.1380208333333,543.6111111111111,415.4713541666667,555.7638888888888L373.8046875,567.9166666666666" class="er relationshipLine"/><path style="stroke: gray; fill: none;" marker-start="url(#ZERO_OR_MORE_START)" marker-end="url(#ZERO_OR_MORE_END)" d="M445.23325892857144,195L449.9951636904762,186.66666666666666C454.75706845238096,178.33333333333334,464.28087797619054,161.66666666666666,468.86160714285717,145C473.44233630952385,128.33333333333334,473.07998511904765,111.66666666666667,472.8988095238096,103.33333333333333L472.71763392857144,95" class="er relationshipLine"/><path style="stroke: gray; fill: none;" marker-start="url(#ZERO_OR_MORE_START)" marker-end="url(#ONLY_ONE_END)" d="M423.8046875,270L423.8046875,278.3333333333333C423.8046875,286.6666666666667,423.8046875,303.3333333333333,418.8616071428571,320C413.9185267857143,336.6666666666667,404.0323660714286,353.3333333333333,399.0892857142857,361.6666666666667L394.14620535714283,370" class="er relationshipLine"/><g transform="translate(20,545 )" id="entity-User-26c65703-133d-492e-9fd0-48a362186968"><rect height="75" width="100" y="0" x="0" class="er entityBox"/><text style="dominant-baseline: middle; text-anchor: middle; font-size: 12px;" transform="translate(50,37.5)" y="0" x="0" id="text-entity-User-26c65703-133d-492e-9fd0-48a362186968" class="er entityLabel">User</text></g><g transform="translate(273.8046875,545 )" id="entity-Project-18e99416-5b02-4c19-abec-bf1e5c183887"><rect height="75" width="100" y="0" x="0" class="er entityBox"/><text style="dominant-baseline: middle; text-anchor: middle; font-size: 12px;" transform="translate(50,37.5)" y="0" x="0" id="text-entity-Project-18e99416-5b02-4c19-abec-bf1e5c183887" class="er entityLabel">Project</text></g><g transform="translate(66.1953125,370 )" id="entity-UserOnProject-fff259b7-bde0-4894-ac38-29cb4e8d4d39"><rect height="75" width="107.609375" y="0" x="0" class="er entityBox"/><text style="dominant-baseline: middle; text-anchor: middle; font-size: 12px;" transform="translate(53.8046875,37.5)" y="0" x="0" id="text-entity-UserOnProject-fff259b7-bde0-4894-ac38-29cb4e8d4d39" class="er entityLabel">UserOnProject</text></g><g transform="translate(321.90234375,370 )" id="entity-Feature-e3097a93-b56e-4f1b-91df-8a93ae02cee7"><rect height="75" width="100" y="0" x="0" class="er entityBox"/><text style="dominant-baseline: middle; text-anchor: middle; font-size: 12px;" transform="translate(50,37.5)" y="0" x="0" id="text-entity-Feature-e3097a93-b56e-4f1b-91df-8a93ae02cee7" class="er entityLabel">Feature</text></g><g transform="translate(173.8046875,195 )" id="entity-Scenario-543cdedd-9b5d-4ab7-9e84-71e3874c4288"><rect height="75" width="100" y="0" x="0" class="er entityBox"/><text style="dominant-baseline: middle; text-anchor: middle; font-size: 12px;" transform="translate(50,37.5)" y="0" x="0" id="text-entity-Scenario-543cdedd-9b5d-4ab7-9e84-71e3874c4288" class="er entityLabel">Scenario</text></g><g transform="translate(421.90234375,20 )" id="entity-Step-548fb811-3a62-44f1-8490-3cb836d1e507"><rect height="75" width="100" y="0" x="0" class="er entityBox"/><text style="dominant-baseline: middle; text-anchor: middle; font-size: 12px;" transform="translate(50,37.5)" y="0" x="0" id="text-entity-Step-548fb811-3a62-44f1-8490-3cb836d1e507" class="er entityLabel">Step</text></g><g transform="translate(573.8046875,370 )" id="entity-Behaviour-e777c785-b272-48ca-94b3-5233164bbf35"><rect height="75" width="100" y="0" x="0" class="er entityBox"/><text style="dominant-baseline: middle; text-anchor: middle; font-size: 12px;" transform="translate(50,37.5)" y="0" x="0" id="text-entity-Behaviour-e777c785-b272-48ca-94b3-5233164bbf35" class="er entityLabel">Behaviour</text></g><g transform="translate(373.8046875,195 )" id="entity-Param-a8cd24bb-0f8f-4ff4-aa0b-eb0a958d320f"><rect height="75" width="100" y="0" x="0" class="er entityBox"/><text style="dominant-baseline: middle; text-anchor: middle; font-size: 12px;" transform="translate(50,37.5)" y="0" x="0" id="text-entity-Param-a8cd24bb-0f8f-4ff4-aa0b-eb0a958d320f" class="er entityLabel">Param</text></g><rect height="14" width="23.958984375" y="485.5527648925781" x="63.51519012451172" class="er relationshipLabelBox"/><text style="text-anchor: middle; dominant-baseline: middle; font-size: 12px;" y="492.5527648925781" x="75.49468231201172" id="rel1" class="er relationshipLabel">user</text><rect height="14" width="39.67578125" y="501.5203857421875" x="180.04891967773438" class="er relationshipLabelBox"/><text style="text-anchor: middle; dominant-baseline: middle; font-size: 12px;" y="508.5203857421875" x="199.88681030273438" id="rel2" class="er relationshipLabel">project</text><rect height="14" width="39.67578125" y="490.2819519042969" x="346.8284912109375" class="er relationshipLabelBox"/><text style="text-anchor: middle; dominant-baseline: middle; font-size: 12px;" y="497.2819519042969" x="366.6663818359375" id="rel3" class="er relationshipLabel">project</text><rect height="14" width="40.263671875" y="329.1319580078125" x="236.39825439453125" class="er relationshipLabelBox"/><text style="text-anchor: middle; dominant-baseline: middle; font-size: 12px;" y="336.1319580078125" x="256.53009033203125" id="rel4" class="er relationshipLabel">feature</text><rect height="14" width="45.291015625" y="110.58020782470703" x="284.22100830078125" class="er relationshipLabelBox"/><text style="text-anchor: middle; dominant-baseline: middle; font-size: 12px;" y="117.58020782470703" x="306.86651611328125" id="rel5" class="er relationshipLabel">scenario</text><rect height="14" width="54.38671875" y="197.88662719726562" x="596.068359375" class="er relationshipLabelBox"/><text style="text-anchor: middle; dominant-baseline: middle; font-size: 12px;" y="204.88662719726562" x="623.26171875" id="rel6" class="er relationshipLabel">behaviour</text><rect height="0" width="0" y="139.12889099121094" x="390.0745544433594" class="er relationshipLabelBox"/><text style="text-anchor: middle; dominant-baseline: middle; font-size: 12px;" y="139.12889099121094" x="390.0745544433594" id="rel7" class="er relationshipLabel"/><rect height="14" width="39.67578125" y="518.34521484375" x="494.29180908203125" class="er relationshipLabelBox"/><text style="text-anchor: middle; dominant-baseline: middle; font-size: 12px;" y="525.34521484375" x="514.1296997070312" id="rel8" class="er relationshipLabel">project</text><rect height="0" width="0" y="147.45237731933594" x="468.1526184082031" class="er relationshipLabelBox"/><text style="text-anchor: middle; dominant-baseline: middle; font-size: 12px;" y="147.45237731933594" x="468.1526184082031" id="rel9" class="er relationshipLabel"/><rect height="14" width="40.263671875" y="315.61627197265625" x="397.9140930175781" class="er relationshipLabelBox"/><text style="text-anchor: middle; dominant-baseline: middle; font-size: 12px;" y="322.61627197265625" x="418.0459289550781" id="rel10" class="er relationshipLabel">feature</text></svg>