<svg aria-roledescription="er" viewBox="0 0 697.609375 640" style="max-width: 697.609px; background-color: white;" xmlns:xlink="http://www.w3.org/1999/xlink" xmlns="http://www.w3.org/2000/svg" width="100%" id="mermaid-0"><style>#mermaid-0{font-family:"trebuchet ms",verdana,arial,sans-serif;font-size:16px;fill:#000000;}#mermaid-0 .error-icon{fill:#552222;}#mermaid-0 .error-text{fill:#552222;stroke:#552222;}#mermaid-0 .edge-thickness-normal{stroke-width:2px;}#mermaid-0 .edge-thickness-thick{stroke-width:3.5px;}#mermaid-0 .edge-pattern-solid{stroke-dasharray:0;}#mermaid-0 .edge-pattern-dashed{stroke-dasharray:3;}#mermaid-0 .edge-pattern-dotted{stroke-dasharray:2;}#mermaid-0 .marker{fill:#000000;stroke:#000000;}#mermaid-0 .marker.cross{stroke:#000000;}#mermaid-0 svg{font-family:"trebuchet ms",verdana,arial,sans-serif;font-size:16px;}#mermaid-0 .entityBox{fill:#cde498;stroke:#13540c;}#mermaid-0 .attributeBoxOdd{fill:#ffffff;stroke:#13540c;}#mermaid-0 .attributeBoxEven{fill:#f2f2f2;stroke:#13540c;}#mermaid-0 .relationshipLabelBox{fill:hsl(78.1578947368, 58.4615384615%, 84.5098039216%);opacity:0.7;background-color:hsl(78.1578947368, 58.4615384615%, 84.5098039216%);}#mermaid-0 .relationshipLabelBox rect{opacity:0.5;}#mermaid-0 .relationshipLine{stroke:#000000;}#mermaid-0 .entityTitleText{text-anchor:middle;font-size:18px;fill:#000000;}#mermaid-0 :root{--mermaid-font-family:"trebuchet ms",verdana,arial,sans-serif;}</style><g/><defs><marker orient="auto" markerHeight="18" markerWidth="18" refY="9" refX="0" id="ONLY_ONE_START"><path d="M9,0 L9,18 M15,0 L15,18" fill="none" stroke="gray"/></marker></defs><defs><marker orient="auto" markerHeight="18" markerWidth="18" refY="9" refX="18" id="ONLY_ONE_END"><path d="M3,0 L3,18 M9,0 L9,18" fill="none" stroke="gray"/></marker></defs><defs><marker orient="auto" markerHeight="18" markerWidth="30" refY="9" refX="0" id="ZERO_OR_ONE_START"><circle r="6" cy="9" cx="21" fill="white" stroke="gray"/><path d="M9,0 L9,18" fill="none" stroke="gray"/></marker></defs><defs><marker orient="auto" markerHeight="18" markerWidth="30" refY="9" refX="30" id="ZERO_OR_ONE_END"><circle r="6" cy="9" cx="9" fill="white" stroke="gray"/><path d="M21,0 L21,18" fill="none" stroke="gray"/></marker></defs><defs><marker orient="auto" markerHeight="36" markerWidth="45" refY="18" refX="18" id="ONE_OR_MORE_START"><path d="M0,18 Q 18,0 36,18 Q 18,36 0,18 M42,9 L42,27" fill="none" stroke="gray"/></marker></defs><defs><marker orient="auto" markerHeight="36" markerWidth="45" refY="18" refX="27" id="ONE_OR_MORE_END"><path d="M3,9 L3,27 M9,18 Q27,0 45,18 Q27,36 9,18" fill="none" stroke="gray"/></marker></defs><defs><marker orient="auto" markerHeight="36" markerWidth="57" refY="18" refX="18" id="ZERO_OR_MORE_START"><circle r="6" cy="18" cx="48" fill="white" stroke="gray"/><path d="M0,18 Q18,0 36,18 Q18,36 0,18" fill="none" stroke="gray"/></marker></defs><defs><marker orient="auto" markerHeight="36" markerWidth="57" refY="18" refX="39" id="ZERO_OR_MORE_END"><circle r="6" cy="18" cx="9" fill="white" stroke="gray"/><path d="M21,18 Q39,0 57,18 Q39,36 21,18" fill="none" stroke="gray"/></marker></defs><path style="stroke: gray; fill: none;" marker-start="url(#ZERO_OR_MORE_START)" marker-end="url(#ONLY_ONE_END)" d="M127.609375,422.9965026872734L169.27604166666666,434.9970855727278C210.94270833333334,446.99766845818226,294.2760416666667,470.9988342290911,335.9427083333333,491.3327504478789C377.609375,511.6666666666667,377.609375,528.3333333333334,377.609375,536.6666666666666L377.609375,545" class="er relationshipLine"/><path style="stroke: gray; fill: none;" marker-start="url(#ZERO_OR_MORE_START)" marker-end="url(#ONLY_ONE_END)" d="M73.8046875,445L73.8046875,453.3333333333333C73.8046875,461.6666666666667,73.8046875,478.3333333333333,73.8046875,495C73.8046875,511.6666666666667,73.8046875,528.3333333333334,73.8046875,536.6666666666666L73.8046875,545" class="er relationshipLine"/><path style="stroke: gray; fill: none;" marker-start="url(#ZERO_OR_MORE_START)" marker-end="url(#ONLY_ONE_END)" d="M277.609375,445L277.609375,453.3333333333333C277.609375,461.6666666666667,277.609375,478.3333333333333,251.97526041666666,497.67222818517524C226.34114583333334,517.0111230370171,175.07291666666666,539.0222460740343,149.43880208333334,550.0278075925429L123.8046875,561.0333691110515" class="er relationshipLine"/><path style="stroke: gray; fill: none;" marker-start="url(#ZERO_OR_MORE_START)" marker-end="url(#ONLY_ONE_END)" d="M177.609375,270L177.609375,278.3333333333333C177.609375,286.6666666666667,177.609375,303.3333333333333,187.13318452380952,320C196.65699404761904,336.6666666666667,215.70461309523807,353.3333333333333,225.2284226190476,361.6666666666667L234.75223214285714,370" class="er relationshipLine"/><path style="stroke: gray; fill: none;" marker-start="url(#ZERO_OR_MORE_START)" marker-end="url(#ONLY_ONE_END)" d="M377.609375,75L344.2760416666667,86.66666666666667C310.9427083333333,98.33333333333333,244.27604166666666,121.66666666666667,210.94270833333334,141.66666666666666C177.609375,161.66666666666666,177.609375,178.33333333333334,177.609375,186.66666666666666L177.609375,195" class="er relationshipLine"/><path style="stroke: gray; fill: none;" marker-start="url(#ZERO_OR_MORE_START)" marker-end="url(#ONLY_ONE_END)" d="M406.18080357142856,95L401.4188988095238,103.33333333333333C396.65699404761904,111.66666666666667,387.13318452380946,128.33333333333334,382.37127976190476,145C377.609375,161.66666666666666,377.609375,178.33333333333334,377.609375,186.66666666666666L377.609375,195" class="er relationshipLine"/><path style="stroke: gray; fill: none;" marker-start="url(#ZERO_OR_MORE_START)" marker-end="url(#ZERO_OR_MORE_END)" d="M470.46651785714283,95L479.99032738095235,103.33333333333333C489.5141369047619,111.66666666666667,508.56175595238096,128.33333333333334,522.8474702380952,145C537.1331845238095,161.66666666666666,546.656994047619,178.33333333333334,551.4188988095237,186.66666666666666L556.1808035714286,195" class="er relationshipLine"/><path style="stroke: gray; fill: none;" marker-start="url(#ZERO_OR_MORE_START)" marker-end="url(#ZERO_OR_MORE_END)" d="M599.0379464285714,195L603.7998511904763,186.66666666666666C608.561755952381,178.33333333333334,618.0855654761905,161.66666666666666,597.8474702380953,142.39583333333334C577.609375,123.125,527.609375,101.25,502.609375,90.3125L477.609375,79.375" class="er relationshipLine"/><path style="stroke: gray; fill: none;" marker-start="url(#ZERO_OR_MORE_START)" marker-end="url(#ONLY_ONE_END)" d="M599.0379464285714,270L603.7998511904763,278.3333333333333C608.561755952381,286.6666666666667,618.0855654761905,303.3333333333333,622.8474702380953,320C627.609375,336.6666666666667,627.609375,353.3333333333333,627.609375,361.6666666666667L627.609375,370" class="er relationshipLine"/><path style="stroke: gray; fill: none;" marker-start="url(#ZERO_OR_MORE_START)" marker-end="url(#ONLY_ONE_END)" d="M534.7522321428571,270L525.2284226190476,278.3333333333333C515.7046130952381,286.6666666666667,496.65699404761904,303.3333333333333,462.13318452380946,322.6041666666667C427.609375,341.875,377.609375,363.75,352.609375,374.6875L327.609375,385.625" class="er relationshipLine"/><g transform="translate(327.609375,545 )" id="entity-User-9c900269-34d3-4bbf-bc80-04ffff6c21a5"><rect height="75" width="100" y="0" x="0" class="er entityBox"/><text style="dominant-baseline: middle; text-anchor: middle; font-size: 12px;" transform="translate(50,37.5)" y="0" x="0" id="text-entity-User-9c900269-34d3-4bbf-bc80-04ffff6c21a5" class="er entityLabel">User</text></g><g transform="translate(23.8046875,545 )" id="entity-Project-1fdb0b21-40aa-4646-b4e3-6cba441df00d"><rect height="75" width="100" y="0" x="0" class="er entityBox"/><text style="dominant-baseline: middle; text-anchor: middle; font-size: 12px;" transform="translate(50,37.5)" y="0" x="0" id="text-entity-Project-1fdb0b21-40aa-4646-b4e3-6cba441df00d" class="er entityLabel">Project</text></g><g transform="translate(20,370 )" id="entity-UserOnProject-c47cb37d-446c-465a-8913-50e8dcd162be"><rect height="75" width="107.609375" y="0" x="0" class="er entityBox"/><text style="dominant-baseline: middle; text-anchor: middle; font-size: 12px;" transform="translate(53.8046875,37.5)" y="0" x="0" id="text-entity-UserOnProject-c47cb37d-446c-465a-8913-50e8dcd162be" class="er entityLabel">UserOnProject</text></g><g transform="translate(227.609375,370 )" id="entity-Feature-77c97a39-8539-44c1-b810-63a45828d868"><rect height="75" width="100" y="0" x="0" class="er entityBox"/><text style="dominant-baseline: middle; text-anchor: middle; font-size: 12px;" transform="translate(50,37.5)" y="0" x="0" id="text-entity-Feature-77c97a39-8539-44c1-b810-63a45828d868" class="er entityLabel">Feature</text></g><g transform="translate(127.609375,195 )" id="entity-Scenario-a6e951c6-86c6-48e4-a0ec-db9026ff44bf"><rect height="75" width="100" y="0" x="0" class="er entityBox"/><text style="dominant-baseline: middle; text-anchor: middle; font-size: 12px;" transform="translate(50,37.5)" y="0" x="0" id="text-entity-Scenario-a6e951c6-86c6-48e4-a0ec-db9026ff44bf" class="er entityLabel">Scenario</text></g><g transform="translate(377.609375,20 )" id="entity-Step-75e772db-6816-4d72-9696-8fc2d55ff881"><rect height="75" width="100" y="0" x="0" class="er entityBox"/><text style="dominant-baseline: middle; text-anchor: middle; font-size: 12px;" transform="translate(50,37.5)" y="0" x="0" id="text-entity-Step-75e772db-6816-4d72-9696-8fc2d55ff881" class="er entityLabel">Step</text></g><g transform="translate(327.609375,195 )" id="entity-Behaviour-51bc495b-09d6-4514-ac98-bf88e61eb8ce"><rect height="75" width="100" y="0" x="0" class="er entityBox"/><text style="dominant-baseline: middle; text-anchor: middle; font-size: 12px;" transform="translate(50,37.5)" y="0" x="0" id="text-entity-Behaviour-51bc495b-09d6-4514-ac98-bf88e61eb8ce" class="er entityLabel">Behaviour</text></g><g transform="translate(527.609375,195 )" id="entity-Param-72860696-9881-43c0-a855-be1498d1d79c"><rect height="75" width="100" y="0" x="0" class="er entityBox"/><text style="dominant-baseline: middle; text-anchor: middle; font-size: 12px;" transform="translate(50,37.5)" y="0" x="0" id="text-entity-Param-72860696-9881-43c0-a855-be1498d1d79c" class="er entityLabel">Param</text></g><g transform="translate(577.609375,370 )" id="entity-ParamType-f7012c43-fe77-4b28-9cac-55836a42ee85"><rect height="75" width="100" y="0" x="0" class="er entityBox"/><text style="dominant-baseline: middle; text-anchor: middle; font-size: 12px;" transform="translate(50,37.5)" y="0" x="0" id="text-entity-ParamType-f7012c43-fe77-4b28-9cac-55836a42ee85" class="er entityLabel">ParamType</text></g><rect height="14" width="23.958984375" y="458.0496520996094" x="255.93771362304688" class="er relationshipLabelBox"/><text style="text-anchor: middle; dominant-baseline: middle; font-size: 12px;" y="465.0496520996094" x="267.9172058105469" id="rel1" class="er relationshipLabel">user</text><rect height="14" width="39.67578125" y="488" x="53.966796875" class="er relationshipLabelBox"/><text style="text-anchor: middle; dominant-baseline: middle; font-size: 12px;" y="495" x="73.8046875" id="rel2" class="er relationshipLabel">project</text><rect height="14" width="39.67578125" y="511.73406982421875" x="197.3082733154297" class="er relationshipLabelBox"/><text style="text-anchor: middle; dominant-baseline: middle; font-size: 12px;" y="518.7340698242188" x="217.1461639404297" id="rel3" class="er relationshipLabel">project</text><rect height="14" width="40.263671875" y="320.4354553222656" x="171.83932495117188" class="er relationshipLabelBox"/><text style="text-anchor: middle; dominant-baseline: middle; font-size: 12px;" y="327.4354553222656" x="191.97116088867188" id="rel4" class="er relationshipLabel">feature</text><rect height="14" width="45.291015625" y="110.45104217529297" x="238.99993896484375" class="er relationshipLabelBox"/><text style="text-anchor: middle; dominant-baseline: middle; font-size: 12px;" y="117.45104217529297" x="261.64544677734375" id="rel5" class="er relationshipLabel">scenario</text><rect height="14" width="54.38671875" y="135.55276489257812" x="355.91070556640625" class="er relationshipLabelBox"/><text style="text-anchor: middle; dominant-baseline: middle; font-size: 12px;" y="142.55276489257812" x="383.10406494140625" id="rel6" class="er relationshipLabel">behaviour</text><rect height="0" width="0" y="140.39691162109375" x="518.7859497070312" class="er relationshipLabelBox"/><text style="text-anchor: middle; dominant-baseline: middle; font-size: 12px;" y="140.39691162109375" x="518.7859497070312" id="rel7" class="er relationshipLabel"/><rect height="0" width="0" y="120.64712524414062" x="565.9791259765625" class="er relationshipLabelBox"/><text style="text-anchor: middle; dominant-baseline: middle; font-size: 12px;" y="120.64712524414062" x="565.9791259765625" id="rel8" class="er relationshipLabel"/><rect height="14" width="24.361328125" y="310.55279541015625" x="609.9340209960938" class="er relationshipLabelBox"/><text style="text-anchor: middle; dominant-baseline: middle; font-size: 12px;" y="317.55279541015625" x="622.1146850585938" id="rel9" class="er relationshipLabel">type</text><rect height="14" width="40.263671875" y="329.25238037109375" x="416.0098876953125" class="er relationshipLabelBox"/><text style="text-anchor: middle; dominant-baseline: middle; font-size: 12px;" y="336.25238037109375" x="436.1417236328125" id="rel10" class="er relationshipLabel">feature</text></svg>