<svg aria-roledescription="er" viewBox="0 0 690 640" style="max-width: 690px; background-color: white;" xmlns:xlink="http://www.w3.org/1999/xlink" xmlns="http://www.w3.org/2000/svg" width="100%" id="mermaid-0"><style>#mermaid-0{font-family:"trebuchet ms",verdana,arial,sans-serif;font-size:16px;fill:#000000;}#mermaid-0 .error-icon{fill:#552222;}#mermaid-0 .error-text{fill:#552222;stroke:#552222;}#mermaid-0 .edge-thickness-normal{stroke-width:2px;}#mermaid-0 .edge-thickness-thick{stroke-width:3.5px;}#mermaid-0 .edge-pattern-solid{stroke-dasharray:0;}#mermaid-0 .edge-pattern-dashed{stroke-dasharray:3;}#mermaid-0 .edge-pattern-dotted{stroke-dasharray:2;}#mermaid-0 .marker{fill:#000000;stroke:#000000;}#mermaid-0 .marker.cross{stroke:#000000;}#mermaid-0 svg{font-family:"trebuchet ms",verdana,arial,sans-serif;font-size:16px;}#mermaid-0 .entityBox{fill:#cde498;stroke:#13540c;}#mermaid-0 .attributeBoxOdd{fill:#ffffff;stroke:#13540c;}#mermaid-0 .attributeBoxEven{fill:#f2f2f2;stroke:#13540c;}#mermaid-0 .relationshipLabelBox{fill:hsl(78.1578947368, 58.4615384615%, 84.5098039216%);opacity:0.7;background-color:hsl(78.1578947368, 58.4615384615%, 84.5098039216%);}#mermaid-0 .relationshipLabelBox rect{opacity:0.5;}#mermaid-0 .relationshipLine{stroke:#000000;}#mermaid-0 .entityTitleText{text-anchor:middle;font-size:18px;fill:#000000;}#mermaid-0 :root{--mermaid-font-family:"trebuchet ms",verdana,arial,sans-serif;}</style><g/><defs><marker orient="auto" markerHeight="18" markerWidth="18" refY="9" refX="0" id="ONLY_ONE_START"><path d="M9,0 L9,18 M15,0 L15,18" fill="none" stroke="gray"/></marker></defs><defs><marker orient="auto" markerHeight="18" markerWidth="18" refY="9" refX="18" id="ONLY_ONE_END"><path d="M3,0 L3,18 M9,0 L9,18" fill="none" stroke="gray"/></marker></defs><defs><marker orient="auto" markerHeight="18" markerWidth="30" refY="9" refX="0" id="ZERO_OR_ONE_START"><circle r="6" cy="9" cx="21" fill="white" stroke="gray"/><path d="M9,0 L9,18" fill="none" stroke="gray"/></marker></defs><defs><marker orient="auto" markerHeight="18" markerWidth="30" refY="9" refX="30" id="ZERO_OR_ONE_END"><circle r="6" cy="9" cx="9" fill="white" stroke="gray"/><path d="M21,0 L21,18" fill="none" stroke="gray"/></marker></defs><defs><marker orient="auto" markerHeight="36" markerWidth="45" refY="18" refX="18" id="ONE_OR_MORE_START"><path d="M0,18 Q 18,0 36,18 Q 18,36 0,18 M42,9 L42,27" fill="none" stroke="gray"/></marker></defs><defs><marker orient="auto" markerHeight="36" markerWidth="45" refY="18" refX="27" id="ONE_OR_MORE_END"><path d="M3,9 L3,27 M9,18 Q27,0 45,18 Q27,36 9,18" fill="none" stroke="gray"/></marker></defs><defs><marker orient="auto" markerHeight="36" markerWidth="57" refY="18" refX="18" id="ZERO_OR_MORE_START"><circle r="6" cy="18" cx="48" fill="white" stroke="gray"/><path d="M0,18 Q18,0 36,18 Q18,36 0,18" fill="none" stroke="gray"/></marker></defs><defs><marker orient="auto" markerHeight="36" markerWidth="57" refY="18" refX="39" id="ZERO_OR_MORE_END"><circle r="6" cy="18" cx="9" fill="white" stroke="gray"/><path d="M21,18 Q39,0 57,18 Q39,36 21,18" fill="none" stroke="gray"/></marker></defs><path style="stroke: gray; fill: none;" marker-start="url(#ZERO_OR_MORE_START)" marker-end="url(#ZERO_OR_MORE_END)" d="M70,445L70,453.3333333333333C70,461.6666666666667,70,478.3333333333333,82.5,495.4166666666667C95,512.5,120,530,132.5,538.75L145,547.5" class="er relationshipLine"/><path style="stroke: gray; fill: none;" marker-start="url(#ZERO_OR_MORE_START)" marker-end="url(#ZERO_OR_MORE_END)" d="M184.28571428571428,545L181.9047619047619,536.6666666666666C179.52380952380952,528.3333333333334,174.76190476190473,511.6666666666667,162.85714285714286,495C150.95238095238096,478.3333333333333,131.9047619047619,461.6666666666667,122.3809523809524,453.3333333333333L112.85714285714286,445" class="er relationshipLine"/><path style="stroke: gray; fill: none;" marker-start="url(#ZERO_OR_MORE_START)" marker-end="url(#ONLY_ONE_END)" d="M270,445L270,453.3333333333333C270,461.6666666666667,270,478.3333333333333,262.85714285714283,495C255.7142857142857,511.6666666666667,241.42857142857142,528.3333333333334,234.28571428571425,536.6666666666666L227.14285714285714,545" class="er relationshipLine"/><path style="stroke: gray; fill: none;" marker-start="url(#ZERO_OR_MORE_START)" marker-end="url(#ONLY_ONE_END)" d="M245,270L245,278.3333333333333C245,286.6666666666667,245,303.3333333333333,247.38095238095238,320C249.76190476190473,336.6666666666667,254.52380952380952,353.3333333333333,256.90476190476187,361.6666666666667L259.2857142857143,370" class="er relationshipLine"/><path style="stroke: gray; fill: none;" marker-start="url(#ZERO_OR_MORE_START)" marker-end="url(#ONLY_ONE_END)" d="M345,86.66666666666667L328.3333333333333,96.3888888888889C311.6666666666667,106.11111111111113,278.3333333333333,125.55555555555556,261.6666666666667,143.61111111111111C245,161.66666666666666,245,178.33333333333334,245,186.66666666666666L245,195" class="er relationshipLine"/><path style="stroke: gray; fill: none;" marker-start="url(#ZERO_OR_MORE_START)" marker-end="url(#ONLY_ONE_END)" d="M416.42857142857144,95L421.1904761904762,103.33333333333333C425.95238095238096,111.66666666666667,435.47619047619054,128.33333333333334,440.23809523809524,151.25C445,174.16666666666666,445,203.33333333333334,445,232.5C445,261.6666666666667,445,290.8333333333333,447.38095238095235,313.75C449.76190476190476,336.6666666666667,454.52380952380946,353.3333333333333,456.90476190476187,361.6666666666667L459.2857142857143,370" class="er relationshipLine"/><path style="stroke: gray; fill: none;" marker-start="url(#ZERO_OR_MORE_START)" marker-end="url(#ZERO_OR_MORE_END)" d="M445,82.5L465.8333333333333,92.91666666666667C486.6666666666667,103.33333333333333,528.3333333333334,124.16666666666667,553.9285714285714,142.91666666666666C579.5238095238095,161.66666666666666,589.047619047619,178.33333333333334,593.8095238095237,186.66666666666666L598.5714285714286,195" class="er relationshipLine"/><path style="stroke: gray; fill: none;" marker-start="url(#ZERO_OR_MORE_START)" marker-end="url(#ZERO_OR_ONE_END)" d="M470,445L470,453.3333333333333C470,461.6666666666667,470,478.3333333333333,432.5,498.5984848484848C395,518.8636363636364,320,542.7272727272727,282.5,554.6590909090909L245,566.5909090909091" class="er relationshipLine"/><path style="stroke: gray; fill: none;" marker-start="url(#ZERO_OR_MORE_START)" marker-end="url(#ZERO_OR_MORE_END)" d="M641.4285714285714,195L646.1904761904763,186.66666666666666C650.952380952381,178.33333333333334,660.4761904761905,161.66666666666666,627.7380952380953,141.40151515151516C595,121.13636363636363,520,97.27272727272727,482.5,85.34090909090908L445,73.4090909090909" class="er relationshipLine"/><path style="stroke: gray; fill: none;" marker-start="url(#ZERO_OR_MORE_START)" marker-end="url(#ONLY_ONE_END)" d="M620,270L620,278.3333333333333C620,286.6666666666667,620,303.3333333333333,570,324.1666666666667C520,345,420,370,370,382.5L320,395" class="er relationshipLine"/><g transform="translate(20,370 )" id="entity-User-3c9df424-f4b1-48fd-8604-548614d6e114"><rect height="75" width="100" y="0" x="0" class="er entityBox"/><text style="dominant-baseline: middle; text-anchor: middle; font-size: 12px;" transform="translate(50,37.5)" y="0" x="0" id="text-entity-User-3c9df424-f4b1-48fd-8604-548614d6e114" class="er entityLabel">User</text></g><g transform="translate(145,545 )" id="entity-Project-cd094c62-8ed2-49c1-9d47-7067dc35af4f"><rect height="75" width="100" y="0" x="0" class="er entityBox"/><text style="dominant-baseline: middle; text-anchor: middle; font-size: 12px;" transform="translate(50,37.5)" y="0" x="0" id="text-entity-Project-cd094c62-8ed2-49c1-9d47-7067dc35af4f" class="er entityLabel">Project</text></g><g transform="translate(220,370 )" id="entity-Feature-2147b60d-c16d-4fd5-90e0-0076895d55d6"><rect height="75" width="100" y="0" x="0" class="er entityBox"/><text style="dominant-baseline: middle; text-anchor: middle; font-size: 12px;" transform="translate(50,37.5)" y="0" x="0" id="text-entity-Feature-2147b60d-c16d-4fd5-90e0-0076895d55d6" class="er entityLabel">Feature</text></g><g transform="translate(195,195 )" id="entity-Scenario-24e044eb-0aa5-42fa-9b92-ecc42743c6c3"><rect height="75" width="100" y="0" x="0" class="er entityBox"/><text style="dominant-baseline: middle; text-anchor: middle; font-size: 12px;" transform="translate(50,37.5)" y="0" x="0" id="text-entity-Scenario-24e044eb-0aa5-42fa-9b92-ecc42743c6c3" class="er entityLabel">Scenario</text></g><g transform="translate(345,20 )" id="entity-Step-9383a5b3-83ab-433f-ae22-dc5dbc0a4d02"><rect height="75" width="100" y="0" x="0" class="er entityBox"/><text style="dominant-baseline: middle; text-anchor: middle; font-size: 12px;" transform="translate(50,37.5)" y="0" x="0" id="text-entity-Step-9383a5b3-83ab-433f-ae22-dc5dbc0a4d02" class="er entityLabel">Step</text></g><g transform="translate(420,370 )" id="entity-Behaviour-427918d0-b5aa-48c1-96c3-eaf28ebc7475"><rect height="75" width="100" y="0" x="0" class="er entityBox"/><text style="dominant-baseline: middle; text-anchor: middle; font-size: 12px;" transform="translate(50,37.5)" y="0" x="0" id="text-entity-Behaviour-427918d0-b5aa-48c1-96c3-eaf28ebc7475" class="er entityLabel">Behaviour</text></g><g transform="translate(570,195 )" id="entity-Param-28742125-35b4-48c8-9a2c-918810e90b2c"><rect height="75" width="100" y="0" x="0" class="er entityBox"/><text style="dominant-baseline: middle; text-anchor: middle; font-size: 12px;" transform="translate(50,37.5)" y="0" x="0" id="text-entity-Param-28742125-35b4-48c8-9a2c-918810e90b2c" class="er entityLabel">Param</text></g><rect height="0" width="0" y="506.2186584472656" x="91.86577606201172" class="er relationshipLabelBox"/><text style="text-anchor: middle; dominant-baseline: middle; font-size: 12px;" y="506.2186584472656" x="91.86577606201172" id="rel1" class="er relationshipLabel"/><rect height="0" width="0" y="488.592529296875" x="157.94898986816406" class="er relationshipLabelBox"/><text style="text-anchor: middle; dominant-baseline: middle; font-size: 12px;" y="488.592529296875" x="157.94898986816406" id="rel2" class="er relationshipLabel"/><rect height="14" width="39.67578125" y="492.874267578125" x="240.73565673828125" class="er relationshipLabelBox"/><text style="text-anchor: middle; dominant-baseline: middle; font-size: 12px;" y="499.874267578125" x="260.57354736328125" id="rel3" class="er relationshipLabel">project</text><rect height="14" width="40.263671875" y="313.66192626953125" x="227.3451385498047" class="er relationshipLabelBox"/><text style="text-anchor: middle; dominant-baseline: middle; font-size: 12px;" y="320.66192626953125" x="247.4769744873047" id="rel4" class="er relationshipLabel">feature</text><rect height="14" width="45.291015625" y="121.52342224121094" x="255.99957275390625" class="er relationshipLabelBox"/><text style="text-anchor: middle; dominant-baseline: middle; font-size: 12px;" y="128.52342224121094" x="278.64508056640625" id="rel5" class="er relationshipLabel">scenario</text><rect height="14" width="54.38671875" y="223.4945526123047" x="417.80621337890625" class="er relationshipLabelBox"/><text style="text-anchor: middle; dominant-baseline: middle; font-size: 12px;" y="230.4945526123047" x="444.99957275390625" id="rel6" class="er relationshipLabel">behaviour</text><rect height="0" width="0" y="127.73491668701172" x="530.76611328125" class="er relationshipLabelBox"/><text style="text-anchor: middle; dominant-baseline: middle; font-size: 12px;" y="127.73491668701172" x="530.76611328125" id="rel7" class="er relationshipLabel"/><rect height="14" width="39.67578125" y="517.0775756835938" x="353.3111877441406" class="er relationshipLabelBox"/><text style="text-anchor: middle; dominant-baseline: middle; font-size: 12px;" y="524.0775756835938" x="373.1490783691406" id="rel8" class="er relationshipLabel">project</text><rect height="0" width="0" y="114.63594818115234" x="568.767333984375" class="er relationshipLabelBox"/><text style="text-anchor: middle; dominant-baseline: middle; font-size: 12px;" y="114.63594818115234" x="568.767333984375" id="rel9" class="er relationshipLabel"/><rect height="14" width="40.263671875" y="345.32000732421875" x="464.5603332519531" class="er relationshipLabelBox"/><text style="text-anchor: middle; dominant-baseline: middle; font-size: 12px;" y="352.32000732421875" x="484.6921691894531" id="rel10" class="er relationshipLabel">feature</text></svg>