<svg aria-roledescription="er" role="graphics-document document" viewBox="-120.13127136230469 0 1134.22119140625 990" style="max-width: 1134.22px; background-color: white;" xmlns:xlink="http://www.w3.org/1999/xlink" xmlns="http://www.w3.org/2000/svg" width="100%" id="mermaid-0"><style>#mermaid-0{font-family:"trebuchet ms",verdana,arial,sans-serif;font-size:16px;fill:#000000;}#mermaid-0 .error-icon{fill:#552222;}#mermaid-0 .error-text{fill:#552222;stroke:#552222;}#mermaid-0 .edge-thickness-normal{stroke-width:2px;}#mermaid-0 .edge-thickness-thick{stroke-width:3.5px;}#mermaid-0 .edge-pattern-solid{stroke-dasharray:0;}#mermaid-0 .edge-pattern-dashed{stroke-dasharray:3;}#mermaid-0 .edge-pattern-dotted{stroke-dasharray:2;}#mermaid-0 .marker{fill:#000000;stroke:#000000;}#mermaid-0 .marker.cross{stroke:#000000;}#mermaid-0 svg{font-family:"trebuchet ms",verdana,arial,sans-serif;font-size:16px;}#mermaid-0 .entityBox{fill:#cde498;stroke:#13540c;}#mermaid-0 .attributeBoxOdd{fill:#ffffff;stroke:#13540c;}#mermaid-0 .attributeBoxEven{fill:#f2f2f2;stroke:#13540c;}#mermaid-0 .relationshipLabelBox{fill:hsl(78.1578947368, 58.4615384615%, 84.5098039216%);opacity:0.7;background-color:hsl(78.1578947368, 58.4615384615%, 84.5098039216%);}#mermaid-0 .relationshipLabelBox rect{opacity:0.5;}#mermaid-0 .relationshipLine{stroke:#000000;}#mermaid-0 .entityTitleText{text-anchor:middle;font-size:18px;fill:#000000;}#mermaid-0 :root{--mermaid-font-family:"trebuchet ms",verdana,arial,sans-serif;}</style><g/><defs><marker orient="auto" markerHeight="18" markerWidth="18" refY="9" refX="0" id="ONLY_ONE_START"><path d="M9,0 L9,18 M15,0 L15,18" fill="none" stroke="gray"/></marker></defs><defs><marker orient="auto" markerHeight="18" markerWidth="18" refY="9" refX="18" id="ONLY_ONE_END"><path d="M3,0 L3,18 M9,0 L9,18" fill="none" stroke="gray"/></marker></defs><defs><marker orient="auto" markerHeight="18" markerWidth="30" refY="9" refX="0" id="ZERO_OR_ONE_START"><circle r="6" cy="9" cx="21" fill="white" stroke="gray"/><path d="M9,0 L9,18" fill="none" stroke="gray"/></marker></defs><defs><marker orient="auto" markerHeight="18" markerWidth="30" refY="9" refX="30" id="ZERO_OR_ONE_END"><circle r="6" cy="9" cx="9" fill="white" stroke="gray"/><path d="M21,0 L21,18" fill="none" stroke="gray"/></marker></defs><defs><marker orient="auto" markerHeight="36" markerWidth="45" refY="18" refX="18" id="ONE_OR_MORE_START"><path d="M0,18 Q 18,0 36,18 Q 18,36 0,18 M42,9 L42,27" fill="none" stroke="gray"/></marker></defs><defs><marker orient="auto" markerHeight="36" markerWidth="45" refY="18" refX="27" id="ONE_OR_MORE_END"><path d="M3,9 L3,27 M9,18 Q27,0 45,18 Q27,36 9,18" fill="none" stroke="gray"/></marker></defs><defs><marker orient="auto" markerHeight="36" markerWidth="57" refY="18" refX="18" id="ZERO_OR_MORE_START"><circle r="6" cy="18" cx="48" fill="white" stroke="gray"/><path d="M0,18 Q18,0 36,18 Q18,36 0,18" fill="none" stroke="gray"/></marker></defs><defs><marker orient="auto" markerHeight="36" markerWidth="57" refY="18" refX="39" id="ZERO_OR_MORE_END"><circle r="6" cy="18" cx="9" fill="white" stroke="gray"/><path d="M21,18 Q39,0 57,18 Q39,36 21,18" fill="none" stroke="gray"/></marker></defs><path style="stroke: gray; fill: none;" marker-start="url(#ZERO_OR_MORE_START)" marker-end="url(#ZERO_OR_MORE_END)" d="M576.4285714285714,95L581.1904761904763,103.33333333333333C585.952380952381,111.66666666666667,595.4761904761905,128.33333333333334,595.4761904761905,145C595.4761904761905,161.66666666666666,585.952380952381,178.33333333333334,581.1904761904763,186.66666666666666L576.4285714285714,195" class="er relationshipLine"/><path style="stroke: gray; fill: none;" marker-start="url(#ZERO_OR_MORE_START)" marker-end="url(#ZERO_OR_MORE_END)" d="M533.5714285714286,195L528.8095238095237,186.66666666666666C524.047619047619,178.33333333333334,514.5238095238095,161.66666666666666,514.5238095238095,145C514.5238095238095,128.33333333333334,524.047619047619,111.66666666666667,528.8095238095237,103.33333333333333L533.5714285714286,95" class="er relationshipLine"/><path style="stroke: gray; fill: none;" marker-start="url(#ZERO_OR_MORE_START)" marker-end="url(#ZERO_OR_MORE_END)" d="M505,256.14864864864865L482.5,266.7905405405406C460,277.43243243243245,415,298.7162162162162,382.9761904761904,317.69144144144144C350.95238095238096,336.6666666666667,331.90476190476187,353.3333333333333,322.38095238095235,361.6666666666667L312.85714285714283,370" class="er relationshipLine"/><path style="stroke: gray; fill: none;" marker-start="url(#ZERO_OR_MORE_START)" marker-end="url(#ZERO_OR_MORE_END)" d="M605,243.17073170731706L665,255.97560975609755C725,268.780487804878,845,294.390243902439,905,321.7784552845529C965,349.1666666666667,965,378.3333333333333,965,407.5C965,436.6666666666667,965,465.8333333333333,965,495C965,524.1666666666666,965,553.3333333333334,965,582.5C965,611.6666666666666,965,640.8333333333334,965,670C965,699.1666666666666,965,728.3333333333334,965,757.5C965,786.6666666666666,965,815.8333333333334,948.3333333333334,840.1388888888888C931.6666666666666,864.4444444444445,898.3333333333334,883.888888888889,881.6666666666666,893.6111111111112L865,903.3333333333334" class="er relationshipLine"/><path style="stroke: gray; fill: none;" marker-start="url(#ZERO_OR_MORE_START)" marker-end="url(#ZERO_OR_MORE_END)" d="M320,424.3269230769231L355,436.1057692307692C390,447.8846153846154,460,471.4423076923077,480.8333333333333,492.4032526115859C501.6666666666667,513.3641975308642,473.3333333333333,531.7283950617284,459.1666666666667,540.9104938271605L445,550.0925925925926" class="er relationshipLine"/><path style="stroke: gray; fill: none;" marker-start="url(#ZERO_OR_MORE_START)" marker-end="url(#ZERO_OR_MORE_END)" d="M248.57142857142858,445L243.80952380952382,453.3333333333333C239.04761904761904,461.6666666666667,229.52380952380952,478.3333333333333,224.7619047619048,501.25C220,524.1666666666666,220,553.3333333333334,220,582.5C220,611.6666666666666,220,640.8333333333334,220,670C220,699.1666666666666,220,728.3333333333334,220,757.5C220,786.6666666666666,220,815.8333333333334,203.33333333333334,840.1388888888888C186.66666666666666,864.4444444444445,153.33333333333334,883.888888888889,136.66666666666666,893.6111111111112L120,903.3333333333334" class="er relationshipLine"/><path style="stroke: gray; fill: none;" marker-start="url(#ZERO_OR_MORE_START)" marker-end="url(#ONLY_ONE_END)" d="M248.57142857142858,370L243.80952380952382,361.6666666666667C239.04761904761904,353.3333333333333,229.52380952380952,336.6666666666667,272.26190476190476,315.92661691542287C315,295.1865671641791,410,270.3731343283582,457.5,257.9664179104478L505,245.5597014925373" class="er relationshipLine"/><path style="stroke: gray; fill: none;" marker-start="url(#ZERO_OR_MORE_START)" marker-end="url(#ZERO_OR_MORE_END)" d="M445,614.9074074074074L459.1666666666667,624.0895061728395C473.3333333333333,633.2716049382716,501.6666666666667,651.6358024691358,501.6666666666667,670C501.6666666666667,688.3641975308642,473.3333333333333,706.7283950617284,459.1666666666667,715.9104938271606L445,725.0925925925926" class="er relationshipLine"/><path style="stroke: gray; fill: none;" marker-start="url(#ZERO_OR_MORE_START)" marker-end="url(#ONLY_ONE_END)" d="M373.57142857142856,545L368.8095238095238,536.6666666666666C364.04761904761904,528.3333333333334,354.52380952380946,511.6666666666667,342.61904761904765,495C330.7142857142857,478.3333333333333,316.42857142857144,461.6666666666667,309.2857142857143,453.3333333333333L302.14285714285717,445" class="er relationshipLine"/><path style="stroke: gray; fill: none;" marker-start="url(#ZERO_OR_MORE_START)" marker-end="url(#ZERO_OR_MORE_END)" d="M345,773.4090909090909L307.5,785.340909090909C270,797.2727272727274,195,821.1363636363636,152.73809523809524,841.4015151515151C110.47619047619048,861.6666666666666,100.95238095238096,878.3333333333334,96.19047619047619,886.6666666666666L91.42857142857143,895" class="er relationshipLine"/><path style="stroke: gray; fill: none;" marker-start="url(#ZERO_OR_MORE_START)" marker-end="url(#ONLY_ONE_END)" d="M373.57142857142856,720L368.8095238095238,711.6666666666666C364.04761904761904,703.3333333333334,354.52380952380946,686.6666666666666,354.52380952380946,670C354.52380952380946,653.3333333333334,364.04761904761904,636.6666666666666,368.8095238095238,628.3333333333334L373.57142857142856,620" class="er relationshipLine"/><path style="stroke: gray; fill: none;" marker-start="url(#ZERO_OR_MORE_START)" marker-end="url(#ONLY_ONE_END)" d="M445,766.8085106382979L515,779.840425531915C585,792.8723404255319,725,818.9361702127659,790.2380952380953,840.3014184397163C855.4761904761905,861.6666666666666,845.9523809523811,878.3333333333334,841.1904761904763,886.6666666666666L836.4285714285714,895" class="er relationshipLine"/><path style="stroke: gray; fill: none;" marker-start="url(#ZERO_OR_MORE_START)" marker-end="url(#ZERO_OR_MORE_END)" d="M445,741.875L456.6666666666667,738.2291666666666C468.3333333333333,734.5833333333334,491.6666666666667,727.2916666666666,506.25,723.6458333333334C520.8333333333334,720,526.6666666666666,720,532.5,726.25C538.3333333333334,732.5,544.1666666666666,745,544.1666666666666,757.5C544.1666666666666,770,538.3333333333334,782.5,532.5,788.75C526.6666666666666,795,520.8333333333334,795,506.25,791.3541666666666C491.6666666666667,787.7083333333334,468.3333333333333,780.4166666666666,456.6666666666667,776.7708333333334L445,773.125" class="er relationshipLine"/><path style="stroke: gray; fill: none;" marker-start="url(#ZERO_OR_MORE_START)" marker-end="url(#ZERO_OR_ONE_END)" d="M445,747.801724137931L468.8888888888889,743.1681034482759C492.7777777777778,738.5344827586208,540.5555555555555,729.2672413793103,570.4166666666666,724.6336206896552C600.2777777777778,720,612.2222222222222,720,624.1666666666666,726.25C636.1111111111111,732.5,648.0555555555555,745,648.0555555555555,757.5C648.0555555555555,770,636.1111111111111,782.5,624.1666666666666,788.75C612.2222222222222,795,600.2777777777778,795,570.4166666666666,790.3663793103448C540.5555555555555,785.7327586206897,492.7777777777778,776.4655172413792,468.8888888888889,771.8318965517242L445,767.198275862069" class="er relationshipLine"/><path style="stroke: gray; fill: none;" marker-start="url(#ZERO_OR_MORE_START)" marker-end="url(#ZERO_OR_ONE_END)" d="M793.5714285714286,895L788.8095238095239,886.6666666666666C784.0476190476189,878.3333333333334,774.5238095238095,861.6666666666666,769.7619047619047,838.75C765,815.8333333333334,765,786.6666666666666,765,757.5C765,728.3333333333334,765,699.1666666666666,765,670C765,640.8333333333334,765,611.6666666666666,765,582.5C765,553.3333333333334,765,524.1666666666666,765,495C765,465.8333333333333,765,436.6666666666667,765,407.5C765,378.3333333333333,765,349.1666666666667,738.3333333333334,323.47222222222223C711.6666666666666,297.77777777777777,658.3333333333334,275.5555555555556,631.6666666666666,264.44444444444446L605,253.33333333333334" class="er relationshipLine"/><path style="stroke: gray; fill: none;" marker-start="url(#ZERO_OR_MORE_START)" marker-end="url(#ZERO_OR_MORE_END)" d="M765,922.0833333333334L703.3333333333334,909.2361111111112C641.6666666666666,896.388888888889,518.3333333333334,870.6944444444445,456.6666666666667,849.5138888888888C395,828.3333333333334,395,811.6666666666666,395,803.3333333333334L395,795" class="er relationshipLine"/><path style="stroke: gray; fill: none;" marker-start="url(#ZERO_OR_MORE_START)" marker-end="url(#ZERO_OR_MORE_END)" d="M48.57142857142857,895L43.8095238095238,886.6666666666666C39.047619047619044,878.3333333333334,29.523809523809522,861.6666666666666,78.92857142857143,840.6944444444445C128.33333333333334,819.7222222222222,236.66666666666666,794.4444444444443,290.8333333333333,781.8055555555555L345,769.1666666666666" class="er relationshipLine"/><path style="stroke: gray; fill: none;" marker-start="url(#ZERO_OR_MORE_START)" marker-end="url(#ONLY_ONE_END)" d="M20,903.3333333333334L3.3333333333333335,893.6111111111112C-13.333333333333334,883.888888888889,-46.666666666666664,864.4444444444445,-63.333333333333336,840.1388888888888C-80,815.8333333333334,-80,786.6666666666666,-80,757.5C-80,728.3333333333334,-80,699.1666666666666,-80,670C-80,640.8333333333334,-80,611.6666666666666,-80,582.5C-80,553.3333333333334,-80,524.1666666666666,-30,497.0833333333333C20,470,120,445,170,432.5L220,420" class="er relationshipLine"/><g transform="translate(505,20 )" id="entity-User-818c511a-4a32-5484-ba70-875d765a9175"><rect height="75" width="100" y="0" x="0" class="er entityBox"/><text style="dominant-baseline: middle; text-anchor: middle; font-size: 12px;" transform="translate(50,37.5)" y="0" x="0" id="text-entity-User-818c511a-4a32-5484-ba70-875d765a9175" class="er entityLabel">User</text></g><g transform="translate(505,195 )" id="entity-Project-c2395ed5-a5fa-58df-9cbe-a2926add311c"><rect height="75" width="100" y="0" x="0" class="er entityBox"/><text style="dominant-baseline: middle; text-anchor: middle; font-size: 12px;" transform="translate(50,37.5)" y="0" x="0" id="text-entity-Project-c2395ed5-a5fa-58df-9cbe-a2926add311c" class="er entityLabel">Project</text></g><g transform="translate(220,370 )" id="entity-Feature-4fad3d01-3517-571c-a342-eed3efd89186"><rect height="75" width="100" y="0" x="0" class="er entityBox"/><text style="dominant-baseline: middle; text-anchor: middle; font-size: 12px;" transform="translate(50,37.5)" y="0" x="0" id="text-entity-Feature-4fad3d01-3517-571c-a342-eed3efd89186" class="er entityLabel">Feature</text></g><g transform="translate(345,545 )" id="entity-Scenario-c93c47a9-e6c7-5329-9f48-596f0b9a515d"><rect height="75" width="100" y="0" x="0" class="er entityBox"/><text style="dominant-baseline: middle; text-anchor: middle; font-size: 12px;" transform="translate(50,37.5)" y="0" x="0" id="text-entity-Scenario-c93c47a9-e6c7-5329-9f48-596f0b9a515d" class="er entityLabel">Scenario</text></g><g transform="translate(345,720 )" id="entity-Step-e219be1f-61cb-5c54-96b3-c2b2bab46dfc"><rect height="75" width="100" y="0" x="0" class="er entityBox"/><text style="dominant-baseline: middle; text-anchor: middle; font-size: 12px;" transform="translate(50,37.5)" y="0" x="0" id="text-entity-Step-e219be1f-61cb-5c54-96b3-c2b2bab46dfc" class="er entityLabel">Step</text></g><g transform="translate(765,895 )" id="entity-Behaviour-97a2395c-598e-5946-8da9-ce5730d44919"><rect height="75" width="100" y="0" x="0" class="er entityBox"/><text style="dominant-baseline: middle; text-anchor: middle; font-size: 12px;" transform="translate(50,37.5)" y="0" x="0" id="text-entity-Behaviour-97a2395c-598e-5946-8da9-ce5730d44919" class="er entityLabel">Behaviour</text></g><g transform="translate(20,895 )" id="entity-Param-e2866454-d78f-59a5-b770-d23bf52d1823"><rect height="75" width="100" y="0" x="0" class="er entityBox"/><text style="dominant-baseline: middle; text-anchor: middle; font-size: 12px;" transform="translate(50,37.5)" y="0" x="0" id="text-entity-Param-e2866454-d78f-59a5-b770-d23bf52d1823" class="er entityLabel">Param</text></g><rect height="14" width="44.43359375" y="138" x="573.2593994140625" class="er relationshipLabelBox"/><text style="text-anchor: middle; dominant-baseline: middle; font-size: 12px;" y="145" x="595.4761962890625" id="rel1" class="er relationshipLabel">projects</text><rect height="14" width="27.623046875" y="137.99998474121094" x="500.7122802734375" class="er relationshipLabelBox"/><text style="text-anchor: middle; dominant-baseline: middle; font-size: 12px;" y="144.99998474121094" x="514.5238037109375" id="rel2" class="er relationshipLabel">users</text><rect height="14" width="44.80859375" y="298.65289306640625" x="381.9483642578125" class="er relationshipLabelBox"/><text style="text-anchor: middle; dominant-baseline: middle; font-size: 12px;" y="305.65289306640625" x="404.3526611328125" id="rel3" class="er relationshipLabel">features</text><rect height="14" width="58.05078125" y="459.1567077636719" x="935.974609375" class="er relationshipLabelBox"/><text style="text-anchor: middle; dominant-baseline: middle; font-size: 12px;" y="466.1567077636719" x="965" id="rel4" class="er relationshipLabel">behaviours</text><rect height="14" width="49.73046875" y="461.03155517578125" x="415.2275695800781" class="er relationshipLabelBox"/><text style="text-anchor: middle; dominant-baseline: middle; font-size: 12px;" y="468.03155517578125" x="440.0928039550781" id="rel5" class="er relationshipLabel">scenarios</text><rect height="14" width="38.919921875" y="687.10546875" x="200.5400390625" class="er relationshipLabelBox"/><text style="text-anchor: middle; dominant-baseline: middle; font-size: 12px;" y="694.10546875" x="220" id="rel6" class="er relationshipLabel">params</text><rect height="14" width="39.67578125" y="279.90386962890625" x="332.9485168457031" class="er relationshipLabelBox"/><text style="text-anchor: middle; dominant-baseline: middle; font-size: 12px;" y="286.90386962890625" x="352.7864074707031" id="rel7" class="er relationshipLabel">project</text><rect height="14" width="27.845703125" y="663" x="487.7438049316406" class="er relationshipLabelBox"/><text style="text-anchor: middle; dominant-baseline: middle; font-size: 12px;" y="670" x="501.6666564941406" id="rel8" class="er relationshipLabel">steps</text><rect height="14" width="40.263671875" y="485.76153564453125" x="320.8741455078125" class="er relationshipLabelBox"/><text style="text-anchor: middle; dominant-baseline: middle; font-size: 12px;" y="492.76153564453125" x="341.0059814453125" id="rel9" class="er relationshipLabel">feature</text><rect height="14" width="38.919921875" y="811.5421142578125" x="189.18812561035156" class="er relationshipLabelBox"/><text style="text-anchor: middle; dominant-baseline: middle; font-size: 12px;" y="818.5421142578125" x="208.64808654785156" id="rel10" class="er relationshipLabel">params</text><rect height="14" width="45.291015625" y="663" x="331.8782958984375" class="er relationshipLabelBox"/><text style="text-anchor: middle; dominant-baseline: middle; font-size: 12px;" y="670" x="354.5238037109375" id="rel11" class="er relationshipLabel">scenario</text><rect height="14" width="54.38671875" y="801.5394897460938" x="634.8139038085938" class="er relationshipLabelBox"/><text style="text-anchor: middle; dominant-baseline: middle; font-size: 12px;" y="808.5394897460938" x="662.0072631835938" id="rel12" class="er relationshipLabel">behaviour</text><rect height="14" width="27.845703125" y="750.5" x="530.2438354492188" class="er relationshipLabelBox"/><text style="text-anchor: middle; dominant-baseline: middle; font-size: 12px;" y="757.5" x="544.1666870117188" id="rel13" class="er relationshipLabel">steps</text><rect height="14" width="35.755859375" y="750.5" x="630.1776123046875" class="er relationshipLabelBox"/><text style="text-anchor: middle; dominant-baseline: middle; font-size: 12px;" y="757.5" x="648.0555419921875" id="rel14" class="er relationshipLabel">parent</text><rect height="14" width="39.67578125" y="525.6779174804688" x="745.162109375" class="er relationshipLabelBox"/><text style="text-anchor: middle; dominant-baseline: middle; font-size: 12px;" y="532.6779174804688" x="765" id="rel15" class="er relationshipLabel">project</text><rect height="14" width="27.845703125" y="872.2601928710938" x="552.1876831054688" class="er relationshipLabelBox"/><text style="text-anchor: middle; dominant-baseline: middle; font-size: 12px;" y="879.2601928710938" x="566.1105346679688" id="rel16" class="er relationshipLabel">steps</text><rect height="14" width="27.845703125" y="803.6190185546875" x="159.77395629882812" class="er relationshipLabelBox"/><text style="text-anchor: middle; dominant-baseline: middle; font-size: 12px;" y="810.6190185546875" x="173.69680786132812" id="rel17" class="er relationshipLabel">steps</text><rect height="14" width="40.263671875" y="574.4833984375" x="-100.13127136230469" class="er relationshipLabelBox"/><text style="text-anchor: middle; dominant-baseline: middle; font-size: 12px;" y="581.4833984375" x="-79.99943542480469" id="rel18" class="er relationshipLabel">feature</text></svg>