<svg aria-roledescription="er" role="graphics-document document" viewBox="-120.13127136230469 0 1039.2211303710938 990" style="max-width: 1039.22px; background-color: white;" xmlns:xlink="http://www.w3.org/1999/xlink" xmlns="http://www.w3.org/2000/svg" width="100%" id="mermaid-0"><style>#mermaid-0{font-family:"trebuchet ms",verdana,arial,sans-serif;font-size:16px;fill:#000000;}#mermaid-0 .error-icon{fill:#552222;}#mermaid-0 .error-text{fill:#552222;stroke:#552222;}#mermaid-0 .edge-thickness-normal{stroke-width:2px;}#mermaid-0 .edge-thickness-thick{stroke-width:3.5px;}#mermaid-0 .edge-pattern-solid{stroke-dasharray:0;}#mermaid-0 .edge-pattern-dashed{stroke-dasharray:3;}#mermaid-0 .edge-pattern-dotted{stroke-dasharray:2;}#mermaid-0 .marker{fill:#000000;stroke:#000000;}#mermaid-0 .marker.cross{stroke:#000000;}#mermaid-0 svg{font-family:"trebuchet ms",verdana,arial,sans-serif;font-size:16px;}#mermaid-0 .entityBox{fill:#cde498;stroke:#13540c;}#mermaid-0 .attributeBoxOdd{fill:#ffffff;stroke:#13540c;}#mermaid-0 .attributeBoxEven{fill:#f2f2f2;stroke:#13540c;}#mermaid-0 .relationshipLabelBox{fill:hsl(78.1578947368, 58.4615384615%, 84.5098039216%);opacity:0.7;background-color:hsl(78.1578947368, 58.4615384615%, 84.5098039216%);}#mermaid-0 .relationshipLabelBox rect{opacity:0.5;}#mermaid-0 .relationshipLine{stroke:#000000;}#mermaid-0 .entityTitleText{text-anchor:middle;font-size:18px;fill:#000000;}#mermaid-0 :root{--mermaid-font-family:"trebuchet ms",verdana,arial,sans-serif;}</style><g/><defs><marker orient="auto" markerHeight="18" markerWidth="18" refY="9" refX="0" id="ONLY_ONE_START"><path d="M9,0 L9,18 M15,0 L15,18" fill="none" stroke="gray"/></marker></defs><defs><marker orient="auto" markerHeight="18" markerWidth="18" refY="9" refX="18" id="ONLY_ONE_END"><path d="M3,0 L3,18 M9,0 L9,18" fill="none" stroke="gray"/></marker></defs><defs><marker orient="auto" markerHeight="18" markerWidth="30" refY="9" refX="0" id="ZERO_OR_ONE_START"><circle r="6" cy="9" cx="21" fill="white" stroke="gray"/><path d="M9,0 L9,18" fill="none" stroke="gray"/></marker></defs><defs><marker orient="auto" markerHeight="18" markerWidth="30" refY="9" refX="30" id="ZERO_OR_ONE_END"><circle r="6" cy="9" cx="9" fill="white" stroke="gray"/><path d="M21,0 L21,18" fill="none" stroke="gray"/></marker></defs><defs><marker orient="auto" markerHeight="36" markerWidth="45" refY="18" refX="18" id="ONE_OR_MORE_START"><path d="M0,18 Q 18,0 36,18 Q 18,36 0,18 M42,9 L42,27" fill="none" stroke="gray"/></marker></defs><defs><marker orient="auto" markerHeight="36" markerWidth="45" refY="18" refX="27" id="ONE_OR_MORE_END"><path d="M3,9 L3,27 M9,18 Q27,0 45,18 Q27,36 9,18" fill="none" stroke="gray"/></marker></defs><defs><marker orient="auto" markerHeight="36" markerWidth="57" refY="18" refX="18" id="ZERO_OR_MORE_START"><circle r="6" cy="18" cx="48" fill="white" stroke="gray"/><path d="M0,18 Q18,0 36,18 Q18,36 0,18" fill="none" stroke="gray"/></marker></defs><defs><marker orient="auto" markerHeight="36" markerWidth="57" refY="18" refX="39" id="ZERO_OR_MORE_END"><circle r="6" cy="18" cx="9" fill="white" stroke="gray"/><path d="M21,18 Q39,0 57,18 Q39,36 21,18" fill="none" stroke="gray"/></marker></defs><path style="stroke: gray; fill: none;" marker-start="url(#ZERO_OR_MORE_START)" marker-end="url(#ZERO_OR_MORE_END)" d="M466.42857142857144,95L471.1904761904762,103.33333333333333C475.95238095238096,111.66666666666667,485.47619047619054,128.33333333333334,485.47619047619054,145C485.47619047619054,161.66666666666666,475.95238095238096,178.33333333333334,471.1904761904762,186.66666666666666L466.42857142857144,195" class="er relationshipLine"/><path style="stroke: gray; fill: none;" marker-start="url(#ZERO_OR_MORE_START)" marker-end="url(#ZERO_OR_MORE_END)" d="M423.57142857142856,195L418.8095238095238,186.66666666666666C414.04761904761904,178.33333333333334,404.52380952380946,161.66666666666666,404.52380952380946,145C404.52380952380946,128.33333333333334,414.04761904761904,111.66666666666667,418.8095238095238,103.33333333333333L423.57142857142856,95" class="er relationshipLine"/><path style="stroke: gray; fill: none;" marker-start="url(#ZERO_OR_MORE_START)" marker-end="url(#ZERO_OR_MORE_END)" d="M412.85714285714283,270L405.7142857142857,278.3333333333333C398.5714285714286,286.6666666666667,384.2857142857143,303.3333333333333,367.61904761904765,320C350.95238095238096,336.6666666666667,331.90476190476187,353.3333333333333,322.38095238095235,361.6666666666667L312.85714285714283,370" class="er relationshipLine"/><path style="stroke: gray; fill: none;" marker-start="url(#ZERO_OR_MORE_START)" marker-end="url(#ZERO_OR_MORE_END)" d="M495,242.7941176470588L557.5,255.66176470588235C620,268.52941176470586,745,294.2647058823529,807.5,321.7156862745098C870,349.1666666666667,870,378.3333333333333,870,407.5C870,436.6666666666667,870,465.8333333333333,870,495C870,524.1666666666666,870,553.3333333333334,870,582.5C870,611.6666666666666,870,640.8333333333334,870,670C870,699.1666666666666,870,728.3333333333334,870,757.5C870,786.6666666666666,870,815.8333333333334,836.6666666666666,842.0833333333334C803.3333333333334,868.3333333333334,736.6666666666666,891.6666666666666,703.3333333333334,903.3333333333334L670,915" class="er relationshipLine"/><path style="stroke: gray; fill: none;" marker-start="url(#ZERO_OR_MORE_START)" marker-end="url(#ZERO_OR_MORE_END)" d="M320,432.5L340.8333333333333,442.9166666666667C361.6666666666667,453.3333333333333,403.3333333333333,474.1666666666667,419.4047619047619,492.9166666666667C435.47619047619054,511.6666666666667,425.95238095238096,528.3333333333334,421.1904761904762,536.6666666666666L416.42857142857144,545" class="er relationshipLine"/><path style="stroke: gray; fill: none;" marker-start="url(#ZERO_OR_MORE_START)" marker-end="url(#ZERO_OR_MORE_END)" d="M248.57142857142858,445L243.80952380952382,453.3333333333333C239.04761904761904,461.6666666666667,229.52380952380952,478.3333333333333,224.7619047619048,501.25C220,524.1666666666666,220,553.3333333333334,220,582.5C220,611.6666666666666,220,640.8333333333334,220,670C220,699.1666666666666,220,728.3333333333334,220,757.5C220,786.6666666666666,220,815.8333333333334,203.33333333333334,840.1388888888888C186.66666666666666,864.4444444444445,153.33333333333334,883.888888888889,136.66666666666666,893.6111111111112L120,903.3333333333334" class="er relationshipLine"/><path style="stroke: gray; fill: none;" marker-start="url(#ZERO_OR_MORE_START)" marker-end="url(#ONLY_ONE_END)" d="M248.57142857142858,370L243.80952380952382,361.6666666666667C239.04761904761904,353.3333333333333,229.52380952380952,336.6666666666667,253.92857142857144,316.9907407407407C278.3333333333333,297.31481481481484,336.6666666666667,274.6296296296296,365.8333333333333,263.287037037037L395,251.94444444444446" class="er relationshipLine"/><path style="stroke: gray; fill: none;" marker-start="url(#ZERO_OR_MORE_START)" marker-end="url(#ZERO_OR_MORE_END)" d="M416.42857142857144,620L421.1904761904762,628.3333333333334C425.95238095238096,636.6666666666666,435.47619047619054,653.3333333333334,435.47619047619054,670C435.47619047619054,686.6666666666666,425.95238095238096,703.3333333333334,421.1904761904762,711.6666666666666L416.42857142857144,720" class="er relationshipLine"/><path style="stroke: gray; fill: none;" marker-start="url(#ZERO_OR_MORE_START)" marker-end="url(#ONLY_ONE_END)" d="M373.57142857142856,545L368.8095238095238,536.6666666666666C364.04761904761904,528.3333333333334,354.52380952380946,511.6666666666667,342.61904761904765,495C330.7142857142857,478.3333333333333,316.42857142857144,461.6666666666667,309.2857142857143,453.3333333333333L302.14285714285717,445" class="er relationshipLine"/><path style="stroke: gray; fill: none;" marker-start="url(#ZERO_OR_MORE_START)" marker-end="url(#ZERO_OR_MORE_END)" d="M345,773.4090909090909L307.5,785.340909090909C270,797.2727272727274,195,821.1363636363636,152.73809523809524,841.4015151515151C110.47619047619048,861.6666666666666,100.95238095238096,878.3333333333334,96.19047619047619,886.6666666666666L91.42857142857143,895" class="er relationshipLine"/><path style="stroke: gray; fill: none;" marker-start="url(#ZERO_OR_MORE_START)" marker-end="url(#ONLY_ONE_END)" d="M445,769.1666666666666L499.1666666666667,781.8055555555555C553.3333333333334,794.4444444444443,661.6666666666666,819.7222222222222,699.1666666666666,842.0833333333334C736.6666666666666,864.4444444444445,703.3333333333334,883.888888888889,686.6666666666666,893.6111111111112L670,903.3333333333334" class="er relationshipLine"/><path style="stroke: gray; fill: none;" marker-start="url(#ZERO_OR_MORE_START)" marker-end="url(#ZERO_OR_ONE_END)" d="M373.57142857142856,720L368.8095238095238,711.6666666666666C364.04761904761904,703.3333333333334,354.52380952380946,686.6666666666666,354.52380952380946,670C354.52380952380946,653.3333333333334,364.04761904761904,636.6666666666666,368.8095238095238,628.3333333333334L373.57142857142856,620" class="er relationshipLine"/><path style="stroke: gray; fill: none;" marker-start="url(#ZERO_OR_MORE_START)" marker-end="url(#ZERO_OR_ONE_END)" d="M445,773.4090909090909L482.5,785.340909090909C520,797.2727272727274,595,821.1363636363636,627.7380952380953,841.4015151515151C660.4761904761905,861.6666666666666,650.952380952381,878.3333333333334,646.1904761904763,886.6666666666666L641.4285714285714,895" class="er relationshipLine"/><path style="stroke: gray; fill: none;" marker-start="url(#ZERO_OR_MORE_START)" marker-end="url(#ZERO_OR_ONE_END)" d="M598.5714285714286,895L593.8095238095237,886.6666666666666C589.047619047619,878.3333333333334,579.5238095238095,861.6666666666666,574.7619047619047,838.75C570,815.8333333333334,570,786.6666666666666,570,757.5C570,728.3333333333334,570,699.1666666666666,570,670C570,640.8333333333334,570,611.6666666666666,570,582.5C570,553.3333333333334,570,524.1666666666666,570,495C570,465.8333333333333,570,436.6666666666667,570,407.5C570,378.3333333333333,570,349.1666666666667,557.5,325.8333333333333C545,302.5,520,285,507.5,276.25L495,267.5" class="er relationshipLine"/><path style="stroke: gray; fill: none;" marker-start="url(#ZERO_OR_MORE_START)" marker-end="url(#ZERO_OR_MORE_END)" d="M570,907.5L549.1666666666666,897.0833333333334C528.3333333333334,886.6666666666666,486.6666666666667,865.8333333333334,461.0714285714286,847.0833333333334C435.47619047619054,828.3333333333334,425.95238095238096,811.6666666666666,421.1904761904762,803.3333333333334L416.42857142857144,795" class="er relationshipLine"/><path style="stroke: gray; fill: none;" marker-start="url(#ZERO_OR_MORE_START)" marker-end="url(#ZERO_OR_MORE_END)" d="M570,916.5909090909091L532.5,904.659090909091C495,892.7272727272726,420,868.8636363636364,387.26190476190476,848.5984848484849C354.52380952380946,828.3333333333334,364.04761904761904,811.6666666666666,368.8095238095238,803.3333333333334L373.57142857142856,795" class="er relationshipLine"/><path style="stroke: gray; fill: none;" marker-start="url(#ZERO_OR_MORE_START)" marker-end="url(#ZERO_OR_MORE_END)" d="M48.57142857142857,895L43.8095238095238,886.6666666666666C39.047619047619044,878.3333333333334,29.523809523809522,861.6666666666666,78.92857142857143,840.6944444444445C128.33333333333334,819.7222222222222,236.66666666666666,794.4444444444443,290.8333333333333,781.8055555555555L345,769.1666666666666" class="er relationshipLine"/><path style="stroke: gray; fill: none;" marker-start="url(#ZERO_OR_MORE_START)" marker-end="url(#ONLY_ONE_END)" d="M20,903.3333333333334L3.3333333333333335,893.6111111111112C-13.333333333333334,883.888888888889,-46.666666666666664,864.4444444444445,-63.333333333333336,840.1388888888888C-80,815.8333333333334,-80,786.6666666666666,-80,757.5C-80,728.3333333333334,-80,699.1666666666666,-80,670C-80,640.8333333333334,-80,611.6666666666666,-80,582.5C-80,553.3333333333334,-80,524.1666666666666,-30,497.0833333333333C20,470,120,445,170,432.5L220,420" class="er relationshipLine"/><g transform="translate(395,20 )" id="entity-User-818c511a-4a32-5484-ba70-875d765a9175"><rect height="75" width="100" y="0" x="0" class="er entityBox"/><text style="dominant-baseline: middle; text-anchor: middle; font-size: 12px;" transform="translate(50,37.5)" y="0" x="0" id="text-entity-User-818c511a-4a32-5484-ba70-875d765a9175" class="er entityLabel">User</text></g><g transform="translate(395,195 )" id="entity-Project-c2395ed5-a5fa-58df-9cbe-a2926add311c"><rect height="75" width="100" y="0" x="0" class="er entityBox"/><text style="dominant-baseline: middle; text-anchor: middle; font-size: 12px;" transform="translate(50,37.5)" y="0" x="0" id="text-entity-Project-c2395ed5-a5fa-58df-9cbe-a2926add311c" class="er entityLabel">Project</text></g><g transform="translate(220,370 )" id="entity-Feature-4fad3d01-3517-571c-a342-eed3efd89186"><rect height="75" width="100" y="0" x="0" class="er entityBox"/><text style="dominant-baseline: middle; text-anchor: middle; font-size: 12px;" transform="translate(50,37.5)" y="0" x="0" id="text-entity-Feature-4fad3d01-3517-571c-a342-eed3efd89186" class="er entityLabel">Feature</text></g><g transform="translate(345,545 )" id="entity-Scenario-c93c47a9-e6c7-5329-9f48-596f0b9a515d"><rect height="75" width="100" y="0" x="0" class="er entityBox"/><text style="dominant-baseline: middle; text-anchor: middle; font-size: 12px;" transform="translate(50,37.5)" y="0" x="0" id="text-entity-Scenario-c93c47a9-e6c7-5329-9f48-596f0b9a515d" class="er entityLabel">Scenario</text></g><g transform="translate(345,720 )" id="entity-Step-e219be1f-61cb-5c54-96b3-c2b2bab46dfc"><rect height="75" width="100" y="0" x="0" class="er entityBox"/><text style="dominant-baseline: middle; text-anchor: middle; font-size: 12px;" transform="translate(50,37.5)" y="0" x="0" id="text-entity-Step-e219be1f-61cb-5c54-96b3-c2b2bab46dfc" class="er entityLabel">Step</text></g><g transform="translate(570,895 )" id="entity-Behaviour-97a2395c-598e-5946-8da9-ce5730d44919"><rect height="75" width="100" y="0" x="0" class="er entityBox"/><text style="dominant-baseline: middle; text-anchor: middle; font-size: 12px;" transform="translate(50,37.5)" y="0" x="0" id="text-entity-Behaviour-97a2395c-598e-5946-8da9-ce5730d44919" class="er entityLabel">Behaviour</text></g><g transform="translate(20,895 )" id="entity-Param-e2866454-d78f-59a5-b770-d23bf52d1823"><rect height="75" width="100" y="0" x="0" class="er entityBox"/><text style="dominant-baseline: middle; text-anchor: middle; font-size: 12px;" transform="translate(50,37.5)" y="0" x="0" id="text-entity-Param-e2866454-d78f-59a5-b770-d23bf52d1823" class="er entityLabel">Param</text></g><rect height="14" width="44.43359375" y="138" x="463.2593994140625" class="er relationshipLabelBox"/><text style="text-anchor: middle; dominant-baseline: middle; font-size: 12px;" y="145" x="485.4761962890625" id="rel1" class="er relationshipLabel">projects</text><rect height="14" width="27.623046875" y="138" x="390.7122802734375" class="er relationshipLabelBox"/><text style="text-anchor: middle; dominant-baseline: middle; font-size: 12px;" y="145" x="404.5238037109375" id="rel2" class="er relationshipLabel">users</text><rect height="14" width="44.80859375" y="315.36883544921875" x="342.83026123046875" class="er relationshipLabelBox"/><text style="text-anchor: middle; dominant-baseline: middle; font-size: 12px;" y="322.36883544921875" x="365.23455810546875" id="rel3" class="er relationshipLabel">features</text><rect height="14" width="58.05078125" y="495.4158935546875" x="840.974609375" class="er relationshipLabelBox"/><text style="text-anchor: middle; dominant-baseline: middle; font-size: 12px;" y="502.4158935546875" x="870" id="rel4" class="er relationshipLabel">behaviours</text><rect height="14" width="49.73046875" y="466.8791198730469" x="371.57183837890625" class="er relationshipLabelBox"/><text style="text-anchor: middle; dominant-baseline: middle; font-size: 12px;" y="473.8791198730469" x="396.43707275390625" id="rel5" class="er relationshipLabel">scenarios</text><rect height="14" width="38.919921875" y="687.10546875" x="200.5400390625" class="er relationshipLabelBox"/><text style="text-anchor: middle; dominant-baseline: middle; font-size: 12px;" y="694.10546875" x="220" id="rel6" class="er relationshipLabel">params</text><rect height="14" width="39.67578125" y="286.16363525390625" x="274.9766540527344" class="er relationshipLabelBox"/><text style="text-anchor: middle; dominant-baseline: middle; font-size: 12px;" y="293.16363525390625" x="294.8145446777344" id="rel7" class="er relationshipLabel">project</text><rect height="14" width="27.845703125" y="663" x="421.5533447265625" class="er relationshipLabelBox"/><text style="text-anchor: middle; dominant-baseline: middle; font-size: 12px;" y="670" x="435.4761962890625" id="rel8" class="er relationshipLabel">steps</text><rect height="14" width="40.263671875" y="485.76153564453125" x="320.8741455078125" class="er relationshipLabelBox"/><text style="text-anchor: middle; dominant-baseline: middle; font-size: 12px;" y="492.76153564453125" x="341.0059814453125" id="rel9" class="er relationshipLabel">feature</text><rect height="14" width="38.919921875" y="811.5421142578125" x="189.18812561035156" class="er relationshipLabelBox"/><text style="text-anchor: middle; dominant-baseline: middle; font-size: 12px;" y="818.5421142578125" x="208.64808654785156" id="rel10" class="er relationshipLabel">params</text><rect height="14" width="54.38671875" y="804.9215087890625" x="591.0215454101562" class="er relationshipLabelBox"/><text style="text-anchor: middle; dominant-baseline: middle; font-size: 12px;" y="811.9215087890625" x="618.2149047851562" id="rel11" class="er relationshipLabel">behaviour</text><rect height="14" width="45.291015625" y="663" x="331.8782958984375" class="er relationshipLabelBox"/><text style="text-anchor: middle; dominant-baseline: middle; font-size: 12px;" y="670" x="354.5238037109375" id="rel12" class="er relationshipLabel">scenario</text><rect height="14" width="90.005859375" y="807.6358642578125" x="523.7644653320312" class="er relationshipLabelBox"/><text style="text-anchor: middle; dominant-baseline: middle; font-size: 12px;" y="814.6358642578125" x="568.7673950195312" id="rel13" class="er relationshipLabel">parentBehaviour</text><rect height="14" width="39.67578125" y="562.056396484375" x="550.162109375" class="er relationshipLabelBox"/><text style="text-anchor: middle; dominant-baseline: middle; font-size: 12px;" y="569.056396484375" x="570" id="rel14" class="er relationshipLabel">project</text><rect height="14" width="27.845703125" y="855.2650756835938" x="470.3110656738281" class="er relationshipLabelBox"/><text style="text-anchor: middle; dominant-baseline: middle; font-size: 12px;" y="862.2650756835938" x="484.2339172363281" id="rel15" class="er relationshipLabel">steps</text><rect height="14" width="46.859375" y="868.3641357421875" x="422.8029479980469" class="er relationshipLabelBox"/><text style="text-anchor: middle; dominant-baseline: middle; font-size: 12px;" y="875.3641357421875" x="446.2326354980469" id="rel16" class="er relationshipLabel">subSteps</text><rect height="14" width="27.845703125" y="803.6190185546875" x="159.77395629882812" class="er relationshipLabelBox"/><text style="text-anchor: middle; dominant-baseline: middle; font-size: 12px;" y="810.6190185546875" x="173.69680786132812" id="rel17" class="er relationshipLabel">steps</text><rect height="14" width="40.263671875" y="574.4833984375" x="-100.13127136230469" class="er relationshipLabelBox"/><text style="text-anchor: middle; dominant-baseline: middle; font-size: 12px;" y="581.4833984375" x="-79.99943542480469" id="rel18" class="er relationshipLabel">feature</text></svg>