<svg aria-roledescription="er" role="graphics-document document" viewBox="-120.1318359375 0 1144.8955078125 1102" style="max-width: 1144.9px; background-color: white;" xmlns:xlink="http://www.w3.org/1999/xlink" xmlns="http://www.w3.org/2000/svg" width="100%" id="mermaid-0"><style>#mermaid-0{font-family:"trebuchet ms",verdana,arial,sans-serif;font-size:16px;fill:#000000;}#mermaid-0 .error-icon{fill:#552222;}#mermaid-0 .error-text{fill:#552222;stroke:#552222;}#mermaid-0 .edge-thickness-normal{stroke-width:2px;}#mermaid-0 .edge-thickness-thick{stroke-width:3.5px;}#mermaid-0 .edge-pattern-solid{stroke-dasharray:0;}#mermaid-0 .edge-pattern-dashed{stroke-dasharray:3;}#mermaid-0 .edge-pattern-dotted{stroke-dasharray:2;}#mermaid-0 .marker{fill:#000000;stroke:#000000;}#mermaid-0 .marker.cross{stroke:#000000;}#mermaid-0 svg{font-family:"trebuchet ms",verdana,arial,sans-serif;font-size:16px;}#mermaid-0 .entityBox{fill:#cde498;stroke:#13540c;}#mermaid-0 .attributeBoxOdd{fill:#ffffff;stroke:#13540c;}#mermaid-0 .attributeBoxEven{fill:#f2f2f2;stroke:#13540c;}#mermaid-0 .relationshipLabelBox{fill:hsl(78.1578947368, 58.4615384615%, 84.5098039216%);opacity:0.7;background-color:hsl(78.1578947368, 58.4615384615%, 84.5098039216%);}#mermaid-0 .relationshipLabelBox rect{opacity:0.5;}#mermaid-0 .relationshipLine{stroke:#000000;}#mermaid-0 .entityTitleText{text-anchor:middle;font-size:18px;fill:#000000;}#mermaid-0 :root{--mermaid-font-family:"trebuchet ms",verdana,arial,sans-serif;}</style><g/><defs><marker orient="auto" markerHeight="18" markerWidth="18" refY="9" refX="0" id="ONLY_ONE_START"><path d="M9,0 L9,18 M15,0 L15,18" fill="none" stroke="gray"/></marker></defs><defs><marker orient="auto" markerHeight="18" markerWidth="18" refY="9" refX="18" id="ONLY_ONE_END"><path d="M3,0 L3,18 M9,0 L9,18" fill="none" stroke="gray"/></marker></defs><defs><marker orient="auto" markerHeight="18" markerWidth="30" refY="9" refX="0" id="ZERO_OR_ONE_START"><circle r="6" cy="9" cx="21" fill="white" stroke="gray"/><path d="M9,0 L9,18" fill="none" stroke="gray"/></marker></defs><defs><marker orient="auto" markerHeight="18" markerWidth="30" refY="9" refX="30" id="ZERO_OR_ONE_END"><circle r="6" cy="9" cx="9" fill="white" stroke="gray"/><path d="M21,0 L21,18" fill="none" stroke="gray"/></marker></defs><defs><marker orient="auto" markerHeight="36" markerWidth="45" refY="18" refX="18" id="ONE_OR_MORE_START"><path d="M0,18 Q 18,0 36,18 Q 18,36 0,18 M42,9 L42,27" fill="none" stroke="gray"/></marker></defs><defs><marker orient="auto" markerHeight="36" markerWidth="45" refY="18" refX="27" id="ONE_OR_MORE_END"><path d="M3,9 L3,27 M9,18 Q27,0 45,18 Q27,36 9,18" fill="none" stroke="gray"/></marker></defs><defs><marker orient="auto" markerHeight="36" markerWidth="57" refY="18" refX="18" id="ZERO_OR_MORE_START"><circle r="6" cy="18" cx="48" fill="white" stroke="gray"/><path d="M0,18 Q18,0 36,18 Q18,36 0,18" fill="none" stroke="gray"/></marker></defs><defs><marker orient="auto" markerHeight="36" markerWidth="57" refY="18" refX="39" id="ZERO_OR_MORE_END"><circle r="6" cy="18" cx="9" fill="white" stroke="gray"/><path d="M21,18 Q39,0 57,18 Q39,36 21,18" fill="none" stroke="gray"/></marker></defs><path style="stroke: gray; fill: none;" marker-start="url(#ZERO_OR_MORE_START)" marker-end="url(#ZERO_OR_MORE_END)" d="M585.46875,176L588.7239583333334,184.33333333333334C591.9791666666666,192.66666666666666,598.4895833333334,209.33333333333334,596.7844742063493,226C595.0793650793651,242.66666666666666,585.1587301587301,259.3333333333333,580.1984126984127,267.6666666666667L575.2380952380952,276" class="er relationshipLine"/><path style="stroke: gray; fill: none;" marker-start="url(#ZERO_OR_MORE_START)" marker-end="url(#ZERO_OR_MORE_END)" d="M534.7619047619048,276L529.8015873015873,267.6666666666667C524.8412698412699,259.3333333333333,514.9206349206349,242.66666666666666,513.2155257936507,226C511.5104166666667,209.33333333333334,518.0208333333334,192.66666666666666,521.2760416666666,184.33333333333334L524.53125,176" class="er relationshipLine"/><path style="stroke: gray; fill: none;" marker-start="url(#ZERO_OR_MORE_START)" marker-end="url(#ZERO_OR_MORE_END)" d="M505,332.7027027027027L482.5,342.9189189189189C460,353.13513513513516,415,373.56756756756755,383.72807017543863,392.11711711711706C352.4561403508772,410.6666666666667,334.91228070175436,427.3333333333333,326.140350877193,435.6666666666667L317.36842105263156,444" class="er relationshipLine"/><path style="stroke: gray; fill: none;" marker-start="url(#ZERO_OR_MORE_START)" marker-end="url(#ZERO_OR_MORE_END)" d="M605,319.98398289574357L666.7789662679037,332.31998574645297C728.5579325358073,344.6559885971624,852.1158650716146,369.3279942985812,913.8948313395182,397.49733048262397C975.6737976074219,425.6666666666667,975.6737976074219,457.3333333333333,975.6737976074219,489C975.6737976074219,520.6666666666666,975.6737976074219,552.3333333333334,975.6737976074219,582.1666666666666C975.6737976074219,612,975.6737976074219,640,975.6737976074219,668C975.6737976074219,696,975.6737976074219,724,975.6737976074219,752C975.6737976074219,780,975.6737976074219,808,975.6737976074219,836C975.6737976074219,864,975.6737976074219,892,958.6926655319502,918C941.7115334564784,944,907.7492693055351,968,890.7681372300634,980L873.7870051545917,992" class="er relationshipLine"/><path style="stroke: gray; fill: none;" marker-start="url(#ZERO_OR_MORE_START)" marker-end="url(#ZERO_OR_MORE_END)" d="M354.3515625,518.6053718842871L385.405268351237,529.5044765702393C416.45897420247394,540.4035812561914,478.56638590494794,562.2017906280958,496.22723461332777,581.4342286473812C513.8880833217075,600.6666666666666,487.10236903599326,617.3333333333334,473.70951189313615,625.6666666666666L460.31665475027904,634" class="er relationshipLine"/><path style="stroke: gray; fill: none;" marker-start="url(#ZERO_OR_MORE_START)" marker-end="url(#ZERO_OR_MORE_END)" d="M246.31578947368422,534L241.9298245614035,542.3333333333334C237.54385964912282,550.6666666666666,228.7719298245614,567.3333333333334,224.38596491228068,589.6666666666666C220,612,220,640,220,668C220,696,220,724,220,752C220,780,220,808,220,836C220,864,220,892,203.33333333333334,917.7777777777778C186.66666666666666,943.5555555555555,153.33333333333334,967.111111111111,136.66666666666666,978.8888888888888L120,990.6666666666666" class="er relationshipLine"/><path style="stroke: gray; fill: none;" marker-start="url(#ZERO_OR_MORE_START)" marker-end="url(#ONLY_ONE_END)" d="M246.31578947368422,444L241.9298245614035,435.6666666666667C237.54385964912282,427.3333333333333,228.7719298245614,410.6666666666667,271.8859649122807,390.42288557213925C315,370.17910447761193,410,346.3582089552239,457.5,334.44776119402985L505,322.53731343283584" class="er relationshipLine"/><path style="stroke: gray; fill: none;" marker-start="url(#ZERO_OR_MORE_START)" marker-end="url(#ZERO_OR_MORE_END)" d="M460.31665475027904,702L473.70951189313615,710.3333333333334C487.10236903599326,718.6666666666666,513.8880833217075,735.3333333333334,513.1142737978981,752.4814814814814C512.3404642740885,769.6296296296296,484.0071309407552,787.2592592592592,469.84046427408856,796.074074074074L455.6737976074219,804.8888888888889" class="er relationshipLine"/><path style="stroke: gray; fill: none;" marker-start="url(#ZERO_OR_MORE_START)" marker-end="url(#ONLY_ONE_END)" d="M385.43570236932663,634L380.47538490900916,625.6666666666666C375.51506744869175,617.3333333333334,365.5944325280568,600.6666666666666,353.1188696635795,584C340.6433067991023,567.3333333333334,325.6128159907826,550.6666666666666,318.09757058662285,542.3333333333334L310.582325182463,534" class="er relationshipLine"/><path style="stroke: gray; fill: none;" marker-start="url(#ZERO_OR_MORE_START)" marker-end="url(#ZERO_OR_MORE_END)" d="M355.6737976074219,850.7020834083346L316.39483133951825,862.2517361736121C277.11586507161456,873.8013889388898,198.55793253580728,896.9006944694448,155.34814865784077,916.7836805680557C112.13836477987422,936.6666666666666,104.27672955974843,953.3333333333334,100.34591194968554,961.6666666666666L96.41509433962264,970" class="er relationshipLine"/><path style="stroke: gray; fill: none;" marker-start="url(#ZERO_OR_MORE_START)" marker-end="url(#ONLY_ONE_END)" d="M385.43570236932663,802L380.47538490900916,793.6666666666666C375.51506744869175,785.3333333333334,365.5944325280568,768.6666666666666,365.5944325280568,752C365.5944325280568,735.3333333333334,375.51506744869175,718.6666666666666,380.47538490900916,710.3333333333334L385.43570236932663,702" class="er relationshipLine"/><path style="stroke: gray; fill: none;" marker-start="url(#ZERO_OR_MORE_START)" marker-end="url(#ONLY_ONE_END)" d="M455.6737976074219,844.936170212766L525.6737976074219,857.4468085106383C595.6737976074219,869.9574468085107,735.6737976074219,894.9787234042554,800.0134202489313,919.4893617021277C864.3530428904409,944,853.0322881734596,968,847.371910814969,980L841.7115334564785,992" class="er relationshipLine"/><path style="stroke: gray; fill: none;" marker-start="url(#ZERO_OR_MORE_START)" marker-end="url(#ZERO_OR_MORE_END)" d="M455.6737976074219,821.8333333333334L467.34046427408856,818.5277777777778C479.0071309407552,815.2222222222223,502.34046427408856,808.6111111111112,516.9237976074219,805.3055555555557C531.5071309407552,802,537.3404642740885,802,543.1737976074219,807.6666666666666C549.0071309407552,813.3333333333334,554.8404642740885,824.6666666666666,554.8404642740885,836C554.8404642740885,847.3333333333334,549.0071309407552,858.6666666666666,543.1737976074219,864.3333333333334C537.3404642740885,870,531.5071309407552,870,516.9237976074219,866.6944444444445C502.34046427408856,863.3888888888888,479.0071309407552,856.7777777777777,467.34046427408856,853.4722222222222L455.6737976074219,850.1666666666666" class="er relationshipLine"/><path style="stroke: gray; fill: none;" marker-start="url(#ZERO_OR_MORE_START)" marker-end="url(#ZERO_OR_ONE_END)" d="M455.6737976074219,827.2068965517242L479.5626864963108,823.0057471264369C503.4515753851997,818.8045977011494,551.2293531629774,810.4022988505748,581.0904642740885,806.2011494252874C610.9515753851997,802,622.896019829644,802,634.8404642740885,807.6666666666666C646.784908718533,813.3333333333334,658.7293531629774,824.6666666666666,658.7293531629774,836C658.7293531629774,847.3333333333334,646.784908718533,858.6666666666666,634.8404642740885,864.3333333333334C622.896019829644,870,610.9515753851997,870,581.0904642740885,865.7988505747126C551.2293531629774,861.5977011494252,503.4515753851997,853.1954022988506,479.5626864963108,848.9942528735631L455.6737976074219,844.7931034482758" class="er relationshipLine"/><path style="stroke: gray; fill: none;" marker-start="url(#ZERO_OR_MORE_START)" marker-end="url(#ZERO_OR_ONE_END)" d="M809.6360617583653,992L803.9756843998747,980C798.3153070413841,968,786.9945523244029,944,781.3341749659124,918C775.6737976074219,892,775.6737976074219,864,775.6737976074219,836C775.6737976074219,808,775.6737976074219,780,775.6737976074219,752C775.6737976074219,724,775.6737976074219,696,775.6737976074219,668C775.6737976074219,640,775.6737976074219,612,775.6737976074219,582.1666666666666C775.6737976074219,552.3333333333334,775.6737976074219,520.6666666666666,775.6737976074219,489C775.6737976074219,457.3333333333333,775.6737976074219,425.6666666666667,747.2281646728516,399.0054362634932C718.7825317382812,372.3442058603196,661.8912658691406,350.6884117206393,633.4456329345703,339.86051465079913L605,329.03261758095897" class="er relationshipLine"/><path style="stroke: gray; fill: none;" marker-start="url(#ZERO_OR_MORE_START)" marker-end="url(#ZERO_OR_MORE_END)" d="M775.6737976074219,1013.3809523809524L714.0071309407552,997.8174603174604C652.3404642740885,982.2539682539682,529.0071309407552,951.1269841269841,467.34046427408856,927.2301587301587C405.6737976074219,903.3333333333334,405.6737976074219,886.6666666666666,405.6737976074219,878.3333333333334L405.6737976074219,870" class="er relationshipLine"/><path style="stroke: gray; fill: none;" marker-start="url(#ZERO_OR_MORE_START)" marker-end="url(#ZERO_OR_MORE_END)" d="M43.58490566037736,970L39.65408805031446,961.6666666666666C35.723270440251575,953.3333333333334,27.861635220125788,936.6666666666666,79.8764505446332,916.1483386677443C131.89126586914062,895.6300106688219,243.78253173828125,871.2600213376439,299.72816467285156,859.0750266720548L355.6737976074219,846.8900320064657" class="er relationshipLine"/><path style="stroke: gray; fill: none;" marker-start="url(#ZERO_OR_MORE_START)" marker-end="url(#ONLY_ONE_END)" d="M20,990.6666666666666L3.3333333333333335,978.8888888888888C-13.333333333333334,967.111111111111,-46.666666666666664,943.5555555555555,-63.333333333333336,917.7777777777778C-80,892,-80,864,-80,836C-80,808,-80,780,-80,752C-80,724,-80,696,-80,668C-80,640,-80,612,-35.725260416666664,585.9825706845238C8.549479166666666,559.9651413690476,97.09895833333333,535.9302827380952,141.37369791666666,523.912853422619L185.6484375,511.89542410714284" class="er relationshipLine"/><g transform="translate(483.5516891479492,20 )" id="entity-User-818c511a-4a32-5484-ba70-875d765a9175"><rect height="156" width="142.89662170410156" y="0" x="0" class="er entityBox"/><text style="dominant-baseline: middle; text-anchor: middle; font-size: 12px;" transform="translate(71.44831085205078,12)" y="0" x="0" id="text-entity-User-818c511a-4a32-5484-ba70-875d765a9175" class="er entityLabel">User</text><rect height="22" width="54.095550537109375" y="24" x="0" class="er attributeBoxOdd"/><text style="dominant-baseline: middle; font-size: 10.2px;" transform="translate(5,35)" y="0" x="0" id="text-entity-User-818c511a-4a32-5484-ba70-875d765a9175-attr-1-type" class="er entityLabel">String</text><rect height="22" width="66.11338806152344" y="24" x="54.095550537109375" class="er attributeBoxOdd"/><text style="dominant-baseline: middle; font-size: 10.2px;" transform="translate(59.095550537109375,35)" y="0" x="0" id="text-entity-User-818c511a-4a32-5484-ba70-875d765a9175-attr-1-name" class="er entityLabel">id</text><rect height="22" width="22.68768310546875" y="24" x="120.20893859863281" class="er attributeBoxOdd"/><text style="dominant-baseline: middle; font-size: 10.2px;" transform="translate(125.20893859863281,35)" y="0" x="0" id="text-entity-User-818c511a-4a32-5484-ba70-875d765a9175-attr-1-key" class="er entityLabel">PK</text><rect height="22" width="54.095550537109375" y="46" x="0" class="er attributeBoxEven"/><text style="dominant-baseline: middle; font-size: 10.2px;" transform="translate(5,57)" y="0" x="0" id="text-entity-User-818c511a-4a32-5484-ba70-875d765a9175-attr-2-type" class="er entityLabel">String</text><rect height="22" width="66.11338806152344" y="46" x="54.095550537109375" class="er attributeBoxEven"/><text style="dominant-baseline: middle; font-size: 10.2px;" transform="translate(59.095550537109375,57)" y="0" x="0" id="text-entity-User-818c511a-4a32-5484-ba70-875d765a9175-attr-2-name" class="er entityLabel">username</text><rect height="22" width="22.68768310546875" y="46" x="120.20893859863281" class="er attributeBoxEven"/><text style="dominant-baseline: middle; font-size: 10.2px;" transform="translate(125.20893859863281,57)" y="0" x="0" id="text-entity-User-818c511a-4a32-5484-ba70-875d765a9175-attr-2-key" class="er entityLabel"/><rect height="22" width="54.095550537109375" y="68" x="0" class="er attributeBoxOdd"/><text style="dominant-baseline: middle; font-size: 10.2px;" transform="translate(5,79)" y="0" x="0" id="text-entity-User-818c511a-4a32-5484-ba70-875d765a9175-attr-3-type" class="er entityLabel">String</text><rect height="22" width="66.11338806152344" y="68" x="54.095550537109375" class="er attributeBoxOdd"/><text style="dominant-baseline: middle; font-size: 10.2px;" transform="translate(59.095550537109375,79)" y="0" x="0" id="text-entity-User-818c511a-4a32-5484-ba70-875d765a9175-attr-3-name" class="er entityLabel">password</text><rect height="22" width="22.68768310546875" y="68" x="120.20893859863281" class="er attributeBoxOdd"/><text style="dominant-baseline: middle; font-size: 10.2px;" transform="translate(125.20893859863281,79)" y="0" x="0" id="text-entity-User-818c511a-4a32-5484-ba70-875d765a9175-attr-3-key" class="er entityLabel"/><rect height="22" width="54.095550537109375" y="90" x="0" class="er attributeBoxEven"/><text style="dominant-baseline: middle; font-size: 10.2px;" transform="translate(5,101)" y="0" x="0" id="text-entity-User-818c511a-4a32-5484-ba70-875d765a9175-attr-4-type" class="er entityLabel">DateTime</text><rect height="22" width="66.11338806152344" y="90" x="54.095550537109375" class="er attributeBoxEven"/><text style="dominant-baseline: middle; font-size: 10.2px;" transform="translate(59.095550537109375,101)" y="0" x="0" id="text-entity-User-818c511a-4a32-5484-ba70-875d765a9175-attr-4-name" class="er entityLabel">createdAt</text><rect height="22" width="22.68768310546875" y="90" x="120.20893859863281" class="er attributeBoxEven"/><text style="dominant-baseline: middle; font-size: 10.2px;" transform="translate(125.20893859863281,101)" y="0" x="0" id="text-entity-User-818c511a-4a32-5484-ba70-875d765a9175-attr-4-key" class="er entityLabel"/><rect height="22" width="54.095550537109375" y="112" x="0" class="er attributeBoxOdd"/><text style="dominant-baseline: middle; font-size: 10.2px;" transform="translate(5,123)" y="0" x="0" id="text-entity-User-818c511a-4a32-5484-ba70-875d765a9175-attr-5-type" class="er entityLabel">DateTime</text><rect height="22" width="66.11338806152344" y="112" x="54.095550537109375" class="er attributeBoxOdd"/><text style="dominant-baseline: middle; font-size: 10.2px;" transform="translate(59.095550537109375,123)" y="0" x="0" id="text-entity-User-818c511a-4a32-5484-ba70-875d765a9175-attr-5-name" class="er entityLabel">updatedAt</text><rect height="22" width="22.68768310546875" y="112" x="120.20893859863281" class="er attributeBoxOdd"/><text style="dominant-baseline: middle; font-size: 10.2px;" transform="translate(125.20893859863281,123)" y="0" x="0" id="text-entity-User-818c511a-4a32-5484-ba70-875d765a9175-attr-5-key" class="er entityLabel"/><rect height="22" width="54.095550537109375" y="134" x="0" class="er attributeBoxEven"/><text style="dominant-baseline: middle; font-size: 10.2px;" transform="translate(5,145)" y="0" x="0" id="text-entity-User-818c511a-4a32-5484-ba70-875d765a9175-attr-6-type" class="er entityLabel">String</text><rect height="22" width="66.11338806152344" y="134" x="54.095550537109375" class="er attributeBoxEven"/><text style="dominant-baseline: middle; font-size: 10.2px;" transform="translate(59.095550537109375,145)" y="0" x="0" id="text-entity-User-818c511a-4a32-5484-ba70-875d765a9175-attr-6-name" class="er entityLabel">accessToken</text><rect height="22" width="22.68768310546875" y="134" x="120.20893859863281" class="er attributeBoxEven"/><text style="dominant-baseline: middle; font-size: 10.2px;" transform="translate(125.20893859863281,145)" y="0" x="0" id="text-entity-User-818c511a-4a32-5484-ba70-875d765a9175-attr-6-key" class="er entityLabel"/></g><g transform="translate(505,276 )" id="entity-Project-c2395ed5-a5fa-58df-9cbe-a2926add311c"><rect height="68" width="100" y="0" x="0" class="er entityBox"/><text style="dominant-baseline: middle; text-anchor: middle; font-size: 12px;" transform="translate(50,12)" y="0" x="0" id="text-entity-Project-c2395ed5-a5fa-58df-9cbe-a2926add311c" class="er entityLabel">Project</text><rect height="22" width="38.90184020996094" y="24" x="0" class="er attributeBoxOdd"/><text style="dominant-baseline: middle; font-size: 10.2px;" transform="translate(5,35)" y="0" x="0" id="text-entity-Project-c2395ed5-a5fa-58df-9cbe-a2926add311c-attr-1-type" class="er entityLabel">String</text><rect height="22" width="36.904693603515625" y="24" x="38.90184020996094" class="er attributeBoxOdd"/><text style="dominant-baseline: middle; font-size: 10.2px;" transform="translate(43.90184020996094,35)" y="0" x="0" id="text-entity-Project-c2395ed5-a5fa-58df-9cbe-a2926add311c-attr-1-name" class="er entityLabel">id</text><rect height="22" width="24.193466186523438" y="24" x="75.80653381347656" class="er attributeBoxOdd"/><text style="dominant-baseline: middle; font-size: 10.2px;" transform="translate(80.80653381347656,35)" y="0" x="0" id="text-entity-Project-c2395ed5-a5fa-58df-9cbe-a2926add311c-attr-1-key" class="er entityLabel">PK</text><rect height="22" width="38.90184020996094" y="46" x="0" class="er attributeBoxEven"/><text style="dominant-baseline: middle; font-size: 10.2px;" transform="translate(5,57)" y="0" x="0" id="text-entity-Project-c2395ed5-a5fa-58df-9cbe-a2926add311c-attr-2-type" class="er entityLabel">String</text><rect height="22" width="36.904693603515625" y="46" x="38.90184020996094" class="er attributeBoxEven"/><text style="dominant-baseline: middle; font-size: 10.2px;" transform="translate(43.90184020996094,57)" y="0" x="0" id="text-entity-Project-c2395ed5-a5fa-58df-9cbe-a2926add311c-attr-2-name" class="er entityLabel">name</text><rect height="22" width="24.193466186523438" y="46" x="75.80653381347656" class="er attributeBoxEven"/><text style="dominant-baseline: middle; font-size: 10.2px;" transform="translate(80.80653381347656,57)" y="0" x="0" id="text-entity-Project-c2395ed5-a5fa-58df-9cbe-a2926add311c-attr-2-key" class="er entityLabel"/></g><g transform="translate(185.6484375,444 )" id="entity-Feature-4fad3d01-3517-571c-a342-eed3efd89186"><rect height="90" width="168.703125" y="0" x="0" class="er entityBox"/><text style="dominant-baseline: middle; text-anchor: middle; font-size: 12px;" transform="translate(84.3515625,12)" y="0" x="0" id="text-entity-Feature-4fad3d01-3517-571c-a342-eed3efd89186" class="er entityLabel">Feature</text><rect height="22" width="37.39605712890625" y="24" x="0" class="er attributeBoxOdd"/><text style="dominant-baseline: middle; font-size: 10.2px;" transform="translate(5,35)" y="0" x="0" id="text-entity-Feature-4fad3d01-3517-571c-a342-eed3efd89186-attr-1-type" class="er entityLabel">String</text><rect height="22" width="61.40684509277344" y="24" x="37.39605712890625" class="er attributeBoxOdd"/><text style="dominant-baseline: middle; font-size: 10.2px;" transform="translate(42.39605712890625,35)" y="0" x="0" id="text-entity-Feature-4fad3d01-3517-571c-a342-eed3efd89186-attr-1-name" class="er entityLabel">id</text><rect height="22" width="22.68768310546875" y="24" x="98.80290222167969" class="er attributeBoxOdd"/><text style="dominant-baseline: middle; font-size: 10.2px;" transform="translate(103.80290222167969,35)" y="0" x="0" id="text-entity-Feature-4fad3d01-3517-571c-a342-eed3efd89186-attr-1-key" class="er entityLabel">PK</text><rect height="22" width="47.21253967285156" y="24" x="121.49058532714844" class="er attributeBoxOdd"/><text style="dominant-baseline: middle; font-size: 10.2px;" transform="translate(126.49058532714844,35)" y="0" x="0" id="text-entity-Feature-4fad3d01-3517-571c-a342-eed3efd89186-attr-1-comment" class="er entityLabel"/><rect height="22" width="37.39605712890625" y="46" x="0" class="er attributeBoxEven"/><text style="dominant-baseline: middle; font-size: 10.2px;" transform="translate(5,57)" y="0" x="0" id="text-entity-Feature-4fad3d01-3517-571c-a342-eed3efd89186-attr-2-type" class="er entityLabel">String</text><rect height="22" width="61.40684509277344" y="46" x="37.39605712890625" class="er attributeBoxEven"/><text style="dominant-baseline: middle; font-size: 10.2px;" transform="translate(42.39605712890625,57)" y="0" x="0" id="text-entity-Feature-4fad3d01-3517-571c-a342-eed3efd89186-attr-2-name" class="er entityLabel">title</text><rect height="22" width="22.68768310546875" y="46" x="98.80290222167969" class="er attributeBoxEven"/><text style="dominant-baseline: middle; font-size: 10.2px;" transform="translate(103.80290222167969,57)" y="0" x="0" id="text-entity-Feature-4fad3d01-3517-571c-a342-eed3efd89186-attr-2-key" class="er entityLabel"/><rect height="22" width="47.21253967285156" y="46" x="121.49058532714844" class="er attributeBoxEven"/><text style="dominant-baseline: middle; font-size: 10.2px;" transform="translate(126.49058532714844,57)" y="0" x="0" id="text-entity-Feature-4fad3d01-3517-571c-a342-eed3efd89186-attr-2-comment" class="er entityLabel">nullable</text><rect height="22" width="37.39605712890625" y="68" x="0" class="er attributeBoxOdd"/><text style="dominant-baseline: middle; font-size: 10.2px;" transform="translate(5,79)" y="0" x="0" id="text-entity-Feature-4fad3d01-3517-571c-a342-eed3efd89186-attr-3-type" class="er entityLabel">String</text><rect height="22" width="61.40684509277344" y="68" x="37.39605712890625" class="er attributeBoxOdd"/><text style="dominant-baseline: middle; font-size: 10.2px;" transform="translate(42.39605712890625,79)" y="0" x="0" id="text-entity-Feature-4fad3d01-3517-571c-a342-eed3efd89186-attr-3-name" class="er entityLabel">description</text><rect height="22" width="22.68768310546875" y="68" x="98.80290222167969" class="er attributeBoxOdd"/><text style="dominant-baseline: middle; font-size: 10.2px;" transform="translate(103.80290222167969,79)" y="0" x="0" id="text-entity-Feature-4fad3d01-3517-571c-a342-eed3efd89186-attr-3-key" class="er entityLabel"/><rect height="22" width="47.21253967285156" y="68" x="121.49058532714844" class="er attributeBoxOdd"/><text style="dominant-baseline: middle; font-size: 10.2px;" transform="translate(126.49058532714844,79)" y="0" x="0" id="text-entity-Feature-4fad3d01-3517-571c-a342-eed3efd89186-attr-3-comment" class="er entityLabel">nullable</text></g><g transform="translate(334.3262023925781,634 )" id="entity-Scenario-c93c47a9-e6c7-5329-9f48-596f0b9a515d"><rect height="68" width="142.6951904296875" y="0" x="0" class="er entityBox"/><text style="dominant-baseline: middle; text-anchor: middle; font-size: 12px;" transform="translate(71.34759521484375,12)" y="0" x="0" id="text-entity-Scenario-c93c47a9-e6c7-5329-9f48-596f0b9a515d" class="er entityLabel">Scenario</text><rect height="22" width="37.39605712890625" y="24" x="0" class="er attributeBoxOdd"/><text style="dominant-baseline: middle; font-size: 10.2px;" transform="translate(5,35)" y="0" x="0" id="text-entity-Scenario-c93c47a9-e6c7-5329-9f48-596f0b9a515d-attr-1-type" class="er entityLabel">Int</text><rect height="22" width="35.39891052246094" y="24" x="37.39605712890625" class="er attributeBoxOdd"/><text style="dominant-baseline: middle; font-size: 10.2px;" transform="translate(42.39605712890625,35)" y="0" x="0" id="text-entity-Scenario-c93c47a9-e6c7-5329-9f48-596f0b9a515d-attr-1-name" class="er entityLabel">id</text><rect height="22" width="22.68768310546875" y="24" x="72.79496765136719" class="er attributeBoxOdd"/><text style="dominant-baseline: middle; font-size: 10.2px;" transform="translate(77.79496765136719,35)" y="0" x="0" id="text-entity-Scenario-c93c47a9-e6c7-5329-9f48-596f0b9a515d-attr-1-key" class="er entityLabel">PK</text><rect height="22" width="47.21253967285156" y="24" x="95.48265075683594" class="er attributeBoxOdd"/><text style="dominant-baseline: middle; font-size: 10.2px;" transform="translate(100.48265075683594,35)" y="0" x="0" id="text-entity-Scenario-c93c47a9-e6c7-5329-9f48-596f0b9a515d-attr-1-comment" class="er entityLabel"/><rect height="22" width="37.39605712890625" y="46" x="0" class="er attributeBoxEven"/><text style="dominant-baseline: middle; font-size: 10.2px;" transform="translate(5,57)" y="0" x="0" id="text-entity-Scenario-c93c47a9-e6c7-5329-9f48-596f0b9a515d-attr-2-type" class="er entityLabel">String</text><rect height="22" width="35.39891052246094" y="46" x="37.39605712890625" class="er attributeBoxEven"/><text style="dominant-baseline: middle; font-size: 10.2px;" transform="translate(42.39605712890625,57)" y="0" x="0" id="text-entity-Scenario-c93c47a9-e6c7-5329-9f48-596f0b9a515d-attr-2-name" class="er entityLabel">name</text><rect height="22" width="22.68768310546875" y="46" x="72.79496765136719" class="er attributeBoxEven"/><text style="dominant-baseline: middle; font-size: 10.2px;" transform="translate(77.79496765136719,57)" y="0" x="0" id="text-entity-Scenario-c93c47a9-e6c7-5329-9f48-596f0b9a515d-attr-2-key" class="er entityLabel"/><rect height="22" width="47.21253967285156" y="46" x="95.48265075683594" class="er attributeBoxEven"/><text style="dominant-baseline: middle; font-size: 10.2px;" transform="translate(100.48265075683594,57)" y="0" x="0" id="text-entity-Scenario-c93c47a9-e6c7-5329-9f48-596f0b9a515d-attr-2-comment" class="er entityLabel">nullable</text></g><g transform="translate(355.6737976074219,802 )" id="entity-Step-e219be1f-61cb-5c54-96b3-c2b2bab46dfc"><rect height="68" width="100" y="0" x="0" class="er entityBox"/><text style="dominant-baseline: middle; text-anchor: middle; font-size: 12px;" transform="translate(50,12)" y="0" x="0" id="text-entity-Step-e219be1f-61cb-5c54-96b3-c2b2bab46dfc" class="er entityLabel">Step</text><rect height="22" width="29.484156290690105" y="24" x="0" class="er attributeBoxOdd"/><text style="dominant-baseline: middle; font-size: 10.2px;" transform="translate(5,35)" y="0" x="0" id="text-entity-Step-e219be1f-61cb-5c54-96b3-c2b2bab46dfc-attr-1-type" class="er entityLabel">Int</text><rect height="22" width="41.7560068766276" y="24" x="29.484156290690105" class="er attributeBoxOdd"/><text style="dominant-baseline: middle; font-size: 10.2px;" transform="translate(34.48415629069011,35)" y="0" x="0" id="text-entity-Step-e219be1f-61cb-5c54-96b3-c2b2bab46dfc-attr-1-name" class="er entityLabel">id</text><rect height="22" width="28.759836832682293" y="24" x="71.2401631673177" class="er attributeBoxOdd"/><text style="dominant-baseline: middle; font-size: 10.2px;" transform="translate(76.2401631673177,35)" y="0" x="0" id="text-entity-Step-e219be1f-61cb-5c54-96b3-c2b2bab46dfc-attr-1-key" class="er entityLabel">PK</text><rect height="22" width="29.484156290690105" y="46" x="0" class="er attributeBoxEven"/><text style="dominant-baseline: middle; font-size: 10.2px;" transform="translate(5,57)" y="0" x="0" id="text-entity-Step-e219be1f-61cb-5c54-96b3-c2b2bab46dfc-attr-2-type" class="er entityLabel">Int</text><rect height="22" width="41.7560068766276" y="46" x="29.484156290690105" class="er attributeBoxEven"/><text style="dominant-baseline: middle; font-size: 10.2px;" transform="translate(34.48415629069011,57)" y="0" x="0" id="text-entity-Step-e219be1f-61cb-5c54-96b3-c2b2bab46dfc-attr-2-name" class="er entityLabel">order</text><rect height="22" width="28.759836832682293" y="46" x="71.2401631673177" class="er attributeBoxEven"/><text style="dominant-baseline: middle; font-size: 10.2px;" transform="translate(76.2401631673177,57)" y="0" x="0" id="text-entity-Step-e219be1f-61cb-5c54-96b3-c2b2bab46dfc-attr-2-key" class="er entityLabel"/></g><g transform="translate(775.6737976074219,992 )" id="entity-Behaviour-97a2395c-598e-5946-8da9-ce5730d44919"><rect height="68" width="100" y="0" x="0" class="er entityBox"/><text style="dominant-baseline: middle; text-anchor: middle; font-size: 12px;" transform="translate(50,12)" y="0" x="0" id="text-entity-Behaviour-97a2395c-598e-5946-8da9-ce5730d44919" class="er entityLabel">Behaviour</text><rect height="22" width="38.72290547688802" y="24" x="0" class="er attributeBoxOdd"/><text style="dominant-baseline: middle; font-size: 10.2px;" transform="translate(5,35)" y="0" x="0" id="text-entity-Behaviour-97a2395c-598e-5946-8da9-ce5730d44919-attr-1-type" class="er entityLabel">Int</text><rect height="22" width="37.26256306966146" y="24" x="38.72290547688802" class="er attributeBoxOdd"/><text style="dominant-baseline: middle; font-size: 10.2px;" transform="translate(43.72290547688802,35)" y="0" x="0" id="text-entity-Behaviour-97a2395c-598e-5946-8da9-ce5730d44919-attr-1-name" class="er entityLabel">id</text><rect height="22" width="24.01453145345052" y="24" x="75.98546854654948" class="er attributeBoxOdd"/><text style="dominant-baseline: middle; font-size: 10.2px;" transform="translate(80.98546854654948,35)" y="0" x="0" id="text-entity-Behaviour-97a2395c-598e-5946-8da9-ce5730d44919-attr-1-key" class="er entityLabel">PK</text><rect height="22" width="38.72290547688802" y="46" x="0" class="er attributeBoxEven"/><text style="dominant-baseline: middle; font-size: 10.2px;" transform="translate(5,57)" y="0" x="0" id="text-entity-Behaviour-97a2395c-598e-5946-8da9-ce5730d44919-attr-2-type" class="er entityLabel">String</text><rect height="22" width="37.26256306966146" y="46" x="38.72290547688802" class="er attributeBoxEven"/><text style="dominant-baseline: middle; font-size: 10.2px;" transform="translate(43.72290547688802,57)" y="0" x="0" id="text-entity-Behaviour-97a2395c-598e-5946-8da9-ce5730d44919-attr-2-name" class="er entityLabel">value</text><rect height="22" width="24.01453145345052" y="46" x="75.98546854654948" class="er attributeBoxEven"/><text style="dominant-baseline: middle; font-size: 10.2px;" transform="translate(80.98546854654948,57)" y="0" x="0" id="text-entity-Behaviour-97a2395c-598e-5946-8da9-ce5730d44919-attr-2-key" class="er entityLabel"/></g><g transform="translate(20,970 )" id="entity-Param-e2866454-d78f-59a5-b770-d23bf52d1823"><rect height="112" width="100" y="0" x="0" class="er entityBox"/><text style="dominant-baseline: middle; text-anchor: middle; font-size: 12px;" transform="translate(50,12)" y="0" x="0" id="text-entity-Param-e2866454-d78f-59a5-b770-d23bf52d1823" class="er entityLabel">Param</text><rect height="22" width="38.72290547688802" y="24" x="0" class="er attributeBoxOdd"/><text style="dominant-baseline: middle; font-size: 10.2px;" transform="translate(5,35)" y="0" x="0" id="text-entity-Param-e2866454-d78f-59a5-b770-d23bf52d1823-attr-1-type" class="er entityLabel">Int</text><rect height="22" width="37.26256306966146" y="24" x="38.72290547688802" class="er attributeBoxOdd"/><text style="dominant-baseline: middle; font-size: 10.2px;" transform="translate(43.72290547688802,35)" y="0" x="0" id="text-entity-Param-e2866454-d78f-59a5-b770-d23bf52d1823-attr-1-name" class="er entityLabel">id</text><rect height="22" width="24.01453145345052" y="24" x="75.98546854654948" class="er attributeBoxOdd"/><text style="dominant-baseline: middle; font-size: 10.2px;" transform="translate(80.98546854654948,35)" y="0" x="0" id="text-entity-Param-e2866454-d78f-59a5-b770-d23bf52d1823-attr-1-key" class="er entityLabel">PK</text><rect height="22" width="38.72290547688802" y="46" x="0" class="er attributeBoxEven"/><text style="dominant-baseline: middle; font-size: 10.2px;" transform="translate(5,57)" y="0" x="0" id="text-entity-Param-e2866454-d78f-59a5-b770-d23bf52d1823-attr-2-type" class="er entityLabel">String</text><rect height="22" width="37.26256306966146" y="46" x="38.72290547688802" class="er attributeBoxEven"/><text style="dominant-baseline: middle; font-size: 10.2px;" transform="translate(43.72290547688802,57)" y="0" x="0" id="text-entity-Param-e2866454-d78f-59a5-b770-d23bf52d1823-attr-2-name" class="er entityLabel">name</text><rect height="22" width="24.01453145345052" y="46" x="75.98546854654948" class="er attributeBoxEven"/><text style="dominant-baseline: middle; font-size: 10.2px;" transform="translate(80.98546854654948,57)" y="0" x="0" id="text-entity-Param-e2866454-d78f-59a5-b770-d23bf52d1823-attr-2-key" class="er entityLabel"/><rect height="22" width="38.72290547688802" y="68" x="0" class="er attributeBoxOdd"/><text style="dominant-baseline: middle; font-size: 10.2px;" transform="translate(5,79)" y="0" x="0" id="text-entity-Param-e2866454-d78f-59a5-b770-d23bf52d1823-attr-3-type" class="er entityLabel">String</text><rect height="22" width="37.26256306966146" y="68" x="38.72290547688802" class="er attributeBoxOdd"/><text style="dominant-baseline: middle; font-size: 10.2px;" transform="translate(43.72290547688802,79)" y="0" x="0" id="text-entity-Param-e2866454-d78f-59a5-b770-d23bf52d1823-attr-3-name" class="er entityLabel">value</text><rect height="22" width="24.01453145345052" y="68" x="75.98546854654948" class="er attributeBoxOdd"/><text style="dominant-baseline: middle; font-size: 10.2px;" transform="translate(80.98546854654948,79)" y="0" x="0" id="text-entity-Param-e2866454-d78f-59a5-b770-d23bf52d1823-attr-3-key" class="er entityLabel"/><rect height="22" width="38.72290547688802" y="90" x="0" class="er attributeBoxEven"/><text style="dominant-baseline: middle; font-size: 10.2px;" transform="translate(5,101)" y="0" x="0" id="text-entity-Param-e2866454-d78f-59a5-b770-d23bf52d1823-attr-4-type" class="er entityLabel">String</text><rect height="22" width="37.26256306966146" y="90" x="38.72290547688802" class="er attributeBoxEven"/><text style="dominant-baseline: middle; font-size: 10.2px;" transform="translate(43.72290547688802,101)" y="0" x="0" id="text-entity-Param-e2866454-d78f-59a5-b770-d23bf52d1823-attr-4-name" class="er entityLabel">type</text><rect height="22" width="24.01453145345052" y="90" x="75.98546854654948" class="er attributeBoxEven"/><text style="dominant-baseline: middle; font-size: 10.2px;" transform="translate(80.98546854654948,101)" y="0" x="0" id="text-entity-Param-e2866454-d78f-59a5-b770-d23bf52d1823-attr-4-key" class="er entityLabel"/></g><rect height="14" width="44.43359375" y="220.5394287109375" x="574.3870849609375" class="er relationshipLabelBox"/><text style="text-anchor: middle; dominant-baseline: middle; font-size: 12px;" y="227.5394287109375" x="596.6038818359375" id="rel1" class="er relationshipLabel">projects</text><rect height="14" width="27.623046875" y="220.5394287109375" x="499.5845947265625" class="er relationshipLabelBox"/><text style="text-anchor: middle; dominant-baseline: middle; font-size: 12px;" y="227.5394287109375" x="513.3961181640625" id="rel2" class="er relationshipLabel">users</text><rect height="14" width="44.80859375" y="372.79803466796875" x="383.4417724609375" class="er relationshipLabelBox"/><text style="text-anchor: middle; dominant-baseline: middle; font-size: 12px;" y="379.79803466796875" x="405.8460693359375" id="rel3" class="er relationshipLabel">features</text><rect height="14" width="58.05078125" y="535.42578125" x="946.6484375" class="er relationshipLabelBox"/><text style="text-anchor: middle; dominant-baseline: middle; font-size: 12px;" y="542.42578125" x="975.673828125" id="rel4" class="er relationshipLabel">behaviours</text><rect height="14" width="49.73046875" y="552.5691528320312" x="437.0244445800781" class="er relationshipLabelBox"/><text style="text-anchor: middle; dominant-baseline: middle; font-size: 12px;" y="559.5691528320312" x="461.8896789550781" id="rel5" class="er relationshipLabel">scenarios</text><rect height="14" width="38.919921875" y="773.73681640625" x="200.5400390625" class="er relationshipLabelBox"/><text style="text-anchor: middle; dominant-baseline: middle; font-size: 12px;" y="780.73681640625" x="220" id="rel6" class="er relationshipLabel">params</text><rect height="14" width="39.67578125" y="355.3135986328125" x="332.78131103515625" class="er relationshipLabelBox"/><text style="text-anchor: middle; dominant-baseline: middle; font-size: 12px;" y="362.3135986328125" x="352.61920166015625" id="rel7" class="er relationshipLabel">project</text><rect height="14" width="27.845703125" y="747.6085205078125" x="498.95709228515625" class="er relationshipLabelBox"/><text style="text-anchor: middle; dominant-baseline: middle; font-size: 12px;" y="754.6085205078125" x="512.8799438476562" id="rel8" class="er relationshipLabel">steps</text><rect height="14" width="40.263671875" y="574.5655517578125" x="331.1468811035156" class="er relationshipLabelBox"/><text style="text-anchor: middle; dominant-baseline: middle; font-size: 12px;" y="581.5655517578125" x="351.2787170410156" id="rel9" class="er relationshipLabel">feature</text><rect height="14" width="38.919921875" y="886.5819091796875" x="196.22640991210938" class="er relationshipLabelBox"/><text style="text-anchor: middle; dominant-baseline: middle; font-size: 12px;" y="893.5819091796875" x="215.68637084960938" id="rel10" class="er relationshipLabel">params</text><rect height="14" width="45.291015625" y="745" x="342.94891357421875" class="er relationshipLabelBox"/><text style="text-anchor: middle; dominant-baseline: middle; font-size: 12px;" y="752" x="365.59442138671875" id="rel11" class="er relationshipLabel">scenario</text><rect height="14" width="54.38671875" y="880.0012817382812" x="652.0001220703125" class="er relationshipLabelBox"/><text style="text-anchor: middle; dominant-baseline: middle; font-size: 12px;" y="887.0012817382812" x="679.1934814453125" id="rel12" class="er relationshipLabel">behaviour</text><rect height="14" width="27.845703125" y="829" x="540.9176025390625" class="er relationshipLabelBox"/><text style="text-anchor: middle; dominant-baseline: middle; font-size: 12px;" y="836" x="554.8404541015625" id="rel13" class="er relationshipLabel">steps</text><rect height="14" width="35.755859375" y="829" x="640.8514404296875" class="er relationshipLabelBox"/><text style="text-anchor: middle; dominant-baseline: middle; font-size: 12px;" y="836" x="658.7293701171875" id="rel14" class="er relationshipLabel">parent</text><rect height="14" width="39.67578125" y="607.865234375" x="755.8359375" class="er relationshipLabelBox"/><text style="text-anchor: middle; dominant-baseline: middle; font-size: 12px;" y="614.865234375" x="775.673828125" id="rel15" class="er relationshipLabel">project</text><rect height="14" width="27.845703125" y="954.6996459960938" x="562.5131225585938" class="er relationshipLabelBox"/><text style="text-anchor: middle; dominant-baseline: middle; font-size: 12px;" y="961.6996459960938" x="576.4359741210938" id="rel16" class="er relationshipLabel">steps</text><rect height="14" width="27.845703125" y="879.8898315429688" x="164.70994567871094" class="er relationshipLabelBox"/><text style="text-anchor: middle; dominant-baseline: middle; font-size: 12px;" y="886.8898315429688" x="178.63279724121094" id="rel17" class="er relationshipLabel">steps</text><rect height="14" width="40.263671875" y="676.4187622070312" x="-100.1318359375" class="er relationshipLabelBox"/><text style="text-anchor: middle; dominant-baseline: middle; font-size: 12px;" y="683.4187622070312" x="-80" id="rel18" class="er relationshipLabel">feature</text></svg>