<svg aria-roledescription="er" role="graphics-document document" viewBox="-219.57408142089844 0 1273.0155029296875 1102" style="max-width: 1273.02px; background-color: white;" xmlns:xlink="http://www.w3.org/1999/xlink" xmlns="http://www.w3.org/2000/svg" width="100%" id="mermaid-0"><style>#mermaid-0{font-family:"trebuchet ms",verdana,arial,sans-serif;font-size:16px;fill:#000000;}#mermaid-0 .error-icon{fill:#552222;}#mermaid-0 .error-text{fill:#552222;stroke:#552222;}#mermaid-0 .edge-thickness-normal{stroke-width:2px;}#mermaid-0 .edge-thickness-thick{stroke-width:3.5px;}#mermaid-0 .edge-pattern-solid{stroke-dasharray:0;}#mermaid-0 .edge-pattern-dashed{stroke-dasharray:3;}#mermaid-0 .edge-pattern-dotted{stroke-dasharray:2;}#mermaid-0 .marker{fill:#000000;stroke:#000000;}#mermaid-0 .marker.cross{stroke:#000000;}#mermaid-0 svg{font-family:"trebuchet ms",verdana,arial,sans-serif;font-size:16px;}#mermaid-0 .entityBox{fill:#cde498;stroke:#13540c;}#mermaid-0 .attributeBoxOdd{fill:#ffffff;stroke:#13540c;}#mermaid-0 .attributeBoxEven{fill:#f2f2f2;stroke:#13540c;}#mermaid-0 .relationshipLabelBox{fill:hsl(78.1578947368, 58.4615384615%, 84.5098039216%);opacity:0.7;background-color:hsl(78.1578947368, 58.4615384615%, 84.5098039216%);}#mermaid-0 .relationshipLabelBox rect{opacity:0.5;}#mermaid-0 .relationshipLine{stroke:#000000;}#mermaid-0 .entityTitleText{text-anchor:middle;font-size:18px;fill:#000000;}#mermaid-0 :root{--mermaid-font-family:"trebuchet ms",verdana,arial,sans-serif;}</style><g/><defs><marker orient="auto" markerHeight="18" markerWidth="18" refY="9" refX="0" id="ONLY_ONE_START"><path d="M9,0 L9,18 M15,0 L15,18" fill="none" stroke="gray"/></marker></defs><defs><marker orient="auto" markerHeight="18" markerWidth="18" refY="9" refX="18" id="ONLY_ONE_END"><path d="M3,0 L3,18 M9,0 L9,18" fill="none" stroke="gray"/></marker></defs><defs><marker orient="auto" markerHeight="18" markerWidth="30" refY="9" refX="0" id="ZERO_OR_ONE_START"><circle r="6" cy="9" cx="21" fill="white" stroke="gray"/><path d="M9,0 L9,18" fill="none" stroke="gray"/></marker></defs><defs><marker orient="auto" markerHeight="18" markerWidth="30" refY="9" refX="30" id="ZERO_OR_ONE_END"><circle r="6" cy="9" cx="9" fill="white" stroke="gray"/><path d="M21,0 L21,18" fill="none" stroke="gray"/></marker></defs><defs><marker orient="auto" markerHeight="36" markerWidth="45" refY="18" refX="18" id="ONE_OR_MORE_START"><path d="M0,18 Q 18,0 36,18 Q 18,36 0,18 M42,9 L42,27" fill="none" stroke="gray"/></marker></defs><defs><marker orient="auto" markerHeight="36" markerWidth="45" refY="18" refX="27" id="ONE_OR_MORE_END"><path d="M3,9 L3,27 M9,18 Q27,0 45,18 Q27,36 9,18" fill="none" stroke="gray"/></marker></defs><defs><marker orient="auto" markerHeight="36" markerWidth="57" refY="18" refX="18" id="ZERO_OR_MORE_START"><circle r="6" cy="18" cx="48" fill="white" stroke="gray"/><path d="M0,18 Q18,0 36,18 Q18,36 0,18" fill="none" stroke="gray"/></marker></defs><defs><marker orient="auto" markerHeight="36" markerWidth="57" refY="18" refX="39" id="ZERO_OR_MORE_END"><circle r="6" cy="18" cx="9" fill="white" stroke="gray"/><path d="M21,18 Q39,0 57,18 Q39,36 21,18" fill="none" stroke="gray"/></marker></defs><path style="stroke: gray; fill: none;" marker-start="url(#ZERO_OR_MORE_START)" marker-end="url(#ZERO_OR_MORE_END)" d="M499.1465148925781,176L502.40172322591144,184.33333333333334C505.6569315592448,192.66666666666666,512.1673482259115,209.33333333333334,510.46223909892734,226C508.7571299719432,242.66666666666666,498.83649505130825,259.3333333333333,493.87617759099084,267.6666666666667L488.91586013067337,276" class="er relationshipLine"/><path style="stroke: gray; fill: none;" marker-start="url(#ZERO_OR_MORE_START)" marker-end="url(#ZERO_OR_MORE_END)" d="M448.4396696544829,276L443.4793521941654,267.6666666666667C438.519034733848,259.3333333333333,428.59839981321306,242.66666666666666,426.8932906862289,226C425.1881815592448,209.33333333333334,431.69859822591144,192.66666666666666,434.9538065592448,184.33333333333334L438.2090148925781,176" class="er relationshipLine"/><path style="stroke: gray; fill: none;" marker-start="url(#ZERO_OR_MORE_START)" marker-end="url(#ZERO_OR_MORE_END)" d="M506.5222000848679,344L515.7977969457232,352.3333333333333C525.0733938065786,360.6666666666667,543.6245875282893,377.3333333333333,547.8278844987938,394C552.0311814692982,410.6666666666667,541.8865816885965,427.3333333333333,536.8142817982456,435.6666666666667L531.7419819078947,444" class="er relationshipLine"/><path style="stroke: gray; fill: none;" marker-start="url(#ZERO_OR_MORE_START)" marker-end="url(#ZERO_OR_MORE_END)" d="M518.6777648925781,317.8405925747334L599.6233978271484,330.53382714561116C680.5690307617188,343.2270617164889,842.4602966308594,368.6135308582445,923.4059295654297,397.1400987624556C1004.3515625,425.6666666666667,1004.3515625,457.3333333333333,1004.3515625,489C1004.3515625,520.6666666666666,1004.3515625,552.3333333333334,1004.3515625,582.1666666666666C1004.3515625,612,1004.3515625,640,1004.3515625,668C1004.3515625,696,1004.3515625,724,1004.3515625,752C1004.3515625,780,1004.3515625,808,1004.3515625,836C1004.3515625,864,1004.3515625,892,971.0182291666666,920.1333333333333C937.6848958333334,948.2666666666668,871.0182291666666,976.5333333333333,837.6848958333334,990.6666666666666L804.3515625,1004.8" class="er relationshipLine"/><path style="stroke: gray; fill: none;" marker-start="url(#ZERO_OR_MORE_START)" marker-end="url(#ZERO_OR_MORE_END)" d="M418.6777648925781,338.249012238209L402.2314707438151,347.54084353184084C385.78517659505206,356.8326748254726,352.89258829752606,375.4163374127363,336.446294148763,400.54150203970147C320,425.6666666666667,320,457.3333333333333,320,489C320,520.6666666666666,320,552.3333333333334,320,582.1666666666666C320,612,320,640,320,668C320,696,320,724,320,752C320,780,320,808,320,836C320,864,320,892,286.6666666666667,920.1333333333333C253.33333333333334,948.2666666666668,186.66666666666666,976.5333333333333,153.33333333333334,990.6666666666666L120,1004.8" class="er relationshipLine"/><path style="stroke: gray; fill: none;" marker-start="url(#ZERO_OR_MORE_START)" marker-end="url(#ZERO_OR_MORE_END)" d="M534.8218688964844,534L540.4645182291666,542.3333333333334C546.107167561849,550.6666666666666,557.3924662272135,567.3333333333334,557.4297600397988,584C557.4670538523841,600.6666666666666,546.2563428121899,617.3333333333334,540.650987292093,625.6666666666666L535.0456317719959,634" class="er relationshipLine"/><path style="stroke: gray; fill: none;" marker-start="url(#ZERO_OR_MORE_START)" marker-end="url(#ZERO_OR_MORE_END)" d="M420,517.1813061516059L386.6666666666667,528.3177551263383C353.3333333333333,539.4542041010706,286.6666666666667,561.7271020505353,253.33333333333334,586.8635510252676C220,612,220,640,220,668C220,696,220,724,220,752C220,780,220,808,220,836C220,864,220,892,203.33333333333334,917.7777777777778C186.66666666666666,943.5555555555555,153.33333333333334,967.111111111111,136.66666666666666,978.8888888888888L120,990.6666666666666" class="er relationshipLine"/><path style="stroke: gray; fill: none;" marker-start="url(#ZERO_OR_MORE_START)" marker-end="url(#ONLY_ONE_END)" d="M484.3735608552632,444L480.67393092105266,435.6666666666667C476.9743009868421,427.3333333333333,469.57504111842104,410.6666666666667,466.5204492439902,394C463.46585736955916,377.3333333333333,464.75593348911826,360.6666666666667,465.40097154889787,352.3333333333333L466.0460096086775,344" class="er relationshipLine"/><path style="stroke: gray; fill: none;" marker-start="url(#ZERO_OR_MORE_START)" marker-end="url(#ZERO_OR_MORE_END)" d="M535.0456317719959,702L540.650987292093,710.3333333333334C546.2563428121899,718.6666666666666,557.4670538523841,735.3333333333334,557.4670538523841,752C557.4670538523841,768.6666666666666,546.2563428121899,785.3333333333334,540.650987292093,793.6666666666666L535.0456317719959,802" class="er relationshipLine"/><path style="stroke: gray; fill: none;" marker-start="url(#ZERO_OR_MORE_START)" marker-end="url(#ONLY_ONE_END)" d="M494.5694412958054,634L490.25416189526754,625.6666666666666C485.9388824947296,617.3333333333334,477.3083236936539,600.6666666666666,476.1223247849951,584C474.9363258763363,567.3333333333334,481.1948868600946,550.6666666666666,484.3241673519737,542.3333333333334L487.4534478438528,534" class="er relationshipLine"/><path style="stroke: gray; fill: none;" marker-start="url(#ZERO_OR_MORE_START)" marker-end="url(#ZERO_OR_MORE_END)" d="M462.17578125,846.7094833510962L405.146484375,858.9245694592469C348.1171875,871.1396555673974,234.05859375,895.5698277836988,173.09847926493708,916.1182472251827C112.13836477987422,936.6666666666666,104.27672955974843,953.3333333333334,100.34591194968554,961.6666666666666L96.41509433962264,970" class="er relationshipLine"/><path style="stroke: gray; fill: none;" marker-start="url(#ZERO_OR_MORE_START)" marker-end="url(#ONLY_ONE_END)" d="M562.17578125,846.7094833510962L619.205078125,858.9245694592469C676.234375,871.1396555673974,790.29296875,895.5698277836988,830.3411335495283,919.7849138918494C870.3892983490565,944,836.4270341981132,968,819.4459021226415,980L802.4647700471698,992" class="er relationshipLine"/><path style="stroke: gray; fill: none;" marker-start="url(#ZERO_OR_MORE_START)" marker-end="url(#ZERO_OR_ONE_END)" d="M491.93768601190476,802L486.9773685515873,793.6666666666666C482.0170510912699,785.3333333333334,472.09641617063494,768.6666666666666,472.0964161706349,752C472.09641617063494,735.3333333333334,482.0170510912699,718.6666666666666,486.9773685515873,710.3333333333334L491.93768601190476,702" class="er relationshipLine"/><path style="stroke: gray; fill: none;" marker-start="url(#ZERO_OR_MORE_START)" marker-end="url(#ZERO_OR_ONE_END)" d="M562.17578125,850.3749080845488L602.5384114583334,861.9790900704573C642.9010416666666,873.5832720563658,723.6263020833334,896.7916360281829,758.3285549331762,920.3958180140916C793.030807783019,944,781.7100530660377,968,776.0496757075472,980L770.3892983490566,992" class="er relationshipLine"/><path style="stroke: gray; fill: none;" marker-start="url(#ZERO_OR_MORE_START)" marker-end="url(#ZERO_OR_ONE_END)" d="M738.3138266509434,992L732.6534492924528,980C726.9930719339623,968,715.672317216981,944,710.0119398584906,918C704.3515625,892,704.3515625,864,704.3515625,836C704.3515625,808,704.3515625,780,704.3515625,752C704.3515625,724,704.3515625,696,704.3515625,668C704.3515625,640,704.3515625,612,704.3515625,582.1666666666666C704.3515625,552.3333333333334,704.3515625,520.6666666666666,704.3515625,489C704.3515625,457.3333333333333,704.3515625,425.6666666666667,673.4059295654297,398.8035404887594C642.4602966308594,371.9404143108521,580.5690307617188,349.88082862170427,549.6233978271484,338.85103577713033L518.6777648925781,327.8212429325564" class="er relationshipLine"/><path style="stroke: gray; fill: none;" marker-start="url(#ZERO_OR_MORE_START)" marker-end="url(#ZERO_OR_MORE_END)" d="M704.3515625,997.4553153525409L681.7392628987631,984.5460961271174C659.126963297526,971.6368769016939,613.9023640950521,945.8184384508469,585.6847089737181,924.5758858920902C557.4670538523841,903.3333333333334,546.2563428121899,886.6666666666666,540.650987292093,878.3333333333334L535.0456317719959,870" class="er relationshipLine"/><path style="stroke: gray; fill: none;" marker-start="url(#ZERO_OR_MORE_START)" marker-end="url(#ZERO_OR_MORE_END)" d="M704.3515625,1007.8602350361646L663.9889322916666,993.2168625301371C623.6263020833334,978.5734900241097,542.9010416666666,949.2867450120548,507.4987289186508,926.310039172694C472.09641617063494,903.3333333333334,482.0170510912699,886.6666666666666,486.9773685515873,878.3333333333334L491.93768601190476,870" class="er relationshipLine"/><path style="stroke: gray; fill: none;" marker-start="url(#ZERO_OR_MORE_START)" marker-end="url(#ZERO_OR_MORE_END)" d="M43.58490566037736,970L39.65408805031446,961.6666666666666C35.723270440251575,953.3333333333334,27.861635220125788,936.6666666666666,97.62678115172956,915.7555894187957C167.39192708333334,894.8445121709246,314.7838541666667,869.6890243418494,388.4798177083333,857.1112804273117L462.17578125,844.5335365127742" class="er relationshipLine"/><path style="stroke: gray; fill: none;" marker-start="url(#ZERO_OR_MORE_START)" marker-end="url(#ONLY_ONE_END)" d="M20,990.6666666666666L3.3333333333333335,978.8888888888888C-13.333333333333334,967.111111111111,-46.666666666666664,943.5555555555555,-63.333333333333336,917.7777777777778C-80,892,-80,864,-80,836C-80,808,-80,780,-80,752C-80,724,-80,696,-80,668C-80,640,-80,612,3.3333333333333335,584.4522195631732C86.66666666666667,556.9044391263465,253.33333333333334,529.8088782526928,336.6666666666667,516.261097815866L420,502.71331737903927" class="er relationshipLine"/><path style="stroke: gray; fill: none;" marker-start="url(#ZERO_OR_MORE_START)" marker-end="url(#ONLY_ONE_END)" d="M20,1004.8L-13.333333333333334,990.6666666666666C-46.666666666666664,976.5333333333333,-113.33333333333333,948.2666666666668,-146.66666666666666,920.1333333333333C-180,892,-180,864,-180,836C-180,808,-180,780,-180,752C-180,724,-180,696,-180,668C-180,640,-180,612,-180,582.1666666666666C-180,552.3333333333334,-180,520.6666666666666,-180,489C-180,457.3333333333333,-180,425.6666666666667,-80.22037251790364,396.91245156103446C19.559254964192707,368.15823645540223,219.1185099283854,342.3164729108045,318.89813741048175,329.3955911385056L418.6777648925781,316.4747093662067" class="er relationshipLine"/><g transform="translate(397.22945404052734,20 )" id="entity-User-818c511a-4a32-5484-ba70-875d765a9175"><rect height="156" width="142.89662170410156" y="0" x="0" class="er entityBox"/><text style="dominant-baseline: middle; text-anchor: middle; font-size: 12px;" transform="translate(71.44831085205078,12)" y="0" x="0" id="text-entity-User-818c511a-4a32-5484-ba70-875d765a9175" class="er entityLabel">User</text><rect height="22" width="54.095550537109375" y="24" x="0" class="er attributeBoxOdd"/><text style="dominant-baseline: middle; font-size: 10.2px;" transform="translate(5,35)" y="0" x="0" id="text-entity-User-818c511a-4a32-5484-ba70-875d765a9175-attr-1-type" class="er entityLabel">String</text><rect height="22" width="66.11338806152344" y="24" x="54.095550537109375" class="er attributeBoxOdd"/><text style="dominant-baseline: middle; font-size: 10.2px;" transform="translate(59.095550537109375,35)" y="0" x="0" id="text-entity-User-818c511a-4a32-5484-ba70-875d765a9175-attr-1-name" class="er entityLabel">id</text><rect height="22" width="22.68768310546875" y="24" x="120.20893859863281" class="er attributeBoxOdd"/><text style="dominant-baseline: middle; font-size: 10.2px;" transform="translate(125.20893859863281,35)" y="0" x="0" id="text-entity-User-818c511a-4a32-5484-ba70-875d765a9175-attr-1-key" class="er entityLabel">PK</text><rect height="22" width="54.095550537109375" y="46" x="0" class="er attributeBoxEven"/><text style="dominant-baseline: middle; font-size: 10.2px;" transform="translate(5,57)" y="0" x="0" id="text-entity-User-818c511a-4a32-5484-ba70-875d765a9175-attr-2-type" class="er entityLabel">String</text><rect height="22" width="66.11338806152344" y="46" x="54.095550537109375" class="er attributeBoxEven"/><text style="dominant-baseline: middle; font-size: 10.2px;" transform="translate(59.095550537109375,57)" y="0" x="0" id="text-entity-User-818c511a-4a32-5484-ba70-875d765a9175-attr-2-name" class="er entityLabel">username</text><rect height="22" width="22.68768310546875" y="46" x="120.20893859863281" class="er attributeBoxEven"/><text style="dominant-baseline: middle; font-size: 10.2px;" transform="translate(125.20893859863281,57)" y="0" x="0" id="text-entity-User-818c511a-4a32-5484-ba70-875d765a9175-attr-2-key" class="er entityLabel"/><rect height="22" width="54.095550537109375" y="68" x="0" class="er attributeBoxOdd"/><text style="dominant-baseline: middle; font-size: 10.2px;" transform="translate(5,79)" y="0" x="0" id="text-entity-User-818c511a-4a32-5484-ba70-875d765a9175-attr-3-type" class="er entityLabel">String</text><rect height="22" width="66.11338806152344" y="68" x="54.095550537109375" class="er attributeBoxOdd"/><text style="dominant-baseline: middle; font-size: 10.2px;" transform="translate(59.095550537109375,79)" y="0" x="0" id="text-entity-User-818c511a-4a32-5484-ba70-875d765a9175-attr-3-name" class="er entityLabel">password</text><rect height="22" width="22.68768310546875" y="68" x="120.20893859863281" class="er attributeBoxOdd"/><text style="dominant-baseline: middle; font-size: 10.2px;" transform="translate(125.20893859863281,79)" y="0" x="0" id="text-entity-User-818c511a-4a32-5484-ba70-875d765a9175-attr-3-key" class="er entityLabel"/><rect height="22" width="54.095550537109375" y="90" x="0" class="er attributeBoxEven"/><text style="dominant-baseline: middle; font-size: 10.2px;" transform="translate(5,101)" y="0" x="0" id="text-entity-User-818c511a-4a32-5484-ba70-875d765a9175-attr-4-type" class="er entityLabel">DateTime</text><rect height="22" width="66.11338806152344" y="90" x="54.095550537109375" class="er attributeBoxEven"/><text style="dominant-baseline: middle; font-size: 10.2px;" transform="translate(59.095550537109375,101)" y="0" x="0" id="text-entity-User-818c511a-4a32-5484-ba70-875d765a9175-attr-4-name" class="er entityLabel">createdAt</text><rect height="22" width="22.68768310546875" y="90" x="120.20893859863281" class="er attributeBoxEven"/><text style="dominant-baseline: middle; font-size: 10.2px;" transform="translate(125.20893859863281,101)" y="0" x="0" id="text-entity-User-818c511a-4a32-5484-ba70-875d765a9175-attr-4-key" class="er entityLabel"/><rect height="22" width="54.095550537109375" y="112" x="0" class="er attributeBoxOdd"/><text style="dominant-baseline: middle; font-size: 10.2px;" transform="translate(5,123)" y="0" x="0" id="text-entity-User-818c511a-4a32-5484-ba70-875d765a9175-attr-5-type" class="er entityLabel">DateTime</text><rect height="22" width="66.11338806152344" y="112" x="54.095550537109375" class="er attributeBoxOdd"/><text style="dominant-baseline: middle; font-size: 10.2px;" transform="translate(59.095550537109375,123)" y="0" x="0" id="text-entity-User-818c511a-4a32-5484-ba70-875d765a9175-attr-5-name" class="er entityLabel">updatedAt</text><rect height="22" width="22.68768310546875" y="112" x="120.20893859863281" class="er attributeBoxOdd"/><text style="dominant-baseline: middle; font-size: 10.2px;" transform="translate(125.20893859863281,123)" y="0" x="0" id="text-entity-User-818c511a-4a32-5484-ba70-875d765a9175-attr-5-key" class="er entityLabel"/><rect height="22" width="54.095550537109375" y="134" x="0" class="er attributeBoxEven"/><text style="dominant-baseline: middle; font-size: 10.2px;" transform="translate(5,145)" y="0" x="0" id="text-entity-User-818c511a-4a32-5484-ba70-875d765a9175-attr-6-type" class="er entityLabel">String</text><rect height="22" width="66.11338806152344" y="134" x="54.095550537109375" class="er attributeBoxEven"/><text style="dominant-baseline: middle; font-size: 10.2px;" transform="translate(59.095550537109375,145)" y="0" x="0" id="text-entity-User-818c511a-4a32-5484-ba70-875d765a9175-attr-6-name" class="er entityLabel">accessToken</text><rect height="22" width="22.68768310546875" y="134" x="120.20893859863281" class="er attributeBoxEven"/><text style="dominant-baseline: middle; font-size: 10.2px;" transform="translate(125.20893859863281,145)" y="0" x="0" id="text-entity-User-818c511a-4a32-5484-ba70-875d765a9175-attr-6-key" class="er entityLabel"/></g><g transform="translate(418.6777648925781,276 )" id="entity-Project-c2395ed5-a5fa-58df-9cbe-a2926add311c"><rect height="68" width="100" y="0" x="0" class="er entityBox"/><text style="dominant-baseline: middle; text-anchor: middle; font-size: 12px;" transform="translate(50,12)" y="0" x="0" id="text-entity-Project-c2395ed5-a5fa-58df-9cbe-a2926add311c" class="er entityLabel">Project</text><rect height="22" width="38.90184020996094" y="24" x="0" class="er attributeBoxOdd"/><text style="dominant-baseline: middle; font-size: 10.2px;" transform="translate(5,35)" y="0" x="0" id="text-entity-Project-c2395ed5-a5fa-58df-9cbe-a2926add311c-attr-1-type" class="er entityLabel">String</text><rect height="22" width="36.904693603515625" y="24" x="38.90184020996094" class="er attributeBoxOdd"/><text style="dominant-baseline: middle; font-size: 10.2px;" transform="translate(43.90184020996094,35)" y="0" x="0" id="text-entity-Project-c2395ed5-a5fa-58df-9cbe-a2926add311c-attr-1-name" class="er entityLabel">id</text><rect height="22" width="24.193466186523438" y="24" x="75.80653381347656" class="er attributeBoxOdd"/><text style="dominant-baseline: middle; font-size: 10.2px;" transform="translate(80.80653381347656,35)" y="0" x="0" id="text-entity-Project-c2395ed5-a5fa-58df-9cbe-a2926add311c-attr-1-key" class="er entityLabel">PK</text><rect height="22" width="38.90184020996094" y="46" x="0" class="er attributeBoxEven"/><text style="dominant-baseline: middle; font-size: 10.2px;" transform="translate(5,57)" y="0" x="0" id="text-entity-Project-c2395ed5-a5fa-58df-9cbe-a2926add311c-attr-2-type" class="er entityLabel">String</text><rect height="22" width="36.904693603515625" y="46" x="38.90184020996094" class="er attributeBoxEven"/><text style="dominant-baseline: middle; font-size: 10.2px;" transform="translate(43.90184020996094,57)" y="0" x="0" id="text-entity-Project-c2395ed5-a5fa-58df-9cbe-a2926add311c-attr-2-name" class="er entityLabel">name</text><rect height="22" width="24.193466186523438" y="46" x="75.80653381347656" class="er attributeBoxEven"/><text style="dominant-baseline: middle; font-size: 10.2px;" transform="translate(80.80653381347656,57)" y="0" x="0" id="text-entity-Project-c2395ed5-a5fa-58df-9cbe-a2926add311c-attr-2-key" class="er entityLabel"/></g><g transform="translate(420,444 )" id="entity-Feature-4fad3d01-3517-571c-a342-eed3efd89186"><rect height="90" width="168.703125" y="0" x="0" class="er entityBox"/><text style="dominant-baseline: middle; text-anchor: middle; font-size: 12px;" transform="translate(84.3515625,12)" y="0" x="0" id="text-entity-Feature-4fad3d01-3517-571c-a342-eed3efd89186" class="er entityLabel">Feature</text><rect height="22" width="37.39605712890625" y="24" x="0" class="er attributeBoxOdd"/><text style="dominant-baseline: middle; font-size: 10.2px;" transform="translate(5,35)" y="0" x="0" id="text-entity-Feature-4fad3d01-3517-571c-a342-eed3efd89186-attr-1-type" class="er entityLabel">String</text><rect height="22" width="61.40684509277344" y="24" x="37.39605712890625" class="er attributeBoxOdd"/><text style="dominant-baseline: middle; font-size: 10.2px;" transform="translate(42.39605712890625,35)" y="0" x="0" id="text-entity-Feature-4fad3d01-3517-571c-a342-eed3efd89186-attr-1-name" class="er entityLabel">id</text><rect height="22" width="22.68768310546875" y="24" x="98.80290222167969" class="er attributeBoxOdd"/><text style="dominant-baseline: middle; font-size: 10.2px;" transform="translate(103.80290222167969,35)" y="0" x="0" id="text-entity-Feature-4fad3d01-3517-571c-a342-eed3efd89186-attr-1-key" class="er entityLabel">PK</text><rect height="22" width="47.21253967285156" y="24" x="121.49058532714844" class="er attributeBoxOdd"/><text style="dominant-baseline: middle; font-size: 10.2px;" transform="translate(126.49058532714844,35)" y="0" x="0" id="text-entity-Feature-4fad3d01-3517-571c-a342-eed3efd89186-attr-1-comment" class="er entityLabel"/><rect height="22" width="37.39605712890625" y="46" x="0" class="er attributeBoxEven"/><text style="dominant-baseline: middle; font-size: 10.2px;" transform="translate(5,57)" y="0" x="0" id="text-entity-Feature-4fad3d01-3517-571c-a342-eed3efd89186-attr-2-type" class="er entityLabel">String</text><rect height="22" width="61.40684509277344" y="46" x="37.39605712890625" class="er attributeBoxEven"/><text style="dominant-baseline: middle; font-size: 10.2px;" transform="translate(42.39605712890625,57)" y="0" x="0" id="text-entity-Feature-4fad3d01-3517-571c-a342-eed3efd89186-attr-2-name" class="er entityLabel">title</text><rect height="22" width="22.68768310546875" y="46" x="98.80290222167969" class="er attributeBoxEven"/><text style="dominant-baseline: middle; font-size: 10.2px;" transform="translate(103.80290222167969,57)" y="0" x="0" id="text-entity-Feature-4fad3d01-3517-571c-a342-eed3efd89186-attr-2-key" class="er entityLabel"/><rect height="22" width="47.21253967285156" y="46" x="121.49058532714844" class="er attributeBoxEven"/><text style="dominant-baseline: middle; font-size: 10.2px;" transform="translate(126.49058532714844,57)" y="0" x="0" id="text-entity-Feature-4fad3d01-3517-571c-a342-eed3efd89186-attr-2-comment" class="er entityLabel">nullable</text><rect height="22" width="37.39605712890625" y="68" x="0" class="er attributeBoxOdd"/><text style="dominant-baseline: middle; font-size: 10.2px;" transform="translate(5,79)" y="0" x="0" id="text-entity-Feature-4fad3d01-3517-571c-a342-eed3efd89186-attr-3-type" class="er entityLabel">String</text><rect height="22" width="61.40684509277344" y="68" x="37.39605712890625" class="er attributeBoxOdd"/><text style="dominant-baseline: middle; font-size: 10.2px;" transform="translate(42.39605712890625,79)" y="0" x="0" id="text-entity-Feature-4fad3d01-3517-571c-a342-eed3efd89186-attr-3-name" class="er entityLabel">description</text><rect height="22" width="22.68768310546875" y="68" x="98.80290222167969" class="er attributeBoxOdd"/><text style="dominant-baseline: middle; font-size: 10.2px;" transform="translate(103.80290222167969,79)" y="0" x="0" id="text-entity-Feature-4fad3d01-3517-571c-a342-eed3efd89186-attr-3-key" class="er entityLabel"/><rect height="22" width="47.21253967285156" y="68" x="121.49058532714844" class="er attributeBoxOdd"/><text style="dominant-baseline: middle; font-size: 10.2px;" transform="translate(126.49058532714844,79)" y="0" x="0" id="text-entity-Feature-4fad3d01-3517-571c-a342-eed3efd89186-attr-3-comment" class="er entityLabel">nullable</text></g><g transform="translate(440.82818603515625,634 )" id="entity-Scenario-c93c47a9-e6c7-5329-9f48-596f0b9a515d"><rect height="68" width="142.6951904296875" y="0" x="0" class="er entityBox"/><text style="dominant-baseline: middle; text-anchor: middle; font-size: 12px;" transform="translate(71.34759521484375,12)" y="0" x="0" id="text-entity-Scenario-c93c47a9-e6c7-5329-9f48-596f0b9a515d" class="er entityLabel">Scenario</text><rect height="22" width="37.39605712890625" y="24" x="0" class="er attributeBoxOdd"/><text style="dominant-baseline: middle; font-size: 10.2px;" transform="translate(5,35)" y="0" x="0" id="text-entity-Scenario-c93c47a9-e6c7-5329-9f48-596f0b9a515d-attr-1-type" class="er entityLabel">Int</text><rect height="22" width="35.39891052246094" y="24" x="37.39605712890625" class="er attributeBoxOdd"/><text style="dominant-baseline: middle; font-size: 10.2px;" transform="translate(42.39605712890625,35)" y="0" x="0" id="text-entity-Scenario-c93c47a9-e6c7-5329-9f48-596f0b9a515d-attr-1-name" class="er entityLabel">id</text><rect height="22" width="22.68768310546875" y="24" x="72.79496765136719" class="er attributeBoxOdd"/><text style="dominant-baseline: middle; font-size: 10.2px;" transform="translate(77.79496765136719,35)" y="0" x="0" id="text-entity-Scenario-c93c47a9-e6c7-5329-9f48-596f0b9a515d-attr-1-key" class="er entityLabel">PK</text><rect height="22" width="47.21253967285156" y="24" x="95.48265075683594" class="er attributeBoxOdd"/><text style="dominant-baseline: middle; font-size: 10.2px;" transform="translate(100.48265075683594,35)" y="0" x="0" id="text-entity-Scenario-c93c47a9-e6c7-5329-9f48-596f0b9a515d-attr-1-comment" class="er entityLabel"/><rect height="22" width="37.39605712890625" y="46" x="0" class="er attributeBoxEven"/><text style="dominant-baseline: middle; font-size: 10.2px;" transform="translate(5,57)" y="0" x="0" id="text-entity-Scenario-c93c47a9-e6c7-5329-9f48-596f0b9a515d-attr-2-type" class="er entityLabel">String</text><rect height="22" width="35.39891052246094" y="46" x="37.39605712890625" class="er attributeBoxEven"/><text style="dominant-baseline: middle; font-size: 10.2px;" transform="translate(42.39605712890625,57)" y="0" x="0" id="text-entity-Scenario-c93c47a9-e6c7-5329-9f48-596f0b9a515d-attr-2-name" class="er entityLabel">name</text><rect height="22" width="22.68768310546875" y="46" x="72.79496765136719" class="er attributeBoxEven"/><text style="dominant-baseline: middle; font-size: 10.2px;" transform="translate(77.79496765136719,57)" y="0" x="0" id="text-entity-Scenario-c93c47a9-e6c7-5329-9f48-596f0b9a515d-attr-2-key" class="er entityLabel"/><rect height="22" width="47.21253967285156" y="46" x="95.48265075683594" class="er attributeBoxEven"/><text style="dominant-baseline: middle; font-size: 10.2px;" transform="translate(100.48265075683594,57)" y="0" x="0" id="text-entity-Scenario-c93c47a9-e6c7-5329-9f48-596f0b9a515d-attr-2-comment" class="er entityLabel">nullable</text></g><g transform="translate(462.17578125,802 )" id="entity-Step-e219be1f-61cb-5c54-96b3-c2b2bab46dfc"><rect height="68" width="100" y="0" x="0" class="er entityBox"/><text style="dominant-baseline: middle; text-anchor: middle; font-size: 12px;" transform="translate(50,12)" y="0" x="0" id="text-entity-Step-e219be1f-61cb-5c54-96b3-c2b2bab46dfc" class="er entityLabel">Step</text><rect height="22" width="29.484156290690105" y="24" x="0" class="er attributeBoxOdd"/><text style="dominant-baseline: middle; font-size: 10.2px;" transform="translate(5,35)" y="0" x="0" id="text-entity-Step-e219be1f-61cb-5c54-96b3-c2b2bab46dfc-attr-1-type" class="er entityLabel">Int</text><rect height="22" width="41.7560068766276" y="24" x="29.484156290690105" class="er attributeBoxOdd"/><text style="dominant-baseline: middle; font-size: 10.2px;" transform="translate(34.48415629069011,35)" y="0" x="0" id="text-entity-Step-e219be1f-61cb-5c54-96b3-c2b2bab46dfc-attr-1-name" class="er entityLabel">id</text><rect height="22" width="28.759836832682293" y="24" x="71.2401631673177" class="er attributeBoxOdd"/><text style="dominant-baseline: middle; font-size: 10.2px;" transform="translate(76.2401631673177,35)" y="0" x="0" id="text-entity-Step-e219be1f-61cb-5c54-96b3-c2b2bab46dfc-attr-1-key" class="er entityLabel">PK</text><rect height="22" width="29.484156290690105" y="46" x="0" class="er attributeBoxEven"/><text style="dominant-baseline: middle; font-size: 10.2px;" transform="translate(5,57)" y="0" x="0" id="text-entity-Step-e219be1f-61cb-5c54-96b3-c2b2bab46dfc-attr-2-type" class="er entityLabel">Int</text><rect height="22" width="41.7560068766276" y="46" x="29.484156290690105" class="er attributeBoxEven"/><text style="dominant-baseline: middle; font-size: 10.2px;" transform="translate(34.48415629069011,57)" y="0" x="0" id="text-entity-Step-e219be1f-61cb-5c54-96b3-c2b2bab46dfc-attr-2-name" class="er entityLabel">order</text><rect height="22" width="28.759836832682293" y="46" x="71.2401631673177" class="er attributeBoxEven"/><text style="dominant-baseline: middle; font-size: 10.2px;" transform="translate(76.2401631673177,57)" y="0" x="0" id="text-entity-Step-e219be1f-61cb-5c54-96b3-c2b2bab46dfc-attr-2-key" class="er entityLabel"/></g><g transform="translate(704.3515625,992 )" id="entity-Behaviour-97a2395c-598e-5946-8da9-ce5730d44919"><rect height="68" width="100" y="0" x="0" class="er entityBox"/><text style="dominant-baseline: middle; text-anchor: middle; font-size: 12px;" transform="translate(50,12)" y="0" x="0" id="text-entity-Behaviour-97a2395c-598e-5946-8da9-ce5730d44919" class="er entityLabel">Behaviour</text><rect height="22" width="38.72290547688802" y="24" x="0" class="er attributeBoxOdd"/><text style="dominant-baseline: middle; font-size: 10.2px;" transform="translate(5,35)" y="0" x="0" id="text-entity-Behaviour-97a2395c-598e-5946-8da9-ce5730d44919-attr-1-type" class="er entityLabel">String</text><rect height="22" width="37.26256306966146" y="24" x="38.72290547688802" class="er attributeBoxOdd"/><text style="dominant-baseline: middle; font-size: 10.2px;" transform="translate(43.72290547688802,35)" y="0" x="0" id="text-entity-Behaviour-97a2395c-598e-5946-8da9-ce5730d44919-attr-1-name" class="er entityLabel">id</text><rect height="22" width="24.01453145345052" y="24" x="75.98546854654948" class="er attributeBoxOdd"/><text style="dominant-baseline: middle; font-size: 10.2px;" transform="translate(80.98546854654948,35)" y="0" x="0" id="text-entity-Behaviour-97a2395c-598e-5946-8da9-ce5730d44919-attr-1-key" class="er entityLabel">PK</text><rect height="22" width="38.72290547688802" y="46" x="0" class="er attributeBoxEven"/><text style="dominant-baseline: middle; font-size: 10.2px;" transform="translate(5,57)" y="0" x="0" id="text-entity-Behaviour-97a2395c-598e-5946-8da9-ce5730d44919-attr-2-type" class="er entityLabel">String</text><rect height="22" width="37.26256306966146" y="46" x="38.72290547688802" class="er attributeBoxEven"/><text style="dominant-baseline: middle; font-size: 10.2px;" transform="translate(43.72290547688802,57)" y="0" x="0" id="text-entity-Behaviour-97a2395c-598e-5946-8da9-ce5730d44919-attr-2-name" class="er entityLabel">value</text><rect height="22" width="24.01453145345052" y="46" x="75.98546854654948" class="er attributeBoxEven"/><text style="dominant-baseline: middle; font-size: 10.2px;" transform="translate(80.98546854654948,57)" y="0" x="0" id="text-entity-Behaviour-97a2395c-598e-5946-8da9-ce5730d44919-attr-2-key" class="er entityLabel"/></g><g transform="translate(20,970 )" id="entity-Param-e2866454-d78f-59a5-b770-d23bf52d1823"><rect height="112" width="100" y="0" x="0" class="er entityBox"/><text style="dominant-baseline: middle; text-anchor: middle; font-size: 12px;" transform="translate(50,12)" y="0" x="0" id="text-entity-Param-e2866454-d78f-59a5-b770-d23bf52d1823" class="er entityLabel">Param</text><rect height="22" width="38.72290547688802" y="24" x="0" class="er attributeBoxOdd"/><text style="dominant-baseline: middle; font-size: 10.2px;" transform="translate(5,35)" y="0" x="0" id="text-entity-Param-e2866454-d78f-59a5-b770-d23bf52d1823-attr-1-type" class="er entityLabel">Int</text><rect height="22" width="37.26256306966146" y="24" x="38.72290547688802" class="er attributeBoxOdd"/><text style="dominant-baseline: middle; font-size: 10.2px;" transform="translate(43.72290547688802,35)" y="0" x="0" id="text-entity-Param-e2866454-d78f-59a5-b770-d23bf52d1823-attr-1-name" class="er entityLabel">id</text><rect height="22" width="24.01453145345052" y="24" x="75.98546854654948" class="er attributeBoxOdd"/><text style="dominant-baseline: middle; font-size: 10.2px;" transform="translate(80.98546854654948,35)" y="0" x="0" id="text-entity-Param-e2866454-d78f-59a5-b770-d23bf52d1823-attr-1-key" class="er entityLabel">PK</text><rect height="22" width="38.72290547688802" y="46" x="0" class="er attributeBoxEven"/><text style="dominant-baseline: middle; font-size: 10.2px;" transform="translate(5,57)" y="0" x="0" id="text-entity-Param-e2866454-d78f-59a5-b770-d23bf52d1823-attr-2-type" class="er entityLabel">String</text><rect height="22" width="37.26256306966146" y="46" x="38.72290547688802" class="er attributeBoxEven"/><text style="dominant-baseline: middle; font-size: 10.2px;" transform="translate(43.72290547688802,57)" y="0" x="0" id="text-entity-Param-e2866454-d78f-59a5-b770-d23bf52d1823-attr-2-name" class="er entityLabel">name</text><rect height="22" width="24.01453145345052" y="46" x="75.98546854654948" class="er attributeBoxEven"/><text style="dominant-baseline: middle; font-size: 10.2px;" transform="translate(80.98546854654948,57)" y="0" x="0" id="text-entity-Param-e2866454-d78f-59a5-b770-d23bf52d1823-attr-2-key" class="er entityLabel"/><rect height="22" width="38.72290547688802" y="68" x="0" class="er attributeBoxOdd"/><text style="dominant-baseline: middle; font-size: 10.2px;" transform="translate(5,79)" y="0" x="0" id="text-entity-Param-e2866454-d78f-59a5-b770-d23bf52d1823-attr-3-type" class="er entityLabel">String</text><rect height="22" width="37.26256306966146" y="68" x="38.72290547688802" class="er attributeBoxOdd"/><text style="dominant-baseline: middle; font-size: 10.2px;" transform="translate(43.72290547688802,79)" y="0" x="0" id="text-entity-Param-e2866454-d78f-59a5-b770-d23bf52d1823-attr-3-name" class="er entityLabel">value</text><rect height="22" width="24.01453145345052" y="68" x="75.98546854654948" class="er attributeBoxOdd"/><text style="dominant-baseline: middle; font-size: 10.2px;" transform="translate(80.98546854654948,79)" y="0" x="0" id="text-entity-Param-e2866454-d78f-59a5-b770-d23bf52d1823-attr-3-key" class="er entityLabel"/><rect height="22" width="38.72290547688802" y="90" x="0" class="er attributeBoxEven"/><text style="dominant-baseline: middle; font-size: 10.2px;" transform="translate(5,101)" y="0" x="0" id="text-entity-Param-e2866454-d78f-59a5-b770-d23bf52d1823-attr-4-type" class="er entityLabel">String</text><rect height="22" width="37.26256306966146" y="90" x="38.72290547688802" class="er attributeBoxEven"/><text style="dominant-baseline: middle; font-size: 10.2px;" transform="translate(43.72290547688802,101)" y="0" x="0" id="text-entity-Param-e2866454-d78f-59a5-b770-d23bf52d1823-attr-4-name" class="er entityLabel">type</text><rect height="22" width="24.01453145345052" y="90" x="75.98546854654948" class="er attributeBoxEven"/><text style="dominant-baseline: middle; font-size: 10.2px;" transform="translate(80.98546854654948,101)" y="0" x="0" id="text-entity-Param-e2866454-d78f-59a5-b770-d23bf52d1823-attr-4-key" class="er entityLabel"/></g><rect height="14" width="44.43359375" y="220.5394287109375" x="488.0648193359375" class="er relationshipLabelBox"/><text style="text-anchor: middle; dominant-baseline: middle; font-size: 12px;" y="227.5394287109375" x="510.2816162109375" id="rel1" class="er relationshipLabel">projects</text><rect height="14" width="27.623046875" y="220.53941345214844" x="413.26239013671875" class="er relationshipLabelBox"/><text style="text-anchor: middle; dominant-baseline: middle; font-size: 12px;" y="227.53941345214844" x="427.07391357421875" id="rel2" class="er relationshipLabel">users</text><rect height="14" width="44.80859375" y="381.4855041503906" x="523.5358276367188" class="er relationshipLabelBox"/><text style="text-anchor: middle; dominant-baseline: middle; font-size: 12px;" y="388.4855041503906" x="545.9401245117188" id="rel3" class="er relationshipLabel">features</text><rect height="14" width="58.05078125" y="522.945068359375" x="975.326171875" class="er relationshipLabelBox"/><text style="text-anchor: middle; dominant-baseline: middle; font-size: 12px;" y="529.945068359375" x="1004.3515625" id="rel4" class="er relationshipLabel">behaviours</text><rect height="14" width="33.958984375" y="698.7091064453125" x="303.0205078125" class="er relationshipLabelBox"/><text style="text-anchor: middle; dominant-baseline: middle; font-size: 12px;" y="705.7091064453125" x="320" id="rel5" class="er relationshipLabel">param</text><rect height="14" width="49.73046875" y="576.9559936523438" x="532.564208984375" class="er relationshipLabelBox"/><text style="text-anchor: middle; dominant-baseline: middle; font-size: 12px;" y="583.9559936523438" x="557.429443359375" id="rel6" class="er relationshipLabel">scenarios</text><rect height="14" width="38.919921875" y="706.437255859375" x="200.5400390625" class="er relationshipLabelBox"/><text style="text-anchor: middle; dominant-baseline: middle; font-size: 12px;" y="713.437255859375" x="220" id="rel7" class="er relationshipLabel">params</text><rect height="14" width="39.67578125" y="388.5054626464844" x="446.97021484375" class="er relationshipLabelBox"/><text style="text-anchor: middle; dominant-baseline: middle; font-size: 12px;" y="395.5054626464844" x="466.80810546875" id="rel8" class="er relationshipLabel">project</text><rect height="14" width="27.845703125" y="745" x="543.544189453125" class="er relationshipLabelBox"/><text style="text-anchor: middle; dominant-baseline: middle; font-size: 12px;" y="752" x="557.467041015625" id="rel9" class="er relationshipLabel">steps</text><rect height="14" width="40.263671875" y="577.9882202148438" x="456.0697326660156" class="er relationshipLabelBox"/><text style="text-anchor: middle; dominant-baseline: middle; font-size: 12px;" y="584.9882202148438" x="476.2015686035156" id="rel10" class="er relationshipLabel">feature</text><rect height="14" width="38.919921875" y="882.4403076171875" x="250.08416748046875" class="er relationshipLabelBox"/><text style="text-anchor: middle; dominant-baseline: middle; font-size: 12px;" y="889.4403076171875" x="269.54412841796875" id="rel11" class="er relationshipLabel">params</text><rect height="14" width="54.38671875" y="882.1900634765625" x="720.0302734375" class="er relationshipLabelBox"/><text style="text-anchor: middle; dominant-baseline: middle; font-size: 12px;" y="889.1900634765625" x="747.2236328125" id="rel12" class="er relationshipLabel">behaviour</text><rect height="14" width="45.291015625" y="745" x="449.4508972167969" class="er relationshipLabelBox"/><text style="text-anchor: middle; dominant-baseline: middle; font-size: 12px;" y="752" x="472.0964050292969" id="rel13" class="er relationshipLabel">scenario</text><rect height="14" width="90.005859375" y="886.5184936523438" x="656.5648193359375" class="er relationshipLabelBox"/><text style="text-anchor: middle; dominant-baseline: middle; font-size: 12px;" y="893.5184936523438" x="701.5677490234375" id="rel14" class="er relationshipLabel">parentBehaviour</text><rect height="14" width="39.67578125" y="601.3082275390625" x="684.513671875" class="er relationshipLabelBox"/><text style="text-anchor: middle; dominant-baseline: middle; font-size: 12px;" y="608.3082275390625" x="704.3515625" id="rel15" class="er relationshipLabel">project</text><rect height="14" width="27.845703125" y="935.8886108398438" x="598.2510986328125" class="er relationshipLabelBox"/><text style="text-anchor: middle; dominant-baseline: middle; font-size: 12px;" y="942.8886108398438" x="612.1739501953125" id="rel16" class="er relationshipLabel">steps</text><rect height="14" width="46.859375" y="951.04296875" x="548.686279296875" class="er relationshipLabelBox"/><text style="text-anchor: middle; dominant-baseline: middle; font-size: 12px;" y="958.04296875" x="572.115966796875" id="rel17" class="er relationshipLabel">subSteps</text><rect height="14" width="27.845703125" y="877.8359375" x="219.71530151367188" class="er relationshipLabelBox"/><text style="text-anchor: middle; dominant-baseline: middle; font-size: 12px;" y="884.8359375" x="233.63815307617188" id="rel18" class="er relationshipLabel">steps</text><rect height="14" width="40.263671875" y="589.7674560546875" x="-48.71445083618164" class="er relationshipLabelBox"/><text style="text-anchor: middle; dominant-baseline: middle; font-size: 12px;" y="596.7674560546875" x="-28.58261489868164" id="rel19" class="er relationshipLabel">feature</text><rect height="14" width="39.67578125" y="468.87384033203125" x="-199.57408142089844" class="er relationshipLabelBox"/><text style="text-anchor: middle; dominant-baseline: middle; font-size: 12px;" y="475.87384033203125" x="-179.73619079589844" id="rel20" class="er relationshipLabel">project</text></svg>