<svg aria-roledescription="er" role="graphics-document document" viewBox="-113.62985229492188 0 1060.5693359375 1102" style="max-width: 1060.57px; background-color: white;" xmlns:xlink="http://www.w3.org/1999/xlink" xmlns="http://www.w3.org/2000/svg" width="100%" id="mermaid-0"><style>#mermaid-0{font-family:"trebuchet ms",verdana,arial,sans-serif;font-size:16px;fill:#000000;}#mermaid-0 .error-icon{fill:#552222;}#mermaid-0 .error-text{fill:#552222;stroke:#552222;}#mermaid-0 .edge-thickness-normal{stroke-width:2px;}#mermaid-0 .edge-thickness-thick{stroke-width:3.5px;}#mermaid-0 .edge-pattern-solid{stroke-dasharray:0;}#mermaid-0 .edge-pattern-dashed{stroke-dasharray:3;}#mermaid-0 .edge-pattern-dotted{stroke-dasharray:2;}#mermaid-0 .marker{fill:#000000;stroke:#000000;}#mermaid-0 .marker.cross{stroke:#000000;}#mermaid-0 svg{font-family:"trebuchet ms",verdana,arial,sans-serif;font-size:16px;}#mermaid-0 .entityBox{fill:#cde498;stroke:#13540c;}#mermaid-0 .attributeBoxOdd{fill:#ffffff;stroke:#13540c;}#mermaid-0 .attributeBoxEven{fill:#f2f2f2;stroke:#13540c;}#mermaid-0 .relationshipLabelBox{fill:hsl(78.1578947368, 58.4615384615%, 84.5098039216%);opacity:0.7;background-color:hsl(78.1578947368, 58.4615384615%, 84.5098039216%);}#mermaid-0 .relationshipLabelBox rect{opacity:0.5;}#mermaid-0 .relationshipLine{stroke:#000000;}#mermaid-0 .entityTitleText{text-anchor:middle;font-size:18px;fill:#000000;}#mermaid-0 :root{--mermaid-font-family:"trebuchet ms",verdana,arial,sans-serif;}</style><g/><defs><marker orient="auto" markerHeight="18" markerWidth="18" refY="9" refX="0" id="ONLY_ONE_START"><path d="M9,0 L9,18 M15,0 L15,18" fill="none" stroke="gray"/></marker></defs><defs><marker orient="auto" markerHeight="18" markerWidth="18" refY="9" refX="18" id="ONLY_ONE_END"><path d="M3,0 L3,18 M9,0 L9,18" fill="none" stroke="gray"/></marker></defs><defs><marker orient="auto" markerHeight="18" markerWidth="30" refY="9" refX="0" id="ZERO_OR_ONE_START"><circle r="6" cy="9" cx="21" fill="white" stroke="gray"/><path d="M9,0 L9,18" fill="none" stroke="gray"/></marker></defs><defs><marker orient="auto" markerHeight="18" markerWidth="30" refY="9" refX="30" id="ZERO_OR_ONE_END"><circle r="6" cy="9" cx="9" fill="white" stroke="gray"/><path d="M21,0 L21,18" fill="none" stroke="gray"/></marker></defs><defs><marker orient="auto" markerHeight="36" markerWidth="45" refY="18" refX="18" id="ONE_OR_MORE_START"><path d="M0,18 Q 18,0 36,18 Q 18,36 0,18 M42,9 L42,27" fill="none" stroke="gray"/></marker></defs><defs><marker orient="auto" markerHeight="36" markerWidth="45" refY="18" refX="27" id="ONE_OR_MORE_END"><path d="M3,9 L3,27 M9,18 Q27,0 45,18 Q27,36 9,18" fill="none" stroke="gray"/></marker></defs><defs><marker orient="auto" markerHeight="36" markerWidth="57" refY="18" refX="18" id="ZERO_OR_MORE_START"><circle r="6" cy="18" cx="48" fill="white" stroke="gray"/><path d="M0,18 Q18,0 36,18 Q18,36 0,18" fill="none" stroke="gray"/></marker></defs><defs><marker orient="auto" markerHeight="36" markerWidth="57" refY="18" refX="39" id="ZERO_OR_MORE_END"><circle r="6" cy="18" cx="9" fill="white" stroke="gray"/><path d="M21,18 Q39,0 57,18 Q39,36 21,18" fill="none" stroke="gray"/></marker></defs><path style="stroke: gray; fill: none;" marker-start="url(#ZERO_OR_MORE_START)" marker-end="url(#ZERO_OR_MORE_END)" d="M492.64453125,176L495.8997395833333,184.33333333333334C499.1549479166667,192.66666666666666,505.6653645833333,209.33333333333334,503.9602554563492,226C502.25514632936506,242.66666666666666,492.3345114087301,259.3333333333333,487.3741939484127,267.6666666666667L482.41387648809524,276" class="er relationshipLine"/><path style="stroke: gray; fill: none;" marker-start="url(#ZERO_OR_MORE_START)" marker-end="url(#ZERO_OR_MORE_END)" d="M441.93768601190476,276L436.9773685515873,267.6666666666667C432.0170510912699,259.3333333333333,422.09641617063494,242.66666666666666,420.3913070436508,226C418.6861979166667,209.33333333333334,425.1966145833333,192.66666666666666,428.4518229166667,184.33333333333334L431.70703125,176" class="er relationshipLine"/><path style="stroke: gray; fill: none;" marker-start="url(#ZERO_OR_MORE_START)" marker-end="url(#ZERO_OR_MORE_END)" d="M424.8665364583333,344L415.72211371527777,352.3333333333333C406.5776909722222,360.6666666666667,388.2888454861111,377.3333333333333,370.9428423608256,394C353.59683923554,410.6666666666667,337.19367847108003,427.3333333333333,328.99209808885,435.6666666666667L320.79051770662005,444" class="er relationshipLine"/><path style="stroke: gray; fill: none;" marker-start="url(#ZERO_OR_MORE_START)" marker-end="url(#ZERO_OR_MORE_END)" d="M512.17578125,319.64024006737384L576.4547475179037,332.0335333894782C640.7337137858073,344.4268267115826,769.2916463216146,369.21341335579126,833.5706125895182,397.440040011229C897.8495788574219,425.6666666666667,897.8495788574219,457.3333333333333,897.8495788574219,489C897.8495788574219,520.6666666666666,897.8495788574219,552.3333333333334,897.8495788574219,582.1666666666666C897.8495788574219,612,897.8495788574219,640,897.8495788574219,668C897.8495788574219,696,897.8495788574219,724,897.8495788574219,752C897.8495788574219,780,897.8495788574219,808,897.8495788574219,836C897.8495788574219,864,897.8495788574219,892,864.5162455240885,920.1333333333333C831.1829121907552,948.2666666666668,764.5162455240885,976.5333333333333,731.1829121907552,990.6666666666666L697.8495788574219,1004.8" class="er relationshipLine"/><path style="stroke: gray; fill: none;" marker-start="url(#ZERO_OR_MORE_START)" marker-end="url(#ZERO_OR_MORE_END)" d="M360.8535461425781,532.1584776137507L377.74058532714844,540.7987313447923C394.62762451171875,549.4389850758338,428.4017028808594,566.7194925379168,439.68338654533267,583.6930796022917C450.9650702098059,600.6666666666666,439.75435916961186,617.3333333333334,434.1490036495148,625.6666666666666L428.54364812941776,634" class="er relationshipLine"/><path style="stroke: gray; fill: none;" marker-start="url(#ZERO_OR_MORE_START)" marker-end="url(#ZERO_OR_MORE_END)" d="M252.81777311626234,534L248.43180820398163,542.3333333333334C244.04584329170095,550.6666666666666,235.27391346713952,567.3333333333334,230.8879485548588,589.6666666666666C226.50198364257812,612,226.50198364257812,640,226.50198364257812,668C226.50198364257812,696,226.50198364257812,724,226.50198364257812,752C226.50198364257812,780,226.50198364257812,808,226.50198364257812,836C226.50198364257812,864,226.50198364257812,892,208.75165303548178,918.0224357580623C191.0013224283854,944.0448715161247,155.50066121419272,968.0897430322493,137.75033060709634,980.1121787903116L120,992.1346145483739" class="er relationshipLine"/><path style="stroke: gray; fill: none;" marker-start="url(#ZERO_OR_MORE_START)" marker-end="url(#ONLY_ONE_END)" d="M252.81777311626234,444L248.43180820398163,435.6666666666667C244.04584329170095,427.3333333333333,235.27391346713952,410.6666666666667,261.83358148942915,391.3035404887594C288.39324951171875,371.9404143108521,350.2845153808594,349.88082862170427,381.2301483154297,338.85103577713033L412.17578125,327.8212429325564" class="er relationshipLine"/><path style="stroke: gray; fill: none;" marker-start="url(#ZERO_OR_MORE_START)" marker-end="url(#ZERO_OR_MORE_END)" d="M428.54364812941776,702L434.1490036495148,710.3333333333334C439.75435916961186,718.6666666666666,450.9650702098059,735.3333333333334,450.9650702098059,752C450.9650702098059,768.6666666666666,439.75435916961186,785.3333333333334,434.1490036495148,793.6666666666666L428.54364812941776,802" class="er relationshipLine"/><path style="stroke: gray; fill: none;" marker-start="url(#ZERO_OR_MORE_START)" marker-end="url(#ONLY_ONE_END)" d="M388.0674576532273,634L383.7521782526894,625.6666666666666C379.4368988521515,617.3333333333334,370.8063400510758,600.6666666666666,358.9758152463781,584C347.1452904416804,567.3333333333334,332.11479963336075,550.6666666666666,324.599554229201,542.3333333333334L317.08430882504115,534" class="er relationshipLine"/><path style="stroke: gray; fill: none;" marker-start="url(#ZERO_OR_MORE_START)" marker-end="url(#ZERO_OR_MORE_END)" d="M355.6737976074219,851.0444987276865L317.47849527994794,862.537082273072C279.28319295247394,874.0296658184576,202.89258829752603,897.0148329092289,160.25530612393746,916.8407497879476C117.61802395034886,936.6666666666666,108.73406425811959,953.3333333333334,104.29208441200495,961.6666666666666L99.85010456589033,970" class="er relationshipLine"/><path style="stroke: gray; fill: none;" marker-start="url(#ZERO_OR_MORE_START)" marker-end="url(#ONLY_ONE_END)" d="M455.6737976074219,846.7094833510962L512.7030944824219,858.9245694592469C569.7323913574219,871.1396555673974,683.7909851074219,895.5698277836988,723.8391499069502,919.7849138918494C763.8873147064784,944,729.9250505555351,968,712.9439184800634,980L695.9627864045917,992" class="er relationshipLine"/><path style="stroke: gray; fill: none;" marker-start="url(#ZERO_OR_MORE_START)" marker-end="url(#ZERO_OR_ONE_END)" d="M388.0674576532273,802L383.7521782526894,793.6666666666666C379.4368988521515,785.3333333333334,370.8063400510758,768.6666666666666,370.8063400510758,752C370.8063400510758,735.3333333333334,379.4368988521515,718.6666666666666,383.7521782526894,710.3333333333334L388.0674576532273,702" class="er relationshipLine"/><path style="stroke: gray; fill: none;" marker-start="url(#ZERO_OR_MORE_START)" marker-end="url(#ZERO_OR_ONE_END)" d="M455.6737976074219,850.3749080845488L496.0364278157552,861.9790900704573C536.3990580240885,873.5832720563658,617.1243184407552,896.7916360281829,651.826571290598,920.3958180140916C686.5288241404409,944,675.2080694234596,968,669.547692064969,980L663.8873147064785,992" class="er relationshipLine"/><path style="stroke: gray; fill: none;" marker-start="url(#ZERO_OR_MORE_START)" marker-end="url(#ZERO_OR_ONE_END)" d="M631.8118430083653,992L626.1514656498747,980C620.4910882913841,968,609.170333574403,944,603.5099562159124,918C597.8495788574219,892,597.8495788574219,864,597.8495788574219,836C597.8495788574219,808,597.8495788574219,780,597.8495788574219,752C597.8495788574219,724,597.8495788574219,696,597.8495788574219,668C597.8495788574219,640,597.8495788574219,612,597.8495788574219,582.1666666666666C597.8495788574219,552.3333333333334,597.8495788574219,520.6666666666666,597.8495788574219,489C597.8495788574219,457.3333333333333,597.8495788574219,425.6666666666667,583.5706125895182,400.99276730175137C569.2916463216146,376.31886793683594,540.7337137858073,358.63773587367194,526.4547475179037,349.79716984208994L512.17578125,340.95660381050794" class="er relationshipLine"/><path style="stroke: gray; fill: none;" marker-start="url(#ZERO_OR_MORE_START)" marker-end="url(#ZERO_OR_MORE_END)" d="M597.8495788574219,997.4553153525409L575.2372792561849,984.5460961271174C552.6249796549479,971.6368769016939,507.40038045247394,945.8184384508469,479.1827253311399,924.5758858920902C450.9650702098059,903.3333333333334,439.75435916961186,886.6666666666666,434.1490036495148,878.3333333333334L428.54364812941776,870" class="er relationshipLine"/><path style="stroke: gray; fill: none;" marker-start="url(#ZERO_OR_MORE_START)" marker-end="url(#ZERO_OR_MORE_END)" d="M597.8495788574219,1007.4473709371016L558.5706125895182,992.8728091142513C519.2916463216146,978.298247291401,440.7337137858073,949.1491236457005,405.77002691844154,926.2412284895169C370.8063400510758,903.3333333333334,379.4368988521515,886.6666666666666,383.7521782526894,878.3333333333334L388.0674576532273,870" class="er relationshipLine"/><path style="stroke: gray; fill: none;" marker-start="url(#ZERO_OR_MORE_START)" marker-end="url(#ZERO_OR_MORE_END)" d="M47.01991588664505,970L43.600260512633895,961.6666666666666C40.180605138622745,953.3333333333334,33.34129439060043,936.6666666666666,84.7836080107299,916.1794621177501C136.22592163085938,895.6922575688335,245.94985961914062,871.3845151376669,300.81182861328125,859.2306439220837L355.6737976074219,847.0767727065004" class="er relationshipLine"/><path style="stroke: gray; fill: none;" marker-start="url(#ZERO_OR_MORE_START)" marker-end="url(#ONLY_ONE_END)" d="M20,989.0656915368163L4.4169972737630205,977.5547429473469C-11.166005452473959,966.0437943578776,-42.332010904947914,943.0218971789387,-57.9150136311849,917.5109485894694C-73.49801635742188,892,-73.49801635742188,864,-73.49801635742188,836C-73.49801635742188,808,-73.49801635742188,780,-73.49801635742188,752C-73.49801635742188,724,-73.49801635742188,696,-73.49801635742188,668C-73.49801635742188,640,-73.49801635742188,612,-29.223276774088543,585.9825706845238C15.051462809244791,559.9651413690476,103.60094197591145,535.9302827380952,147.87568155924478,523.912853422619L192.15042114257812,511.89542410714284" class="er relationshipLine"/><g transform="translate(390.7274703979492,20 )" id="entity-User-818c511a-4a32-5484-ba70-875d765a9175"><rect height="156" width="142.89662170410156" y="0" x="0" class="er entityBox"/><text style="dominant-baseline: middle; text-anchor: middle; font-size: 12px;" transform="translate(71.44831085205078,12)" y="0" x="0" id="text-entity-User-818c511a-4a32-5484-ba70-875d765a9175" class="er entityLabel">User</text><rect height="22" width="54.095550537109375" y="24" x="0" class="er attributeBoxOdd"/><text style="dominant-baseline: middle; font-size: 10.2px;" transform="translate(5,35)" y="0" x="0" id="text-entity-User-818c511a-4a32-5484-ba70-875d765a9175-attr-1-type" class="er entityLabel">String</text><rect height="22" width="66.11338806152344" y="24" x="54.095550537109375" class="er attributeBoxOdd"/><text style="dominant-baseline: middle; font-size: 10.2px;" transform="translate(59.095550537109375,35)" y="0" x="0" id="text-entity-User-818c511a-4a32-5484-ba70-875d765a9175-attr-1-name" class="er entityLabel">id</text><rect height="22" width="22.68768310546875" y="24" x="120.20893859863281" class="er attributeBoxOdd"/><text style="dominant-baseline: middle; font-size: 10.2px;" transform="translate(125.20893859863281,35)" y="0" x="0" id="text-entity-User-818c511a-4a32-5484-ba70-875d765a9175-attr-1-key" class="er entityLabel">PK</text><rect height="22" width="54.095550537109375" y="46" x="0" class="er attributeBoxEven"/><text style="dominant-baseline: middle; font-size: 10.2px;" transform="translate(5,57)" y="0" x="0" id="text-entity-User-818c511a-4a32-5484-ba70-875d765a9175-attr-2-type" class="er entityLabel">String</text><rect height="22" width="66.11338806152344" y="46" x="54.095550537109375" class="er attributeBoxEven"/><text style="dominant-baseline: middle; font-size: 10.2px;" transform="translate(59.095550537109375,57)" y="0" x="0" id="text-entity-User-818c511a-4a32-5484-ba70-875d765a9175-attr-2-name" class="er entityLabel">username</text><rect height="22" width="22.68768310546875" y="46" x="120.20893859863281" class="er attributeBoxEven"/><text style="dominant-baseline: middle; font-size: 10.2px;" transform="translate(125.20893859863281,57)" y="0" x="0" id="text-entity-User-818c511a-4a32-5484-ba70-875d765a9175-attr-2-key" class="er entityLabel"/><rect height="22" width="54.095550537109375" y="68" x="0" class="er attributeBoxOdd"/><text style="dominant-baseline: middle; font-size: 10.2px;" transform="translate(5,79)" y="0" x="0" id="text-entity-User-818c511a-4a32-5484-ba70-875d765a9175-attr-3-type" class="er entityLabel">String</text><rect height="22" width="66.11338806152344" y="68" x="54.095550537109375" class="er attributeBoxOdd"/><text style="dominant-baseline: middle; font-size: 10.2px;" transform="translate(59.095550537109375,79)" y="0" x="0" id="text-entity-User-818c511a-4a32-5484-ba70-875d765a9175-attr-3-name" class="er entityLabel">password</text><rect height="22" width="22.68768310546875" y="68" x="120.20893859863281" class="er attributeBoxOdd"/><text style="dominant-baseline: middle; font-size: 10.2px;" transform="translate(125.20893859863281,79)" y="0" x="0" id="text-entity-User-818c511a-4a32-5484-ba70-875d765a9175-attr-3-key" class="er entityLabel"/><rect height="22" width="54.095550537109375" y="90" x="0" class="er attributeBoxEven"/><text style="dominant-baseline: middle; font-size: 10.2px;" transform="translate(5,101)" y="0" x="0" id="text-entity-User-818c511a-4a32-5484-ba70-875d765a9175-attr-4-type" class="er entityLabel">DateTime</text><rect height="22" width="66.11338806152344" y="90" x="54.095550537109375" class="er attributeBoxEven"/><text style="dominant-baseline: middle; font-size: 10.2px;" transform="translate(59.095550537109375,101)" y="0" x="0" id="text-entity-User-818c511a-4a32-5484-ba70-875d765a9175-attr-4-name" class="er entityLabel">createdAt</text><rect height="22" width="22.68768310546875" y="90" x="120.20893859863281" class="er attributeBoxEven"/><text style="dominant-baseline: middle; font-size: 10.2px;" transform="translate(125.20893859863281,101)" y="0" x="0" id="text-entity-User-818c511a-4a32-5484-ba70-875d765a9175-attr-4-key" class="er entityLabel"/><rect height="22" width="54.095550537109375" y="112" x="0" class="er attributeBoxOdd"/><text style="dominant-baseline: middle; font-size: 10.2px;" transform="translate(5,123)" y="0" x="0" id="text-entity-User-818c511a-4a32-5484-ba70-875d765a9175-attr-5-type" class="er entityLabel">DateTime</text><rect height="22" width="66.11338806152344" y="112" x="54.095550537109375" class="er attributeBoxOdd"/><text style="dominant-baseline: middle; font-size: 10.2px;" transform="translate(59.095550537109375,123)" y="0" x="0" id="text-entity-User-818c511a-4a32-5484-ba70-875d765a9175-attr-5-name" class="er entityLabel">updatedAt</text><rect height="22" width="22.68768310546875" y="112" x="120.20893859863281" class="er attributeBoxOdd"/><text style="dominant-baseline: middle; font-size: 10.2px;" transform="translate(125.20893859863281,123)" y="0" x="0" id="text-entity-User-818c511a-4a32-5484-ba70-875d765a9175-attr-5-key" class="er entityLabel"/><rect height="22" width="54.095550537109375" y="134" x="0" class="er attributeBoxEven"/><text style="dominant-baseline: middle; font-size: 10.2px;" transform="translate(5,145)" y="0" x="0" id="text-entity-User-818c511a-4a32-5484-ba70-875d765a9175-attr-6-type" class="er entityLabel">String</text><rect height="22" width="66.11338806152344" y="134" x="54.095550537109375" class="er attributeBoxEven"/><text style="dominant-baseline: middle; font-size: 10.2px;" transform="translate(59.095550537109375,145)" y="0" x="0" id="text-entity-User-818c511a-4a32-5484-ba70-875d765a9175-attr-6-name" class="er entityLabel">accessToken</text><rect height="22" width="22.68768310546875" y="134" x="120.20893859863281" class="er attributeBoxEven"/><text style="dominant-baseline: middle; font-size: 10.2px;" transform="translate(125.20893859863281,145)" y="0" x="0" id="text-entity-User-818c511a-4a32-5484-ba70-875d765a9175-attr-6-key" class="er entityLabel"/></g><g transform="translate(412.17578125,276 )" id="entity-Project-c2395ed5-a5fa-58df-9cbe-a2926add311c"><rect height="68" width="100" y="0" x="0" class="er entityBox"/><text style="dominant-baseline: middle; text-anchor: middle; font-size: 12px;" transform="translate(50,12)" y="0" x="0" id="text-entity-Project-c2395ed5-a5fa-58df-9cbe-a2926add311c" class="er entityLabel">Project</text><rect height="22" width="38.90184020996094" y="24" x="0" class="er attributeBoxOdd"/><text style="dominant-baseline: middle; font-size: 10.2px;" transform="translate(5,35)" y="0" x="0" id="text-entity-Project-c2395ed5-a5fa-58df-9cbe-a2926add311c-attr-1-type" class="er entityLabel">String</text><rect height="22" width="36.904693603515625" y="24" x="38.90184020996094" class="er attributeBoxOdd"/><text style="dominant-baseline: middle; font-size: 10.2px;" transform="translate(43.90184020996094,35)" y="0" x="0" id="text-entity-Project-c2395ed5-a5fa-58df-9cbe-a2926add311c-attr-1-name" class="er entityLabel">id</text><rect height="22" width="24.193466186523438" y="24" x="75.80653381347656" class="er attributeBoxOdd"/><text style="dominant-baseline: middle; font-size: 10.2px;" transform="translate(80.80653381347656,35)" y="0" x="0" id="text-entity-Project-c2395ed5-a5fa-58df-9cbe-a2926add311c-attr-1-key" class="er entityLabel">PK</text><rect height="22" width="38.90184020996094" y="46" x="0" class="er attributeBoxEven"/><text style="dominant-baseline: middle; font-size: 10.2px;" transform="translate(5,57)" y="0" x="0" id="text-entity-Project-c2395ed5-a5fa-58df-9cbe-a2926add311c-attr-2-type" class="er entityLabel">String</text><rect height="22" width="36.904693603515625" y="46" x="38.90184020996094" class="er attributeBoxEven"/><text style="dominant-baseline: middle; font-size: 10.2px;" transform="translate(43.90184020996094,57)" y="0" x="0" id="text-entity-Project-c2395ed5-a5fa-58df-9cbe-a2926add311c-attr-2-name" class="er entityLabel">name</text><rect height="22" width="24.193466186523438" y="46" x="75.80653381347656" class="er attributeBoxEven"/><text style="dominant-baseline: middle; font-size: 10.2px;" transform="translate(80.80653381347656,57)" y="0" x="0" id="text-entity-Project-c2395ed5-a5fa-58df-9cbe-a2926add311c-attr-2-key" class="er entityLabel"/></g><g transform="translate(192.15042114257812,444 )" id="entity-Feature-4fad3d01-3517-571c-a342-eed3efd89186"><rect height="90" width="168.703125" y="0" x="0" class="er entityBox"/><text style="dominant-baseline: middle; text-anchor: middle; font-size: 12px;" transform="translate(84.3515625,12)" y="0" x="0" id="text-entity-Feature-4fad3d01-3517-571c-a342-eed3efd89186" class="er entityLabel">Feature</text><rect height="22" width="37.39605712890625" y="24" x="0" class="er attributeBoxOdd"/><text style="dominant-baseline: middle; font-size: 10.2px;" transform="translate(5,35)" y="0" x="0" id="text-entity-Feature-4fad3d01-3517-571c-a342-eed3efd89186-attr-1-type" class="er entityLabel">String</text><rect height="22" width="61.40684509277344" y="24" x="37.39605712890625" class="er attributeBoxOdd"/><text style="dominant-baseline: middle; font-size: 10.2px;" transform="translate(42.39605712890625,35)" y="0" x="0" id="text-entity-Feature-4fad3d01-3517-571c-a342-eed3efd89186-attr-1-name" class="er entityLabel">id</text><rect height="22" width="22.68768310546875" y="24" x="98.80290222167969" class="er attributeBoxOdd"/><text style="dominant-baseline: middle; font-size: 10.2px;" transform="translate(103.80290222167969,35)" y="0" x="0" id="text-entity-Feature-4fad3d01-3517-571c-a342-eed3efd89186-attr-1-key" class="er entityLabel">PK</text><rect height="22" width="47.21253967285156" y="24" x="121.49058532714844" class="er attributeBoxOdd"/><text style="dominant-baseline: middle; font-size: 10.2px;" transform="translate(126.49058532714844,35)" y="0" x="0" id="text-entity-Feature-4fad3d01-3517-571c-a342-eed3efd89186-attr-1-comment" class="er entityLabel"/><rect height="22" width="37.39605712890625" y="46" x="0" class="er attributeBoxEven"/><text style="dominant-baseline: middle; font-size: 10.2px;" transform="translate(5,57)" y="0" x="0" id="text-entity-Feature-4fad3d01-3517-571c-a342-eed3efd89186-attr-2-type" class="er entityLabel">String</text><rect height="22" width="61.40684509277344" y="46" x="37.39605712890625" class="er attributeBoxEven"/><text style="dominant-baseline: middle; font-size: 10.2px;" transform="translate(42.39605712890625,57)" y="0" x="0" id="text-entity-Feature-4fad3d01-3517-571c-a342-eed3efd89186-attr-2-name" class="er entityLabel">title</text><rect height="22" width="22.68768310546875" y="46" x="98.80290222167969" class="er attributeBoxEven"/><text style="dominant-baseline: middle; font-size: 10.2px;" transform="translate(103.80290222167969,57)" y="0" x="0" id="text-entity-Feature-4fad3d01-3517-571c-a342-eed3efd89186-attr-2-key" class="er entityLabel"/><rect height="22" width="47.21253967285156" y="46" x="121.49058532714844" class="er attributeBoxEven"/><text style="dominant-baseline: middle; font-size: 10.2px;" transform="translate(126.49058532714844,57)" y="0" x="0" id="text-entity-Feature-4fad3d01-3517-571c-a342-eed3efd89186-attr-2-comment" class="er entityLabel">nullable</text><rect height="22" width="37.39605712890625" y="68" x="0" class="er attributeBoxOdd"/><text style="dominant-baseline: middle; font-size: 10.2px;" transform="translate(5,79)" y="0" x="0" id="text-entity-Feature-4fad3d01-3517-571c-a342-eed3efd89186-attr-3-type" class="er entityLabel">String</text><rect height="22" width="61.40684509277344" y="68" x="37.39605712890625" class="er attributeBoxOdd"/><text style="dominant-baseline: middle; font-size: 10.2px;" transform="translate(42.39605712890625,79)" y="0" x="0" id="text-entity-Feature-4fad3d01-3517-571c-a342-eed3efd89186-attr-3-name" class="er entityLabel">description</text><rect height="22" width="22.68768310546875" y="68" x="98.80290222167969" class="er attributeBoxOdd"/><text style="dominant-baseline: middle; font-size: 10.2px;" transform="translate(103.80290222167969,79)" y="0" x="0" id="text-entity-Feature-4fad3d01-3517-571c-a342-eed3efd89186-attr-3-key" class="er entityLabel"/><rect height="22" width="47.21253967285156" y="68" x="121.49058532714844" class="er attributeBoxOdd"/><text style="dominant-baseline: middle; font-size: 10.2px;" transform="translate(126.49058532714844,79)" y="0" x="0" id="text-entity-Feature-4fad3d01-3517-571c-a342-eed3efd89186-attr-3-comment" class="er entityLabel">nullable</text></g><g transform="translate(334.3262023925781,634 )" id="entity-Scenario-c93c47a9-e6c7-5329-9f48-596f0b9a515d"><rect height="68" width="142.6951904296875" y="0" x="0" class="er entityBox"/><text style="dominant-baseline: middle; text-anchor: middle; font-size: 12px;" transform="translate(71.34759521484375,12)" y="0" x="0" id="text-entity-Scenario-c93c47a9-e6c7-5329-9f48-596f0b9a515d" class="er entityLabel">Scenario</text><rect height="22" width="37.39605712890625" y="24" x="0" class="er attributeBoxOdd"/><text style="dominant-baseline: middle; font-size: 10.2px;" transform="translate(5,35)" y="0" x="0" id="text-entity-Scenario-c93c47a9-e6c7-5329-9f48-596f0b9a515d-attr-1-type" class="er entityLabel">Int</text><rect height="22" width="35.39891052246094" y="24" x="37.39605712890625" class="er attributeBoxOdd"/><text style="dominant-baseline: middle; font-size: 10.2px;" transform="translate(42.39605712890625,35)" y="0" x="0" id="text-entity-Scenario-c93c47a9-e6c7-5329-9f48-596f0b9a515d-attr-1-name" class="er entityLabel">id</text><rect height="22" width="22.68768310546875" y="24" x="72.79496765136719" class="er attributeBoxOdd"/><text style="dominant-baseline: middle; font-size: 10.2px;" transform="translate(77.79496765136719,35)" y="0" x="0" id="text-entity-Scenario-c93c47a9-e6c7-5329-9f48-596f0b9a515d-attr-1-key" class="er entityLabel">PK</text><rect height="22" width="47.21253967285156" y="24" x="95.48265075683594" class="er attributeBoxOdd"/><text style="dominant-baseline: middle; font-size: 10.2px;" transform="translate(100.48265075683594,35)" y="0" x="0" id="text-entity-Scenario-c93c47a9-e6c7-5329-9f48-596f0b9a515d-attr-1-comment" class="er entityLabel"/><rect height="22" width="37.39605712890625" y="46" x="0" class="er attributeBoxEven"/><text style="dominant-baseline: middle; font-size: 10.2px;" transform="translate(5,57)" y="0" x="0" id="text-entity-Scenario-c93c47a9-e6c7-5329-9f48-596f0b9a515d-attr-2-type" class="er entityLabel">String</text><rect height="22" width="35.39891052246094" y="46" x="37.39605712890625" class="er attributeBoxEven"/><text style="dominant-baseline: middle; font-size: 10.2px;" transform="translate(42.39605712890625,57)" y="0" x="0" id="text-entity-Scenario-c93c47a9-e6c7-5329-9f48-596f0b9a515d-attr-2-name" class="er entityLabel">name</text><rect height="22" width="22.68768310546875" y="46" x="72.79496765136719" class="er attributeBoxEven"/><text style="dominant-baseline: middle; font-size: 10.2px;" transform="translate(77.79496765136719,57)" y="0" x="0" id="text-entity-Scenario-c93c47a9-e6c7-5329-9f48-596f0b9a515d-attr-2-key" class="er entityLabel"/><rect height="22" width="47.21253967285156" y="46" x="95.48265075683594" class="er attributeBoxEven"/><text style="dominant-baseline: middle; font-size: 10.2px;" transform="translate(100.48265075683594,57)" y="0" x="0" id="text-entity-Scenario-c93c47a9-e6c7-5329-9f48-596f0b9a515d-attr-2-comment" class="er entityLabel">nullable</text></g><g transform="translate(355.6737976074219,802 )" id="entity-Step-e219be1f-61cb-5c54-96b3-c2b2bab46dfc"><rect height="68" width="100" y="0" x="0" class="er entityBox"/><text style="dominant-baseline: middle; text-anchor: middle; font-size: 12px;" transform="translate(50,12)" y="0" x="0" id="text-entity-Step-e219be1f-61cb-5c54-96b3-c2b2bab46dfc" class="er entityLabel">Step</text><rect height="22" width="29.484156290690105" y="24" x="0" class="er attributeBoxOdd"/><text style="dominant-baseline: middle; font-size: 10.2px;" transform="translate(5,35)" y="0" x="0" id="text-entity-Step-e219be1f-61cb-5c54-96b3-c2b2bab46dfc-attr-1-type" class="er entityLabel">Int</text><rect height="22" width="41.7560068766276" y="24" x="29.484156290690105" class="er attributeBoxOdd"/><text style="dominant-baseline: middle; font-size: 10.2px;" transform="translate(34.48415629069011,35)" y="0" x="0" id="text-entity-Step-e219be1f-61cb-5c54-96b3-c2b2bab46dfc-attr-1-name" class="er entityLabel">id</text><rect height="22" width="28.759836832682293" y="24" x="71.2401631673177" class="er attributeBoxOdd"/><text style="dominant-baseline: middle; font-size: 10.2px;" transform="translate(76.2401631673177,35)" y="0" x="0" id="text-entity-Step-e219be1f-61cb-5c54-96b3-c2b2bab46dfc-attr-1-key" class="er entityLabel">PK</text><rect height="22" width="29.484156290690105" y="46" x="0" class="er attributeBoxEven"/><text style="dominant-baseline: middle; font-size: 10.2px;" transform="translate(5,57)" y="0" x="0" id="text-entity-Step-e219be1f-61cb-5c54-96b3-c2b2bab46dfc-attr-2-type" class="er entityLabel">Int</text><rect height="22" width="41.7560068766276" y="46" x="29.484156290690105" class="er attributeBoxEven"/><text style="dominant-baseline: middle; font-size: 10.2px;" transform="translate(34.48415629069011,57)" y="0" x="0" id="text-entity-Step-e219be1f-61cb-5c54-96b3-c2b2bab46dfc-attr-2-name" class="er entityLabel">order</text><rect height="22" width="28.759836832682293" y="46" x="71.2401631673177" class="er attributeBoxEven"/><text style="dominant-baseline: middle; font-size: 10.2px;" transform="translate(76.2401631673177,57)" y="0" x="0" id="text-entity-Step-e219be1f-61cb-5c54-96b3-c2b2bab46dfc-attr-2-key" class="er entityLabel"/></g><g transform="translate(597.8495788574219,992 )" id="entity-Behaviour-97a2395c-598e-5946-8da9-ce5730d44919"><rect height="68" width="100" y="0" x="0" class="er entityBox"/><text style="dominant-baseline: middle; text-anchor: middle; font-size: 12px;" transform="translate(50,12)" y="0" x="0" id="text-entity-Behaviour-97a2395c-598e-5946-8da9-ce5730d44919" class="er entityLabel">Behaviour</text><rect height="22" width="38.72290547688802" y="24" x="0" class="er attributeBoxOdd"/><text style="dominant-baseline: middle; font-size: 10.2px;" transform="translate(5,35)" y="0" x="0" id="text-entity-Behaviour-97a2395c-598e-5946-8da9-ce5730d44919-attr-1-type" class="er entityLabel">String</text><rect height="22" width="37.26256306966146" y="24" x="38.72290547688802" class="er attributeBoxOdd"/><text style="dominant-baseline: middle; font-size: 10.2px;" transform="translate(43.72290547688802,35)" y="0" x="0" id="text-entity-Behaviour-97a2395c-598e-5946-8da9-ce5730d44919-attr-1-name" class="er entityLabel">id</text><rect height="22" width="24.01453145345052" y="24" x="75.98546854654948" class="er attributeBoxOdd"/><text style="dominant-baseline: middle; font-size: 10.2px;" transform="translate(80.98546854654948,35)" y="0" x="0" id="text-entity-Behaviour-97a2395c-598e-5946-8da9-ce5730d44919-attr-1-key" class="er entityLabel">PK</text><rect height="22" width="38.72290547688802" y="46" x="0" class="er attributeBoxEven"/><text style="dominant-baseline: middle; font-size: 10.2px;" transform="translate(5,57)" y="0" x="0" id="text-entity-Behaviour-97a2395c-598e-5946-8da9-ce5730d44919-attr-2-type" class="er entityLabel">String</text><rect height="22" width="37.26256306966146" y="46" x="38.72290547688802" class="er attributeBoxEven"/><text style="dominant-baseline: middle; font-size: 10.2px;" transform="translate(43.72290547688802,57)" y="0" x="0" id="text-entity-Behaviour-97a2395c-598e-5946-8da9-ce5730d44919-attr-2-name" class="er entityLabel">value</text><rect height="22" width="24.01453145345052" y="46" x="75.98546854654948" class="er attributeBoxEven"/><text style="dominant-baseline: middle; font-size: 10.2px;" transform="translate(80.98546854654948,57)" y="0" x="0" id="text-entity-Behaviour-97a2395c-598e-5946-8da9-ce5730d44919-attr-2-key" class="er entityLabel"/></g><g transform="translate(20,970 )" id="entity-Param-e2866454-d78f-59a5-b770-d23bf52d1823"><rect height="112" width="100" y="0" x="0" class="er entityBox"/><text style="dominant-baseline: middle; text-anchor: middle; font-size: 12px;" transform="translate(50,12)" y="0" x="0" id="text-entity-Param-e2866454-d78f-59a5-b770-d23bf52d1823" class="er entityLabel">Param</text><rect height="22" width="38.72290547688802" y="24" x="0" class="er attributeBoxOdd"/><text style="dominant-baseline: middle; font-size: 10.2px;" transform="translate(5,35)" y="0" x="0" id="text-entity-Param-e2866454-d78f-59a5-b770-d23bf52d1823-attr-1-type" class="er entityLabel">Int</text><rect height="22" width="37.26256306966146" y="24" x="38.72290547688802" class="er attributeBoxOdd"/><text style="dominant-baseline: middle; font-size: 10.2px;" transform="translate(43.72290547688802,35)" y="0" x="0" id="text-entity-Param-e2866454-d78f-59a5-b770-d23bf52d1823-attr-1-name" class="er entityLabel">id</text><rect height="22" width="24.01453145345052" y="24" x="75.98546854654948" class="er attributeBoxOdd"/><text style="dominant-baseline: middle; font-size: 10.2px;" transform="translate(80.98546854654948,35)" y="0" x="0" id="text-entity-Param-e2866454-d78f-59a5-b770-d23bf52d1823-attr-1-key" class="er entityLabel">PK</text><rect height="22" width="38.72290547688802" y="46" x="0" class="er attributeBoxEven"/><text style="dominant-baseline: middle; font-size: 10.2px;" transform="translate(5,57)" y="0" x="0" id="text-entity-Param-e2866454-d78f-59a5-b770-d23bf52d1823-attr-2-type" class="er entityLabel">String</text><rect height="22" width="37.26256306966146" y="46" x="38.72290547688802" class="er attributeBoxEven"/><text style="dominant-baseline: middle; font-size: 10.2px;" transform="translate(43.72290547688802,57)" y="0" x="0" id="text-entity-Param-e2866454-d78f-59a5-b770-d23bf52d1823-attr-2-name" class="er entityLabel">name</text><rect height="22" width="24.01453145345052" y="46" x="75.98546854654948" class="er attributeBoxEven"/><text style="dominant-baseline: middle; font-size: 10.2px;" transform="translate(80.98546854654948,57)" y="0" x="0" id="text-entity-Param-e2866454-d78f-59a5-b770-d23bf52d1823-attr-2-key" class="er entityLabel"/><rect height="22" width="38.72290547688802" y="68" x="0" class="er attributeBoxOdd"/><text style="dominant-baseline: middle; font-size: 10.2px;" transform="translate(5,79)" y="0" x="0" id="text-entity-Param-e2866454-d78f-59a5-b770-d23bf52d1823-attr-3-type" class="er entityLabel">String</text><rect height="22" width="37.26256306966146" y="68" x="38.72290547688802" class="er attributeBoxOdd"/><text style="dominant-baseline: middle; font-size: 10.2px;" transform="translate(43.72290547688802,79)" y="0" x="0" id="text-entity-Param-e2866454-d78f-59a5-b770-d23bf52d1823-attr-3-name" class="er entityLabel">value</text><rect height="22" width="24.01453145345052" y="68" x="75.98546854654948" class="er attributeBoxOdd"/><text style="dominant-baseline: middle; font-size: 10.2px;" transform="translate(80.98546854654948,79)" y="0" x="0" id="text-entity-Param-e2866454-d78f-59a5-b770-d23bf52d1823-attr-3-key" class="er entityLabel"/><rect height="22" width="38.72290547688802" y="90" x="0" class="er attributeBoxEven"/><text style="dominant-baseline: middle; font-size: 10.2px;" transform="translate(5,101)" y="0" x="0" id="text-entity-Param-e2866454-d78f-59a5-b770-d23bf52d1823-attr-4-type" class="er entityLabel">String</text><rect height="22" width="37.26256306966146" y="90" x="38.72290547688802" class="er attributeBoxEven"/><text style="dominant-baseline: middle; font-size: 10.2px;" transform="translate(43.72290547688802,101)" y="0" x="0" id="text-entity-Param-e2866454-d78f-59a5-b770-d23bf52d1823-attr-4-name" class="er entityLabel">type</text><rect height="22" width="24.01453145345052" y="90" x="75.98546854654948" class="er attributeBoxEven"/><text style="dominant-baseline: middle; font-size: 10.2px;" transform="translate(80.98546854654948,101)" y="0" x="0" id="text-entity-Param-e2866454-d78f-59a5-b770-d23bf52d1823-attr-4-key" class="er entityLabel"/></g><rect height="14" width="44.43359375" y="220.5394287109375" x="481.5628662109375" class="er relationshipLabelBox"/><text style="text-anchor: middle; dominant-baseline: middle; font-size: 12px;" y="227.5394287109375" x="503.7796630859375" id="rel1" class="er relationshipLabel">projects</text><rect height="14" width="27.623046875" y="220.5394287109375" x="406.7603759765625" class="er relationshipLabelBox"/><text style="text-anchor: middle; dominant-baseline: middle; font-size: 12px;" y="227.5394287109375" x="420.5718994140625" id="rel2" class="er relationshipLabel">users</text><rect height="14" width="44.80859375" y="386.0589599609375" x="349.5195617675781" class="er relationshipLabelBox"/><text style="text-anchor: middle; dominant-baseline: middle; font-size: 12px;" y="393.0589599609375" x="371.9238586425781" id="rel3" class="er relationshipLabel">features</text><rect height="14" width="58.05078125" y="570.1748046875" x="868.82421875" class="er relationshipLabelBox"/><text style="text-anchor: middle; dominant-baseline: middle; font-size: 12px;" y="577.1748046875" x="897.849609375" id="rel4" class="er relationshipLabel">behaviours</text><rect height="14" width="49.73046875" y="562.6407470703125" x="401.0178527832031" class="er relationshipLabelBox"/><text style="text-anchor: middle; dominant-baseline: middle; font-size: 12px;" y="569.6407470703125" x="425.8830871582031" id="rel5" class="er relationshipLabel">scenarios</text><rect height="14" width="38.919921875" y="776.497802734375" x="207.04202270507812" class="er relationshipLabelBox"/><text style="text-anchor: middle; dominant-baseline: middle; font-size: 12px;" y="783.497802734375" x="226.50198364257812" id="rel6" class="er relationshipLabel">params</text><rect height="14" width="39.67578125" y="360.4532470703125" x="287.04058837890625" class="er relationshipLabelBox"/><text style="text-anchor: middle; dominant-baseline: middle; font-size: 12px;" y="367.4532470703125" x="306.87847900390625" id="rel7" class="er relationshipLabel">project</text><rect height="14" width="27.845703125" y="745" x="437.0422058105469" class="er relationshipLabelBox"/><text style="text-anchor: middle; dominant-baseline: middle; font-size: 12px;" y="752" x="450.9650573730469" id="rel8" class="er relationshipLabel">steps</text><rect height="14" width="40.263671875" y="574.0123901367188" x="336.689697265625" class="er relationshipLabelBox"/><text style="text-anchor: middle; dominant-baseline: middle; font-size: 12px;" y="581.0123901367188" x="356.821533203125" id="rel9" class="er relationshipLabel">feature</text><rect height="14" width="38.919921875" y="887.248291015625" x="198.42977905273438" class="er relationshipLabelBox"/><text style="text-anchor: middle; dominant-baseline: middle; font-size: 12px;" y="894.248291015625" x="217.88973999023438" id="rel10" class="er relationshipLabel">params</text><rect height="14" width="54.38671875" y="882.1900634765625" x="613.5283203125" class="er relationshipLabelBox"/><text style="text-anchor: middle; dominant-baseline: middle; font-size: 12px;" y="889.1900634765625" x="640.7216796875" id="rel11" class="er relationshipLabel">behaviour</text><rect height="14" width="45.291015625" y="745" x="348.16082763671875" class="er relationshipLabelBox"/><text style="text-anchor: middle; dominant-baseline: middle; font-size: 12px;" y="752" x="370.80633544921875" id="rel12" class="er relationshipLabel">scenario</text><rect height="14" width="90.005859375" y="886.5184936523438" x="550.0628051757812" class="er relationshipLabelBox"/><text style="text-anchor: middle; dominant-baseline: middle; font-size: 12px;" y="893.5184936523438" x="595.0657348632812" id="rel13" class="er relationshipLabel">parentBehaviour</text><rect height="14" width="39.67578125" y="644.1450805664062" x="578.01171875" class="er relationshipLabelBox"/><text style="text-anchor: middle; dominant-baseline: middle; font-size: 12px;" y="651.1450805664062" x="597.849609375" id="rel14" class="er relationshipLabel">project</text><rect height="14" width="27.845703125" y="935.8885498046875" x="491.7491149902344" class="er relationshipLabelBox"/><text style="text-anchor: middle; dominant-baseline: middle; font-size: 12px;" y="942.8885498046875" x="505.6719665527344" id="rel15" class="er relationshipLabel">steps</text><rect height="14" width="46.859375" y="950.5548706054688" x="444.9346618652344" class="er relationshipLabelBox"/><text style="text-anchor: middle; dominant-baseline: middle; font-size: 12px;" y="957.5548706054688" x="468.3643493652344" id="rel16" class="er relationshipLabel">subSteps</text><rect height="14" width="27.845703125" y="880.1640625" x="167.33811950683594" class="er relationshipLabelBox"/><text style="text-anchor: middle; dominant-baseline: middle; font-size: 12px;" y="887.1640625" x="181.26097106933594" id="rel17" class="er relationshipLabel">steps</text><rect height="14" width="40.263671875" y="673.64892578125" x="-93.62985229492188" class="er relationshipLabelBox"/><text style="text-anchor: middle; dominant-baseline: middle; font-size: 12px;" y="680.64892578125" x="-73.49801635742188" id="rel18" class="er relationshipLabel">feature</text></svg>