<svg aria-roledescription="er" viewBox="0 0 777.4541625976562 766" style="max-width: 777.454px; background-color: white;" xmlns:xlink="http://www.w3.org/1999/xlink" xmlns="http://www.w3.org/2000/svg" width="100%" id="mermaid-0"><style>#mermaid-0{font-family:"trebuchet ms",verdana,arial,sans-serif;font-size:16px;fill:#000000;}#mermaid-0 .error-icon{fill:#552222;}#mermaid-0 .error-text{fill:#552222;stroke:#552222;}#mermaid-0 .edge-thickness-normal{stroke-width:2px;}#mermaid-0 .edge-thickness-thick{stroke-width:3.5px;}#mermaid-0 .edge-pattern-solid{stroke-dasharray:0;}#mermaid-0 .edge-pattern-dashed{stroke-dasharray:3;}#mermaid-0 .edge-pattern-dotted{stroke-dasharray:2;}#mermaid-0 .marker{fill:#000000;stroke:#000000;}#mermaid-0 .marker.cross{stroke:#000000;}#mermaid-0 svg{font-family:"trebuchet ms",verdana,arial,sans-serif;font-size:16px;}#mermaid-0 .entityBox{fill:#cde498;stroke:#13540c;}#mermaid-0 .attributeBoxOdd{fill:#ffffff;stroke:#13540c;}#mermaid-0 .attributeBoxEven{fill:#f2f2f2;stroke:#13540c;}#mermaid-0 .relationshipLabelBox{fill:hsl(78.1578947368, 58.4615384615%, 84.5098039216%);opacity:0.7;background-color:hsl(78.1578947368, 58.4615384615%, 84.5098039216%);}#mermaid-0 .relationshipLabelBox rect{opacity:0.5;}#mermaid-0 .relationshipLine{stroke:#000000;}#mermaid-0 .entityTitleText{text-anchor:middle;font-size:18px;fill:#000000;}#mermaid-0 :root{--mermaid-font-family:"trebuchet ms",verdana,arial,sans-serif;}</style><g/><defs><marker orient="auto" markerHeight="18" markerWidth="18" refY="9" refX="0" id="ONLY_ONE_START"><path d="M9,0 L9,18 M15,0 L15,18" fill="none" stroke="gray"/></marker></defs><defs><marker orient="auto" markerHeight="18" markerWidth="18" refY="9" refX="18" id="ONLY_ONE_END"><path d="M3,0 L3,18 M9,0 L9,18" fill="none" stroke="gray"/></marker></defs><defs><marker orient="auto" markerHeight="18" markerWidth="30" refY="9" refX="0" id="ZERO_OR_ONE_START"><circle r="6" cy="9" cx="21" fill="white" stroke="gray"/><path d="M9,0 L9,18" fill="none" stroke="gray"/></marker></defs><defs><marker orient="auto" markerHeight="18" markerWidth="30" refY="9" refX="30" id="ZERO_OR_ONE_END"><circle r="6" cy="9" cx="9" fill="white" stroke="gray"/><path d="M21,0 L21,18" fill="none" stroke="gray"/></marker></defs><defs><marker orient="auto" markerHeight="36" markerWidth="45" refY="18" refX="18" id="ONE_OR_MORE_START"><path d="M0,18 Q 18,0 36,18 Q 18,36 0,18 M42,9 L42,27" fill="none" stroke="gray"/></marker></defs><defs><marker orient="auto" markerHeight="36" markerWidth="45" refY="18" refX="27" id="ONE_OR_MORE_END"><path d="M3,9 L3,27 M9,18 Q27,0 45,18 Q27,36 9,18" fill="none" stroke="gray"/></marker></defs><defs><marker orient="auto" markerHeight="36" markerWidth="57" refY="18" refX="18" id="ZERO_OR_MORE_START"><circle r="6" cy="18" cx="48" fill="white" stroke="gray"/><path d="M0,18 Q18,0 36,18 Q18,36 0,18" fill="none" stroke="gray"/></marker></defs><defs><marker orient="auto" markerHeight="36" markerWidth="57" refY="18" refX="39" id="ZERO_OR_MORE_END"><circle r="6" cy="18" cx="9" fill="white" stroke="gray"/><path d="M21,18 Q39,0 57,18 Q39,36 21,18" fill="none" stroke="gray"/></marker></defs><path style="stroke: gray; fill: none;" marker-start="url(#ZERO_OR_MORE_START)" marker-end="url(#ONLY_ONE_END)" d="M121.71146874678763,482.5L116.66760909766482,492.0833333333333C111.62374944854201,501.6666666666667,101.53603015029641,520.8333333333334,96.49217050117359,538.75C91.44831085205078,556.6666666666666,91.44831085205078,573.3333333333334,91.44831085205078,581.6666666666666L91.44831085205078,590" class="er relationshipLine"/><path style="stroke: gray; fill: none;" marker-start="url(#ZERO_OR_MORE_START)" marker-end="url(#ONLY_ONE_END)" d="M168.7159917731034,482.5L175.68439911959464,492.0833333333333C182.65280646608585,501.6666666666667,196.58962115906832,520.8333333333334,224.25248651337202,546.0833333333334C251.91535186767578,571.3333333333334,293.3042678833008,602.6666666666666,313.9987258911133,618.3333333333334L334.6931838989258,634" class="er relationshipLine"/><path style="stroke: gray; fill: none;" marker-start="url(#ZERO_OR_MORE_START)" marker-end="url(#ONLY_ONE_END)" d="M421.2505912780762,490L421.2505912780762,498.3333333333333C421.2505912780762,506.6666666666667,421.2505912780762,523.3333333333334,416.1532906790574,547.3333333333334C411.0559900800387,571.3333333333334,400.8613888820012,602.6666666666666,395.7640882829825,618.3333333333334L390.6667876839638,634" class="er relationshipLine"/><path style="stroke: gray; fill: none;" marker-start="url(#ZERO_OR_MORE_START)" marker-end="url(#ONLY_ONE_END)" d="M268.9307632446289,278L268.9307632446289,290C268.9307632446289,302,268.9307632446289,326,282.29215166861553,346.3333333333333C295.6535400926021,366.6666666666667,322.37631694057535,383.3333333333333,335.7377053645619,391.6666666666667L349.09909378854854,400" class="er relationshipLine"/><path style="stroke: gray; fill: none;" marker-start="url(#ZERO_OR_MORE_START)" marker-end="url(#ONLY_ONE_END)" d="M481.92438888549805,69.96996881489177L446.4254512786865,81.30830734574315C410.926513671875,92.64664587659452,339.92863845825195,115.32332293829727,304.42970085144043,138.66166146914864C268.9307632446289,162,268.9307632446289,186,268.9307632446289,198L268.9307632446289,210" class="er relationshipLine"/><path style="stroke: gray; fill: none;" marker-start="url(#ZERO_OR_MORE_START)" marker-end="url(#ONLY_ONE_END)" d="M581.924388885498,77.9275677216215L602.8460140228271,87.93963976801791C623.7676391601562,97.95171181441434,665.6108894348145,117.97585590720716,686.5325145721436,145.65459462027025C707.4541397094727,173.33333333333334,707.4541397094727,208.66666666666666,707.4541397094727,244C707.4541397094727,279.3333333333333,707.4541397094727,314.6666666666667,707.4541397094727,342.5C707.4541397094727,370.3333333333333,707.4541397094727,390.6666666666667,707.4541397094727,400.8333333333333L707.4541397094727,411" class="er relationshipLine"/><path style="stroke: gray; fill: none;" marker-start="url(#ZERO_OR_MORE_START)" marker-end="url(#ZERO_OR_MORE_END)" d="M490.5092203957694,88L480.3584438051496,96.33333333333333C470.20766721452986,104.66666666666667,449.9061140332903,121.33333333333333,444.5252900847634,138C439.1444661362366,154.66666666666666,448.6843714204224,171.33333333333334,453.4543240625153,179.66666666666666L458.22427670460826,188" class="er relationshipLine"/><path style="stroke: gray; fill: none;" marker-start="url(#ZERO_OR_MORE_START)" marker-end="url(#ZERO_OR_ONE_END)" d="M707.4541397094727,479L707.4541397094727,489.1666666666667C707.4541397094727,499.3333333333333,707.4541397094727,519.6666666666666,661.145876566569,547.9131420765663C614.8376134236654,576.1596174864659,522.221087137858,612.3192349729319,475.9128239949544,630.3990437161649L429.6045608520508,648.4788524593979" class="er relationshipLine"/><path style="stroke: gray; fill: none;" marker-start="url(#ZERO_OR_MORE_START)" marker-end="url(#ZERO_OR_MORE_END)" d="M516.6934527990953,188L520.6242704091582,179.66666666666666C524.5550880192211,171.33333333333334,532.4167232393469,154.66666666666666,535.5187740265948,138C538.6208248138428,121.33333333333333,536.9632911682129,104.66666666666667,536.134524345398,96.33333333333333L535.305757522583,88" class="er relationshipLine"/><path style="stroke: gray; fill: none;" marker-start="url(#ZERO_OR_MORE_START)" marker-end="url(#ONLY_ONE_END)" d="M490.27835845947266,300L490.27835845947266,308.3333333333333C490.27835845947266,316.6666666666667,490.27835845947266,333.3333333333333,484.2232911628589,350C478.16822386624517,366.6666666666667,466.05808927301774,383.3333333333333,460.003021976404,391.6666666666667L453.9479546797903,400" class="er relationshipLine"/><g transform="translate(20,590 )" id="entity-User-db5dc4ce-24f0-4037-8559-eb3cfca30f59"><rect height="156" width="142.89662170410156" y="0" x="0" class="er entityBox"/><text style="dominant-baseline: middle; text-anchor: middle; font-size: 12px;" transform="translate(71.44831085205078,12)" y="0" x="0" id="text-entity-User-db5dc4ce-24f0-4037-8559-eb3cfca30f59" class="er entityLabel">User</text><rect height="22" width="54.095550537109375" y="24" x="0" class="er attributeBoxOdd"/><text style="dominant-baseline: middle; font-size: 10.2px;" transform="translate(5,35)" y="0" x="0" id="text-entity-User-db5dc4ce-24f0-4037-8559-eb3cfca30f59-attr-1-type" class="er entityLabel">String</text><rect height="22" width="66.11338806152344" y="24" x="54.095550537109375" class="er attributeBoxOdd"/><text style="dominant-baseline: middle; font-size: 10.2px;" transform="translate(59.095550537109375,35)" y="0" x="0" id="text-entity-User-db5dc4ce-24f0-4037-8559-eb3cfca30f59-attr-1-name" class="er entityLabel">id</text><rect height="22" width="22.68768310546875" y="24" x="120.20893859863281" class="er attributeBoxOdd"/><text style="dominant-baseline: middle; font-size: 10.2px;" transform="translate(125.20893859863281,35)" y="0" x="0" id="text-entity-User-db5dc4ce-24f0-4037-8559-eb3cfca30f59-attr-1-key" class="er entityLabel">PK</text><rect height="22" width="54.095550537109375" y="46" x="0" class="er attributeBoxEven"/><text style="dominant-baseline: middle; font-size: 10.2px;" transform="translate(5,57)" y="0" x="0" id="text-entity-User-db5dc4ce-24f0-4037-8559-eb3cfca30f59-attr-2-type" class="er entityLabel">String</text><rect height="22" width="66.11338806152344" y="46" x="54.095550537109375" class="er attributeBoxEven"/><text style="dominant-baseline: middle; font-size: 10.2px;" transform="translate(59.095550537109375,57)" y="0" x="0" id="text-entity-User-db5dc4ce-24f0-4037-8559-eb3cfca30f59-attr-2-name" class="er entityLabel">username</text><rect height="22" width="22.68768310546875" y="46" x="120.20893859863281" class="er attributeBoxEven"/><text style="dominant-baseline: middle; font-size: 10.2px;" transform="translate(125.20893859863281,57)" y="0" x="0" id="text-entity-User-db5dc4ce-24f0-4037-8559-eb3cfca30f59-attr-2-key" class="er entityLabel"/><rect height="22" width="54.095550537109375" y="68" x="0" class="er attributeBoxOdd"/><text style="dominant-baseline: middle; font-size: 10.2px;" transform="translate(5,79)" y="0" x="0" id="text-entity-User-db5dc4ce-24f0-4037-8559-eb3cfca30f59-attr-3-type" class="er entityLabel">String</text><rect height="22" width="66.11338806152344" y="68" x="54.095550537109375" class="er attributeBoxOdd"/><text style="dominant-baseline: middle; font-size: 10.2px;" transform="translate(59.095550537109375,79)" y="0" x="0" id="text-entity-User-db5dc4ce-24f0-4037-8559-eb3cfca30f59-attr-3-name" class="er entityLabel">password</text><rect height="22" width="22.68768310546875" y="68" x="120.20893859863281" class="er attributeBoxOdd"/><text style="dominant-baseline: middle; font-size: 10.2px;" transform="translate(125.20893859863281,79)" y="0" x="0" id="text-entity-User-db5dc4ce-24f0-4037-8559-eb3cfca30f59-attr-3-key" class="er entityLabel"/><rect height="22" width="54.095550537109375" y="90" x="0" class="er attributeBoxEven"/><text style="dominant-baseline: middle; font-size: 10.2px;" transform="translate(5,101)" y="0" x="0" id="text-entity-User-db5dc4ce-24f0-4037-8559-eb3cfca30f59-attr-4-type" class="er entityLabel">DateTime</text><rect height="22" width="66.11338806152344" y="90" x="54.095550537109375" class="er attributeBoxEven"/><text style="dominant-baseline: middle; font-size: 10.2px;" transform="translate(59.095550537109375,101)" y="0" x="0" id="text-entity-User-db5dc4ce-24f0-4037-8559-eb3cfca30f59-attr-4-name" class="er entityLabel">createdAt</text><rect height="22" width="22.68768310546875" y="90" x="120.20893859863281" class="er attributeBoxEven"/><text style="dominant-baseline: middle; font-size: 10.2px;" transform="translate(125.20893859863281,101)" y="0" x="0" id="text-entity-User-db5dc4ce-24f0-4037-8559-eb3cfca30f59-attr-4-key" class="er entityLabel"/><rect height="22" width="54.095550537109375" y="112" x="0" class="er attributeBoxOdd"/><text style="dominant-baseline: middle; font-size: 10.2px;" transform="translate(5,123)" y="0" x="0" id="text-entity-User-db5dc4ce-24f0-4037-8559-eb3cfca30f59-attr-5-type" class="er entityLabel">DateTime</text><rect height="22" width="66.11338806152344" y="112" x="54.095550537109375" class="er attributeBoxOdd"/><text style="dominant-baseline: middle; font-size: 10.2px;" transform="translate(59.095550537109375,123)" y="0" x="0" id="text-entity-User-db5dc4ce-24f0-4037-8559-eb3cfca30f59-attr-5-name" class="er entityLabel">updatedAt</text><rect height="22" width="22.68768310546875" y="112" x="120.20893859863281" class="er attributeBoxOdd"/><text style="dominant-baseline: middle; font-size: 10.2px;" transform="translate(125.20893859863281,123)" y="0" x="0" id="text-entity-User-db5dc4ce-24f0-4037-8559-eb3cfca30f59-attr-5-key" class="er entityLabel"/><rect height="22" width="54.095550537109375" y="134" x="0" class="er attributeBoxEven"/><text style="dominant-baseline: middle; font-size: 10.2px;" transform="translate(5,145)" y="0" x="0" id="text-entity-User-db5dc4ce-24f0-4037-8559-eb3cfca30f59-attr-6-type" class="er entityLabel">String</text><rect height="22" width="66.11338806152344" y="134" x="54.095550537109375" class="er attributeBoxEven"/><text style="dominant-baseline: middle; font-size: 10.2px;" transform="translate(59.095550537109375,145)" y="0" x="0" id="text-entity-User-db5dc4ce-24f0-4037-8559-eb3cfca30f59-attr-6-name" class="er entityLabel">accessToken</text><rect height="22" width="22.68768310546875" y="134" x="120.20893859863281" class="er attributeBoxEven"/><text style="dominant-baseline: middle; font-size: 10.2px;" transform="translate(125.20893859863281,145)" y="0" x="0" id="text-entity-User-db5dc4ce-24f0-4037-8559-eb3cfca30f59-attr-6-key" class="er entityLabel"/></g><g transform="translate(329.6045608520508,634 )" id="entity-Project-e08384c4-df4d-4713-b956-8b3707726332"><rect height="68" width="100" y="0" x="0" class="er entityBox"/><text style="dominant-baseline: middle; text-anchor: middle; font-size: 12px;" transform="translate(50,12)" y="0" x="0" id="text-entity-Project-e08384c4-df4d-4713-b956-8b3707726332" class="er entityLabel">Project</text><rect height="22" width="38.90184020996094" y="24" x="0" class="er attributeBoxOdd"/><text style="dominant-baseline: middle; font-size: 10.2px;" transform="translate(5,35)" y="0" x="0" id="text-entity-Project-e08384c4-df4d-4713-b956-8b3707726332-attr-1-type" class="er entityLabel">String</text><rect height="22" width="36.904693603515625" y="24" x="38.90184020996094" class="er attributeBoxOdd"/><text style="dominant-baseline: middle; font-size: 10.2px;" transform="translate(43.90184020996094,35)" y="0" x="0" id="text-entity-Project-e08384c4-df4d-4713-b956-8b3707726332-attr-1-name" class="er entityLabel">id</text><rect height="22" width="24.193466186523438" y="24" x="75.80653381347656" class="er attributeBoxOdd"/><text style="dominant-baseline: middle; font-size: 10.2px;" transform="translate(80.80653381347656,35)" y="0" x="0" id="text-entity-Project-e08384c4-df4d-4713-b956-8b3707726332-attr-1-key" class="er entityLabel">PK</text><rect height="22" width="38.90184020996094" y="46" x="0" class="er attributeBoxEven"/><text style="dominant-baseline: middle; font-size: 10.2px;" transform="translate(5,57)" y="0" x="0" id="text-entity-Project-e08384c4-df4d-4713-b956-8b3707726332-attr-2-type" class="er entityLabel">String</text><rect height="22" width="36.904693603515625" y="46" x="38.90184020996094" class="er attributeBoxEven"/><text style="dominant-baseline: middle; font-size: 10.2px;" transform="translate(43.90184020996094,57)" y="0" x="0" id="text-entity-Project-e08384c4-df4d-4713-b956-8b3707726332-attr-2-name" class="er entityLabel">name</text><rect height="22" width="24.193466186523438" y="46" x="75.80653381347656" class="er attributeBoxEven"/><text style="dominant-baseline: middle; font-size: 10.2px;" transform="translate(80.80653381347656,57)" y="0" x="0" id="text-entity-Project-e08384c4-df4d-4713-b956-8b3707726332-attr-2-key" class="er entityLabel"/></g><g transform="translate(87.64362335205078,407.5 )" id="entity-UserOnProject-9390961d-3e24-4566-8332-1f0930a15f8d"><rect height="75" width="107.609375" y="0" x="0" class="er entityBox"/><text style="dominant-baseline: middle; text-anchor: middle; font-size: 12px;" transform="translate(53.8046875,37.5)" y="0" x="0" id="text-entity-UserOnProject-9390961d-3e24-4566-8332-1f0930a15f8d" class="er entityLabel">UserOnProject</text></g><g transform="translate(336.8990287780762,400 )" id="entity-Feature-08e4314a-b183-4f16-ba12-53864ba1525f"><rect height="90" width="168.703125" y="0" x="0" class="er entityBox"/><text style="dominant-baseline: middle; text-anchor: middle; font-size: 12px;" transform="translate(84.3515625,12)" y="0" x="0" id="text-entity-Feature-08e4314a-b183-4f16-ba12-53864ba1525f" class="er entityLabel">Feature</text><rect height="22" width="37.39605712890625" y="24" x="0" class="er attributeBoxOdd"/><text style="dominant-baseline: middle; font-size: 10.2px;" transform="translate(5,35)" y="0" x="0" id="text-entity-Feature-08e4314a-b183-4f16-ba12-53864ba1525f-attr-1-type" class="er entityLabel">String</text><rect height="22" width="61.40684509277344" y="24" x="37.39605712890625" class="er attributeBoxOdd"/><text style="dominant-baseline: middle; font-size: 10.2px;" transform="translate(42.39605712890625,35)" y="0" x="0" id="text-entity-Feature-08e4314a-b183-4f16-ba12-53864ba1525f-attr-1-name" class="er entityLabel">id</text><rect height="22" width="22.68768310546875" y="24" x="98.80290222167969" class="er attributeBoxOdd"/><text style="dominant-baseline: middle; font-size: 10.2px;" transform="translate(103.80290222167969,35)" y="0" x="0" id="text-entity-Feature-08e4314a-b183-4f16-ba12-53864ba1525f-attr-1-key" class="er entityLabel">PK</text><rect height="22" width="47.21253967285156" y="24" x="121.49058532714844" class="er attributeBoxOdd"/><text style="dominant-baseline: middle; font-size: 10.2px;" transform="translate(126.49058532714844,35)" y="0" x="0" id="text-entity-Feature-08e4314a-b183-4f16-ba12-53864ba1525f-attr-1-comment" class="er entityLabel"/><rect height="22" width="37.39605712890625" y="46" x="0" class="er attributeBoxEven"/><text style="dominant-baseline: middle; font-size: 10.2px;" transform="translate(5,57)" y="0" x="0" id="text-entity-Feature-08e4314a-b183-4f16-ba12-53864ba1525f-attr-2-type" class="er entityLabel">String</text><rect height="22" width="61.40684509277344" y="46" x="37.39605712890625" class="er attributeBoxEven"/><text style="dominant-baseline: middle; font-size: 10.2px;" transform="translate(42.39605712890625,57)" y="0" x="0" id="text-entity-Feature-08e4314a-b183-4f16-ba12-53864ba1525f-attr-2-name" class="er entityLabel">title</text><rect height="22" width="22.68768310546875" y="46" x="98.80290222167969" class="er attributeBoxEven"/><text style="dominant-baseline: middle; font-size: 10.2px;" transform="translate(103.80290222167969,57)" y="0" x="0" id="text-entity-Feature-08e4314a-b183-4f16-ba12-53864ba1525f-attr-2-key" class="er entityLabel"/><rect height="22" width="47.21253967285156" y="46" x="121.49058532714844" class="er attributeBoxEven"/><text style="dominant-baseline: middle; font-size: 10.2px;" transform="translate(126.49058532714844,57)" y="0" x="0" id="text-entity-Feature-08e4314a-b183-4f16-ba12-53864ba1525f-attr-2-comment" class="er entityLabel">nullable</text><rect height="22" width="37.39605712890625" y="68" x="0" class="er attributeBoxOdd"/><text style="dominant-baseline: middle; font-size: 10.2px;" transform="translate(5,79)" y="0" x="0" id="text-entity-Feature-08e4314a-b183-4f16-ba12-53864ba1525f-attr-3-type" class="er entityLabel">String</text><rect height="22" width="61.40684509277344" y="68" x="37.39605712890625" class="er attributeBoxOdd"/><text style="dominant-baseline: middle; font-size: 10.2px;" transform="translate(42.39605712890625,79)" y="0" x="0" id="text-entity-Feature-08e4314a-b183-4f16-ba12-53864ba1525f-attr-3-name" class="er entityLabel">description</text><rect height="22" width="22.68768310546875" y="68" x="98.80290222167969" class="er attributeBoxOdd"/><text style="dominant-baseline: middle; font-size: 10.2px;" transform="translate(103.80290222167969,79)" y="0" x="0" id="text-entity-Feature-08e4314a-b183-4f16-ba12-53864ba1525f-attr-3-key" class="er entityLabel"/><rect height="22" width="47.21253967285156" y="68" x="121.49058532714844" class="er attributeBoxOdd"/><text style="dominant-baseline: middle; font-size: 10.2px;" transform="translate(126.49058532714844,79)" y="0" x="0" id="text-entity-Feature-08e4314a-b183-4f16-ba12-53864ba1525f-attr-3-comment" class="er entityLabel">nullable</text></g><g transform="translate(197.58316802978516,210 )" id="entity-Scenario-b89b1d00-318c-4356-9a47-b61aad8cdbfa"><rect height="68" width="142.6951904296875" y="0" x="0" class="er entityBox"/><text style="dominant-baseline: middle; text-anchor: middle; font-size: 12px;" transform="translate(71.34759521484375,12)" y="0" x="0" id="text-entity-Scenario-b89b1d00-318c-4356-9a47-b61aad8cdbfa" class="er entityLabel">Scenario</text><rect height="22" width="37.39605712890625" y="24" x="0" class="er attributeBoxOdd"/><text style="dominant-baseline: middle; font-size: 10.2px;" transform="translate(5,35)" y="0" x="0" id="text-entity-Scenario-b89b1d00-318c-4356-9a47-b61aad8cdbfa-attr-1-type" class="er entityLabel">Int</text><rect height="22" width="35.39891052246094" y="24" x="37.39605712890625" class="er attributeBoxOdd"/><text style="dominant-baseline: middle; font-size: 10.2px;" transform="translate(42.39605712890625,35)" y="0" x="0" id="text-entity-Scenario-b89b1d00-318c-4356-9a47-b61aad8cdbfa-attr-1-name" class="er entityLabel">id</text><rect height="22" width="22.68768310546875" y="24" x="72.79496765136719" class="er attributeBoxOdd"/><text style="dominant-baseline: middle; font-size: 10.2px;" transform="translate(77.79496765136719,35)" y="0" x="0" id="text-entity-Scenario-b89b1d00-318c-4356-9a47-b61aad8cdbfa-attr-1-key" class="er entityLabel">PK</text><rect height="22" width="47.21253967285156" y="24" x="95.48265075683594" class="er attributeBoxOdd"/><text style="dominant-baseline: middle; font-size: 10.2px;" transform="translate(100.48265075683594,35)" y="0" x="0" id="text-entity-Scenario-b89b1d00-318c-4356-9a47-b61aad8cdbfa-attr-1-comment" class="er entityLabel"/><rect height="22" width="37.39605712890625" y="46" x="0" class="er attributeBoxEven"/><text style="dominant-baseline: middle; font-size: 10.2px;" transform="translate(5,57)" y="0" x="0" id="text-entity-Scenario-b89b1d00-318c-4356-9a47-b61aad8cdbfa-attr-2-type" class="er entityLabel">String</text><rect height="22" width="35.39891052246094" y="46" x="37.39605712890625" class="er attributeBoxEven"/><text style="dominant-baseline: middle; font-size: 10.2px;" transform="translate(42.39605712890625,57)" y="0" x="0" id="text-entity-Scenario-b89b1d00-318c-4356-9a47-b61aad8cdbfa-attr-2-name" class="er entityLabel">name</text><rect height="22" width="22.68768310546875" y="46" x="72.79496765136719" class="er attributeBoxEven"/><text style="dominant-baseline: middle; font-size: 10.2px;" transform="translate(77.79496765136719,57)" y="0" x="0" id="text-entity-Scenario-b89b1d00-318c-4356-9a47-b61aad8cdbfa-attr-2-key" class="er entityLabel"/><rect height="22" width="47.21253967285156" y="46" x="95.48265075683594" class="er attributeBoxEven"/><text style="dominant-baseline: middle; font-size: 10.2px;" transform="translate(100.48265075683594,57)" y="0" x="0" id="text-entity-Scenario-b89b1d00-318c-4356-9a47-b61aad8cdbfa-attr-2-comment" class="er entityLabel">nullable</text></g><g transform="translate(481.92438888549805,20 )" id="entity-Step-5ad3ad2b-87c6-4034-8dd8-324fe3aa192e"><rect height="68" width="100" y="0" x="0" class="er entityBox"/><text style="dominant-baseline: middle; text-anchor: middle; font-size: 12px;" transform="translate(50,12)" y="0" x="0" id="text-entity-Step-5ad3ad2b-87c6-4034-8dd8-324fe3aa192e" class="er entityLabel">Step</text><rect height="22" width="29.484156290690105" y="24" x="0" class="er attributeBoxOdd"/><text style="dominant-baseline: middle; font-size: 10.2px;" transform="translate(5,35)" y="0" x="0" id="text-entity-Step-5ad3ad2b-87c6-4034-8dd8-324fe3aa192e-attr-1-type" class="er entityLabel">Int</text><rect height="22" width="41.7560068766276" y="24" x="29.484156290690105" class="er attributeBoxOdd"/><text style="dominant-baseline: middle; font-size: 10.2px;" transform="translate(34.48415629069011,35)" y="0" x="0" id="text-entity-Step-5ad3ad2b-87c6-4034-8dd8-324fe3aa192e-attr-1-name" class="er entityLabel">id</text><rect height="22" width="28.759836832682293" y="24" x="71.2401631673177" class="er attributeBoxOdd"/><text style="dominant-baseline: middle; font-size: 10.2px;" transform="translate(76.2401631673177,35)" y="0" x="0" id="text-entity-Step-5ad3ad2b-87c6-4034-8dd8-324fe3aa192e-attr-1-key" class="er entityLabel">PK</text><rect height="22" width="29.484156290690105" y="46" x="0" class="er attributeBoxEven"/><text style="dominant-baseline: middle; font-size: 10.2px;" transform="translate(5,57)" y="0" x="0" id="text-entity-Step-5ad3ad2b-87c6-4034-8dd8-324fe3aa192e-attr-2-type" class="er entityLabel">Int</text><rect height="22" width="41.7560068766276" y="46" x="29.484156290690105" class="er attributeBoxEven"/><text style="dominant-baseline: middle; font-size: 10.2px;" transform="translate(34.48415629069011,57)" y="0" x="0" id="text-entity-Step-5ad3ad2b-87c6-4034-8dd8-324fe3aa192e-attr-2-name" class="er entityLabel">order</text><rect height="22" width="28.759836832682293" y="46" x="71.2401631673177" class="er attributeBoxEven"/><text style="dominant-baseline: middle; font-size: 10.2px;" transform="translate(76.2401631673177,57)" y="0" x="0" id="text-entity-Step-5ad3ad2b-87c6-4034-8dd8-324fe3aa192e-attr-2-key" class="er entityLabel"/></g><g transform="translate(657.4541397094727,411 )" id="entity-Behaviour-c318bc6d-8606-4351-9ae6-1c42a9fa0c20"><rect height="68" width="100" y="0" x="0" class="er entityBox"/><text style="dominant-baseline: middle; text-anchor: middle; font-size: 12px;" transform="translate(50,12)" y="0" x="0" id="text-entity-Behaviour-c318bc6d-8606-4351-9ae6-1c42a9fa0c20" class="er entityLabel">Behaviour</text><rect height="22" width="38.72290547688802" y="24" x="0" class="er attributeBoxOdd"/><text style="dominant-baseline: middle; font-size: 10.2px;" transform="translate(5,35)" y="0" x="0" id="text-entity-Behaviour-c318bc6d-8606-4351-9ae6-1c42a9fa0c20-attr-1-type" class="er entityLabel">Int</text><rect height="22" width="37.26256306966146" y="24" x="38.72290547688802" class="er attributeBoxOdd"/><text style="dominant-baseline: middle; font-size: 10.2px;" transform="translate(43.72290547688802,35)" y="0" x="0" id="text-entity-Behaviour-c318bc6d-8606-4351-9ae6-1c42a9fa0c20-attr-1-name" class="er entityLabel">id</text><rect height="22" width="24.01453145345052" y="24" x="75.98546854654948" class="er attributeBoxOdd"/><text style="dominant-baseline: middle; font-size: 10.2px;" transform="translate(80.98546854654948,35)" y="0" x="0" id="text-entity-Behaviour-c318bc6d-8606-4351-9ae6-1c42a9fa0c20-attr-1-key" class="er entityLabel">PK</text><rect height="22" width="38.72290547688802" y="46" x="0" class="er attributeBoxEven"/><text style="dominant-baseline: middle; font-size: 10.2px;" transform="translate(5,57)" y="0" x="0" id="text-entity-Behaviour-c318bc6d-8606-4351-9ae6-1c42a9fa0c20-attr-2-type" class="er entityLabel">String</text><rect height="22" width="37.26256306966146" y="46" x="38.72290547688802" class="er attributeBoxEven"/><text style="dominant-baseline: middle; font-size: 10.2px;" transform="translate(43.72290547688802,57)" y="0" x="0" id="text-entity-Behaviour-c318bc6d-8606-4351-9ae6-1c42a9fa0c20-attr-2-name" class="er entityLabel">value</text><rect height="22" width="24.01453145345052" y="46" x="75.98546854654948" class="er attributeBoxEven"/><text style="dominant-baseline: middle; font-size: 10.2px;" transform="translate(80.98546854654948,57)" y="0" x="0" id="text-entity-Behaviour-c318bc6d-8606-4351-9ae6-1c42a9fa0c20-attr-2-key" class="er entityLabel"/></g><g transform="translate(440.27835845947266,188 )" id="entity-Param-274eb07e-fbb8-4e90-84f2-f9e680ad0ed3"><rect height="112" width="100" y="0" x="0" class="er entityBox"/><text style="dominant-baseline: middle; text-anchor: middle; font-size: 12px;" transform="translate(50,12)" y="0" x="0" id="text-entity-Param-274eb07e-fbb8-4e90-84f2-f9e680ad0ed3" class="er entityLabel">Param</text><rect height="22" width="38.72290547688802" y="24" x="0" class="er attributeBoxOdd"/><text style="dominant-baseline: middle; font-size: 10.2px;" transform="translate(5,35)" y="0" x="0" id="text-entity-Param-274eb07e-fbb8-4e90-84f2-f9e680ad0ed3-attr-1-type" class="er entityLabel">Int</text><rect height="22" width="37.26256306966146" y="24" x="38.72290547688802" class="er attributeBoxOdd"/><text style="dominant-baseline: middle; font-size: 10.2px;" transform="translate(43.72290547688802,35)" y="0" x="0" id="text-entity-Param-274eb07e-fbb8-4e90-84f2-f9e680ad0ed3-attr-1-name" class="er entityLabel">id</text><rect height="22" width="24.01453145345052" y="24" x="75.98546854654948" class="er attributeBoxOdd"/><text style="dominant-baseline: middle; font-size: 10.2px;" transform="translate(80.98546854654948,35)" y="0" x="0" id="text-entity-Param-274eb07e-fbb8-4e90-84f2-f9e680ad0ed3-attr-1-key" class="er entityLabel">PK</text><rect height="22" width="38.72290547688802" y="46" x="0" class="er attributeBoxEven"/><text style="dominant-baseline: middle; font-size: 10.2px;" transform="translate(5,57)" y="0" x="0" id="text-entity-Param-274eb07e-fbb8-4e90-84f2-f9e680ad0ed3-attr-2-type" class="er entityLabel">String</text><rect height="22" width="37.26256306966146" y="46" x="38.72290547688802" class="er attributeBoxEven"/><text style="dominant-baseline: middle; font-size: 10.2px;" transform="translate(43.72290547688802,57)" y="0" x="0" id="text-entity-Param-274eb07e-fbb8-4e90-84f2-f9e680ad0ed3-attr-2-name" class="er entityLabel">name</text><rect height="22" width="24.01453145345052" y="46" x="75.98546854654948" class="er attributeBoxEven"/><text style="dominant-baseline: middle; font-size: 10.2px;" transform="translate(80.98546854654948,57)" y="0" x="0" id="text-entity-Param-274eb07e-fbb8-4e90-84f2-f9e680ad0ed3-attr-2-key" class="er entityLabel"/><rect height="22" width="38.72290547688802" y="68" x="0" class="er attributeBoxOdd"/><text style="dominant-baseline: middle; font-size: 10.2px;" transform="translate(5,79)" y="0" x="0" id="text-entity-Param-274eb07e-fbb8-4e90-84f2-f9e680ad0ed3-attr-3-type" class="er entityLabel">String</text><rect height="22" width="37.26256306966146" y="68" x="38.72290547688802" class="er attributeBoxOdd"/><text style="dominant-baseline: middle; font-size: 10.2px;" transform="translate(43.72290547688802,79)" y="0" x="0" id="text-entity-Param-274eb07e-fbb8-4e90-84f2-f9e680ad0ed3-attr-3-name" class="er entityLabel">value</text><rect height="22" width="24.01453145345052" y="68" x="75.98546854654948" class="er attributeBoxOdd"/><text style="dominant-baseline: middle; font-size: 10.2px;" transform="translate(80.98546854654948,79)" y="0" x="0" id="text-entity-Param-274eb07e-fbb8-4e90-84f2-f9e680ad0ed3-attr-3-key" class="er entityLabel"/><rect height="22" width="38.72290547688802" y="90" x="0" class="er attributeBoxEven"/><text style="dominant-baseline: middle; font-size: 10.2px;" transform="translate(5,101)" y="0" x="0" id="text-entity-Param-274eb07e-fbb8-4e90-84f2-f9e680ad0ed3-attr-4-type" class="er entityLabel">String</text><rect height="22" width="37.26256306966146" y="90" x="38.72290547688802" class="er attributeBoxEven"/><text style="dominant-baseline: middle; font-size: 10.2px;" transform="translate(43.72290547688802,101)" y="0" x="0" id="text-entity-Param-274eb07e-fbb8-4e90-84f2-f9e680ad0ed3-attr-4-name" class="er entityLabel">type</text><rect height="22" width="24.01453145345052" y="90" x="75.98546854654948" class="er attributeBoxEven"/><text style="dominant-baseline: middle; font-size: 10.2px;" transform="translate(80.98546854654948,101)" y="0" x="0" id="text-entity-Param-274eb07e-fbb8-4e90-84f2-f9e680ad0ed3-attr-4-key" class="er entityLabel"/></g><rect height="14" width="23.958984375" y="526.9317626953125" x="85.97634887695312" class="er relationshipLabelBox"/><text style="text-anchor: middle; dominant-baseline: middle; font-size: 12px;" y="533.9317626953125" x="97.95584106445312" id="rel1" class="er relationshipLabel">user</text><rect height="14" width="39.67578125" y="557.6368408203125" x="225.7764129638672" class="er relationshipLabelBox"/><text style="text-anchor: middle; dominant-baseline: middle; font-size: 12px;" y="564.6368408203125" x="245.6143035888672" id="rel2" class="er relationshipLabel">project</text><rect height="14" width="39.67578125" y="556.224365234375" x="392.5201416015625" class="er relationshipLabelBox"/><text style="text-anchor: middle; dominant-baseline: middle; font-size: 12px;" y="563.224365234375" x="412.3580322265625" id="rel3" class="er relationshipLabel">project</text><rect height="14" width="40.263671875" y="345.60186767578125" x="266.7728271484375" class="er relationshipLabelBox"/><text style="text-anchor: middle; dominant-baseline: middle; font-size: 12px;" y="352.60186767578125" x="286.9046630859375" id="rel4" class="er relationshipLabel">feature</text><rect height="14" width="45.291015625" y="107.83462524414062" x="329.11480712890625" class="er relationshipLabelBox"/><text style="text-anchor: middle; dominant-baseline: middle; font-size: 12px;" y="114.83462524414062" x="351.76031494140625" id="rel5" class="er relationshipLabel">scenario</text><rect height="14" width="54.38671875" y="206.3870086669922" x="679.7473754882812" class="er relationshipLabelBox"/><text style="text-anchor: middle; dominant-baseline: middle; font-size: 12px;" y="213.3870086669922" x="706.9407348632812" id="rel6" class="er relationshipLabel">behaviour</text><rect height="0" width="0" y="131.0489501953125" x="447.5795593261719" class="er relationshipLabelBox"/><text style="text-anchor: middle; dominant-baseline: middle; font-size: 12px;" y="131.0489501953125" x="447.5795593261719" id="rel7" class="er relationshipLabel"/><rect height="14" width="39.67578125" y="577.5823974609375" x="567.99560546875" class="er relationshipLabelBox"/><text style="text-anchor: middle; dominant-baseline: middle; font-size: 12px;" y="584.5823974609375" x="587.83349609375" id="rel8" class="er relationshipLabel">project</text><rect height="0" width="0" y="139.6656494140625" x="535.193115234375" class="er relationshipLabelBox"/><text style="text-anchor: middle; dominant-baseline: middle; font-size: 12px;" y="139.6656494140625" x="535.193115234375" id="rel9" class="er relationshipLabel"/><rect height="14" width="40.263671875" y="346.7206115722656" x="462.6424560546875" class="er relationshipLabelBox"/><text style="text-anchor: middle; dominant-baseline: middle; font-size: 12px;" y="353.7206115722656" x="482.7742919921875" id="rel10" class="er relationshipLabel">feature</text></svg>