<svg aria-roledescription="er" viewBox="0 0 759.810546875 744" style="max-width: 759.811px; background-color: white;" xmlns:xlink="http://www.w3.org/1999/xlink" xmlns="http://www.w3.org/2000/svg" width="100%" id="mermaid-0"><style>#mermaid-0{font-family:"trebuchet ms",verdana,arial,sans-serif;font-size:16px;fill:#000000;}#mermaid-0 .error-icon{fill:#552222;}#mermaid-0 .error-text{fill:#552222;stroke:#552222;}#mermaid-0 .edge-thickness-normal{stroke-width:2px;}#mermaid-0 .edge-thickness-thick{stroke-width:3.5px;}#mermaid-0 .edge-pattern-solid{stroke-dasharray:0;}#mermaid-0 .edge-pattern-dashed{stroke-dasharray:3;}#mermaid-0 .edge-pattern-dotted{stroke-dasharray:2;}#mermaid-0 .marker{fill:#000000;stroke:#000000;}#mermaid-0 .marker.cross{stroke:#000000;}#mermaid-0 svg{font-family:"trebuchet ms",verdana,arial,sans-serif;font-size:16px;}#mermaid-0 .entityBox{fill:#cde498;stroke:#13540c;}#mermaid-0 .attributeBoxOdd{fill:#ffffff;stroke:#13540c;}#mermaid-0 .attributeBoxEven{fill:#f2f2f2;stroke:#13540c;}#mermaid-0 .relationshipLabelBox{fill:hsl(78.1578947368, 58.4615384615%, 84.5098039216%);opacity:0.7;background-color:hsl(78.1578947368, 58.4615384615%, 84.5098039216%);}#mermaid-0 .relationshipLabelBox rect{opacity:0.5;}#mermaid-0 .relationshipLine{stroke:#000000;}#mermaid-0 .entityTitleText{text-anchor:middle;font-size:18px;fill:#000000;}#mermaid-0 :root{--mermaid-font-family:"trebuchet ms",verdana,arial,sans-serif;}</style><g/><defs><marker orient="auto" markerHeight="18" markerWidth="18" refY="9" refX="0" id="ONLY_ONE_START"><path d="M9,0 L9,18 M15,0 L15,18" fill="none" stroke="gray"/></marker></defs><defs><marker orient="auto" markerHeight="18" markerWidth="18" refY="9" refX="18" id="ONLY_ONE_END"><path d="M3,0 L3,18 M9,0 L9,18" fill="none" stroke="gray"/></marker></defs><defs><marker orient="auto" markerHeight="18" markerWidth="30" refY="9" refX="0" id="ZERO_OR_ONE_START"><circle r="6" cy="9" cx="21" fill="white" stroke="gray"/><path d="M9,0 L9,18" fill="none" stroke="gray"/></marker></defs><defs><marker orient="auto" markerHeight="18" markerWidth="30" refY="9" refX="30" id="ZERO_OR_ONE_END"><circle r="6" cy="9" cx="9" fill="white" stroke="gray"/><path d="M21,0 L21,18" fill="none" stroke="gray"/></marker></defs><defs><marker orient="auto" markerHeight="36" markerWidth="45" refY="18" refX="18" id="ONE_OR_MORE_START"><path d="M0,18 Q 18,0 36,18 Q 18,36 0,18 M42,9 L42,27" fill="none" stroke="gray"/></marker></defs><defs><marker orient="auto" markerHeight="36" markerWidth="45" refY="18" refX="27" id="ONE_OR_MORE_END"><path d="M3,9 L3,27 M9,18 Q27,0 45,18 Q27,36 9,18" fill="none" stroke="gray"/></marker></defs><defs><marker orient="auto" markerHeight="36" markerWidth="57" refY="18" refX="18" id="ZERO_OR_MORE_START"><circle r="6" cy="18" cx="48" fill="white" stroke="gray"/><path d="M0,18 Q18,0 36,18 Q18,36 0,18" fill="none" stroke="gray"/></marker></defs><defs><marker orient="auto" markerHeight="36" markerWidth="57" refY="18" refX="39" id="ZERO_OR_MORE_END"><circle r="6" cy="18" cx="9" fill="white" stroke="gray"/><path d="M21,18 Q39,0 57,18 Q39,36 21,18" fill="none" stroke="gray"/></marker></defs><path style="stroke: gray; fill: none;" marker-start="url(#ZERO_OR_MORE_START)" marker-end="url(#ONLY_ONE_END)" d="M127.609375,438.1156316421773L175.00130208333334,451.42969303514775C222.39322916666666,464.74375442811817,317.1770833333333,491.3718772140591,364.5690104166667,513.019271940363C411.9609375,534.6666666666666,411.9609375,551.3333333333334,411.9609375,559.6666666666666L411.9609375,568" class="er relationshipLine"/><path style="stroke: gray; fill: none;" marker-start="url(#ZERO_OR_MORE_START)" marker-end="url(#ONLY_ONE_END)" d="M73.8046875,460.5L73.8046875,470.0833333333333C73.8046875,479.6666666666667,73.8046875,498.8333333333333,73.8046875,524.0833333333334C73.8046875,549.3333333333334,73.8046875,580.6666666666666,73.8046875,596.3333333333334L73.8046875,612" class="er relationshipLine"/><path style="stroke: gray; fill: none;" marker-start="url(#ZERO_OR_MORE_START)" marker-end="url(#ONLY_ONE_END)" d="M311.9609375,468L311.9609375,476.3333333333333C311.9609375,484.6666666666667,311.9609375,501.3333333333333,280.6015625,526.5211477059004C249.2421875,551.7089620784674,186.5234375,585.4179241569348,155.1640625,602.2724051961685L123.8046875,619.1268862354021" class="er relationshipLine"/><path style="stroke: gray; fill: none;" marker-start="url(#ZERO_OR_MORE_START)" marker-end="url(#ONLY_ONE_END)" d="M218.46292114257812,267L218.46292114257812,277.1666666666667C218.46292114257812,287.3333333333333,218.46292114257812,307.6666666666667,226.66450152480812,326.1666666666667C234.86608190703814,344.6666666666667,251.2692426714981,361.3333333333333,259.4708230537281,369.6666666666667L267.6724034359581,378" class="er relationshipLine"/><path style="stroke: gray; fill: none;" marker-start="url(#ZERO_OR_MORE_START)" marker-end="url(#ONLY_ONE_END)" d="M439.8105163574219,69.47830190525397L402.91925048828125,80.89858492104497C366.0279846191406,92.31886793683599,292.2454528808594,115.15943396841799,255.35418701171875,136.74638365087566C218.46292114257812,158.33333333333334,218.46292114257812,178.66666666666666,218.46292114257812,188.83333333333334L218.46292114257812,199" class="er relationshipLine"/><path style="stroke: gray; fill: none;" marker-start="url(#ZERO_OR_MORE_START)" marker-end="url(#ONLY_ONE_END)" d="M469.57242111932663,88L464.61210365900916,96.33333333333333C459.65178619869175,104.66666666666667,449.7311512780568,121.33333333333333,444.7708338177393,139.83333333333334C439.8105163574219,158.33333333333334,439.8105163574219,178.66666666666666,439.8105163574219,188.83333333333334L439.8105163574219,199" class="er relationshipLine"/><path style="stroke: gray; fill: none;" marker-start="url(#ZERO_OR_MORE_START)" marker-end="url(#ZERO_OR_MORE_END)" d="M530.2867068336124,88L540.2073417542473,96.33333333333333C550.1279766748822,104.66666666666667,569.969246516152,121.33333333333333,584.2758463490676,138C598.5824461819833,154.66666666666666,607.3543760065446,171.33333333333334,611.7403409188254,179.66666666666666L616.126305831106,188" class="er relationshipLine"/><path style="stroke: gray; fill: none;" marker-start="url(#ZERO_OR_MORE_START)" marker-end="url(#ZERO_OR_MORE_END)" d="M663.4947268837377,188L667.8806917960184,179.66666666666666C672.2666567082991,171.33333333333334,681.0385865328604,154.66666666666666,660.4245514451412,135.83333333333334C639.8105163574219,117,589.8105163574219,96,564.8105163574219,85.5L539.8105163574219,75" class="er relationshipLine"/><path style="stroke: gray; fill: none;" marker-start="url(#ZERO_OR_MORE_START)" marker-end="url(#ONLY_ONE_END)" d="M663.4947268837377,278L667.8806917960184,286.3333333333333C672.2666567082991,294.6666666666667,681.0385865328604,311.3333333333333,685.4245514451412,329.8333333333333C689.8105163574219,348.3333333333333,689.8105163574219,368.6666666666667,689.8105163574219,378.8333333333333L689.8105163574219,389" class="er relationshipLine"/><path style="stroke: gray; fill: none;" marker-start="url(#ZERO_OR_MORE_START)" marker-end="url(#ONLY_ONE_END)" d="M589.8105163574219,273.53738707204053L578.6145528157552,282.6144892267004C567.4185892740885,291.69159138136035,545.0266621907552,309.8457956906802,512.7769927978516,328.41673181321954C480.52732340494794,346.98766793575896,438.41991170247394,365.975335871518,417.366205851237,375.46916983939747L396.3125,384.963003807277" class="er relationshipLine"/><g transform="translate(340.5126266479492,568 )" id="entity-User-cea0caac-5f7a-4d07-a1ff-f881d124bc7a"><rect height="156" width="142.89662170410156" y="0" x="0" class="er entityBox"/><text style="dominant-baseline: middle; text-anchor: middle; font-size: 12px;" transform="translate(71.44831085205078,12)" y="0" x="0" id="text-entity-User-cea0caac-5f7a-4d07-a1ff-f881d124bc7a" class="er entityLabel">User</text><rect height="22" width="54.095550537109375" y="24" x="0" class="er attributeBoxOdd"/><text style="dominant-baseline: middle; font-size: 10.2px;" transform="translate(5,35)" y="0" x="0" id="text-entity-User-cea0caac-5f7a-4d07-a1ff-f881d124bc7a-attr-1-type" class="er entityLabel">String</text><rect height="22" width="66.11338806152344" y="24" x="54.095550537109375" class="er attributeBoxOdd"/><text style="dominant-baseline: middle; font-size: 10.2px;" transform="translate(59.095550537109375,35)" y="0" x="0" id="text-entity-User-cea0caac-5f7a-4d07-a1ff-f881d124bc7a-attr-1-name" class="er entityLabel">id</text><rect height="22" width="22.68768310546875" y="24" x="120.20893859863281" class="er attributeBoxOdd"/><text style="dominant-baseline: middle; font-size: 10.2px;" transform="translate(125.20893859863281,35)" y="0" x="0" id="text-entity-User-cea0caac-5f7a-4d07-a1ff-f881d124bc7a-attr-1-key" class="er entityLabel">PK</text><rect height="22" width="54.095550537109375" y="46" x="0" class="er attributeBoxEven"/><text style="dominant-baseline: middle; font-size: 10.2px;" transform="translate(5,57)" y="0" x="0" id="text-entity-User-cea0caac-5f7a-4d07-a1ff-f881d124bc7a-attr-2-type" class="er entityLabel">String</text><rect height="22" width="66.11338806152344" y="46" x="54.095550537109375" class="er attributeBoxEven"/><text style="dominant-baseline: middle; font-size: 10.2px;" transform="translate(59.095550537109375,57)" y="0" x="0" id="text-entity-User-cea0caac-5f7a-4d07-a1ff-f881d124bc7a-attr-2-name" class="er entityLabel">username</text><rect height="22" width="22.68768310546875" y="46" x="120.20893859863281" class="er attributeBoxEven"/><text style="dominant-baseline: middle; font-size: 10.2px;" transform="translate(125.20893859863281,57)" y="0" x="0" id="text-entity-User-cea0caac-5f7a-4d07-a1ff-f881d124bc7a-attr-2-key" class="er entityLabel"/><rect height="22" width="54.095550537109375" y="68" x="0" class="er attributeBoxOdd"/><text style="dominant-baseline: middle; font-size: 10.2px;" transform="translate(5,79)" y="0" x="0" id="text-entity-User-cea0caac-5f7a-4d07-a1ff-f881d124bc7a-attr-3-type" class="er entityLabel">String</text><rect height="22" width="66.11338806152344" y="68" x="54.095550537109375" class="er attributeBoxOdd"/><text style="dominant-baseline: middle; font-size: 10.2px;" transform="translate(59.095550537109375,79)" y="0" x="0" id="text-entity-User-cea0caac-5f7a-4d07-a1ff-f881d124bc7a-attr-3-name" class="er entityLabel">password</text><rect height="22" width="22.68768310546875" y="68" x="120.20893859863281" class="er attributeBoxOdd"/><text style="dominant-baseline: middle; font-size: 10.2px;" transform="translate(125.20893859863281,79)" y="0" x="0" id="text-entity-User-cea0caac-5f7a-4d07-a1ff-f881d124bc7a-attr-3-key" class="er entityLabel"/><rect height="22" width="54.095550537109375" y="90" x="0" class="er attributeBoxEven"/><text style="dominant-baseline: middle; font-size: 10.2px;" transform="translate(5,101)" y="0" x="0" id="text-entity-User-cea0caac-5f7a-4d07-a1ff-f881d124bc7a-attr-4-type" class="er entityLabel">DateTime</text><rect height="22" width="66.11338806152344" y="90" x="54.095550537109375" class="er attributeBoxEven"/><text style="dominant-baseline: middle; font-size: 10.2px;" transform="translate(59.095550537109375,101)" y="0" x="0" id="text-entity-User-cea0caac-5f7a-4d07-a1ff-f881d124bc7a-attr-4-name" class="er entityLabel">createdAt</text><rect height="22" width="22.68768310546875" y="90" x="120.20893859863281" class="er attributeBoxEven"/><text style="dominant-baseline: middle; font-size: 10.2px;" transform="translate(125.20893859863281,101)" y="0" x="0" id="text-entity-User-cea0caac-5f7a-4d07-a1ff-f881d124bc7a-attr-4-key" class="er entityLabel"/><rect height="22" width="54.095550537109375" y="112" x="0" class="er attributeBoxOdd"/><text style="dominant-baseline: middle; font-size: 10.2px;" transform="translate(5,123)" y="0" x="0" id="text-entity-User-cea0caac-5f7a-4d07-a1ff-f881d124bc7a-attr-5-type" class="er entityLabel">DateTime</text><rect height="22" width="66.11338806152344" y="112" x="54.095550537109375" class="er attributeBoxOdd"/><text style="dominant-baseline: middle; font-size: 10.2px;" transform="translate(59.095550537109375,123)" y="0" x="0" id="text-entity-User-cea0caac-5f7a-4d07-a1ff-f881d124bc7a-attr-5-name" class="er entityLabel">updatedAt</text><rect height="22" width="22.68768310546875" y="112" x="120.20893859863281" class="er attributeBoxOdd"/><text style="dominant-baseline: middle; font-size: 10.2px;" transform="translate(125.20893859863281,123)" y="0" x="0" id="text-entity-User-cea0caac-5f7a-4d07-a1ff-f881d124bc7a-attr-5-key" class="er entityLabel"/><rect height="22" width="54.095550537109375" y="134" x="0" class="er attributeBoxEven"/><text style="dominant-baseline: middle; font-size: 10.2px;" transform="translate(5,145)" y="0" x="0" id="text-entity-User-cea0caac-5f7a-4d07-a1ff-f881d124bc7a-attr-6-type" class="er entityLabel">String</text><rect height="22" width="66.11338806152344" y="134" x="54.095550537109375" class="er attributeBoxEven"/><text style="dominant-baseline: middle; font-size: 10.2px;" transform="translate(59.095550537109375,145)" y="0" x="0" id="text-entity-User-cea0caac-5f7a-4d07-a1ff-f881d124bc7a-attr-6-name" class="er entityLabel">accessToken</text><rect height="22" width="22.68768310546875" y="134" x="120.20893859863281" class="er attributeBoxEven"/><text style="dominant-baseline: middle; font-size: 10.2px;" transform="translate(125.20893859863281,145)" y="0" x="0" id="text-entity-User-cea0caac-5f7a-4d07-a1ff-f881d124bc7a-attr-6-key" class="er entityLabel"/></g><g transform="translate(23.8046875,612 )" id="entity-Project-99f41198-6cd0-4d29-b169-75b7f9cbd914"><rect height="68" width="100" y="0" x="0" class="er entityBox"/><text style="dominant-baseline: middle; text-anchor: middle; font-size: 12px;" transform="translate(50,12)" y="0" x="0" id="text-entity-Project-99f41198-6cd0-4d29-b169-75b7f9cbd914" class="er entityLabel">Project</text><rect height="22" width="38.90184020996094" y="24" x="0" class="er attributeBoxOdd"/><text style="dominant-baseline: middle; font-size: 10.2px;" transform="translate(5,35)" y="0" x="0" id="text-entity-Project-99f41198-6cd0-4d29-b169-75b7f9cbd914-attr-1-type" class="er entityLabel">String</text><rect height="22" width="36.904693603515625" y="24" x="38.90184020996094" class="er attributeBoxOdd"/><text style="dominant-baseline: middle; font-size: 10.2px;" transform="translate(43.90184020996094,35)" y="0" x="0" id="text-entity-Project-99f41198-6cd0-4d29-b169-75b7f9cbd914-attr-1-name" class="er entityLabel">id</text><rect height="22" width="24.193466186523438" y="24" x="75.80653381347656" class="er attributeBoxOdd"/><text style="dominant-baseline: middle; font-size: 10.2px;" transform="translate(80.80653381347656,35)" y="0" x="0" id="text-entity-Project-99f41198-6cd0-4d29-b169-75b7f9cbd914-attr-1-key" class="er entityLabel">PK</text><rect height="22" width="38.90184020996094" y="46" x="0" class="er attributeBoxEven"/><text style="dominant-baseline: middle; font-size: 10.2px;" transform="translate(5,57)" y="0" x="0" id="text-entity-Project-99f41198-6cd0-4d29-b169-75b7f9cbd914-attr-2-type" class="er entityLabel">String</text><rect height="22" width="36.904693603515625" y="46" x="38.90184020996094" class="er attributeBoxEven"/><text style="dominant-baseline: middle; font-size: 10.2px;" transform="translate(43.90184020996094,57)" y="0" x="0" id="text-entity-Project-99f41198-6cd0-4d29-b169-75b7f9cbd914-attr-2-name" class="er entityLabel">name</text><rect height="22" width="24.193466186523438" y="46" x="75.80653381347656" class="er attributeBoxEven"/><text style="dominant-baseline: middle; font-size: 10.2px;" transform="translate(80.80653381347656,57)" y="0" x="0" id="text-entity-Project-99f41198-6cd0-4d29-b169-75b7f9cbd914-attr-2-key" class="er entityLabel"/></g><g transform="translate(20,385.5 )" id="entity-UserOnProject-6a60dfed-8f38-4418-93b4-fa10ad4963ef"><rect height="75" width="107.609375" y="0" x="0" class="er entityBox"/><text style="dominant-baseline: middle; text-anchor: middle; font-size: 12px;" transform="translate(53.8046875,37.5)" y="0" x="0" id="text-entity-UserOnProject-6a60dfed-8f38-4418-93b4-fa10ad4963ef" class="er entityLabel">UserOnProject</text></g><g transform="translate(227.609375,378 )" id="entity-Feature-e86b5be9-6a65-48fe-8a7e-b42ffe898ff7"><rect height="90" width="168.703125" y="0" x="0" class="er entityBox"/><text style="dominant-baseline: middle; text-anchor: middle; font-size: 12px;" transform="translate(84.3515625,12)" y="0" x="0" id="text-entity-Feature-e86b5be9-6a65-48fe-8a7e-b42ffe898ff7" class="er entityLabel">Feature</text><rect height="22" width="37.39605712890625" y="24" x="0" class="er attributeBoxOdd"/><text style="dominant-baseline: middle; font-size: 10.2px;" transform="translate(5,35)" y="0" x="0" id="text-entity-Feature-e86b5be9-6a65-48fe-8a7e-b42ffe898ff7-attr-1-type" class="er entityLabel">String</text><rect height="22" width="61.40684509277344" y="24" x="37.39605712890625" class="er attributeBoxOdd"/><text style="dominant-baseline: middle; font-size: 10.2px;" transform="translate(42.39605712890625,35)" y="0" x="0" id="text-entity-Feature-e86b5be9-6a65-48fe-8a7e-b42ffe898ff7-attr-1-name" class="er entityLabel">id</text><rect height="22" width="22.68768310546875" y="24" x="98.80290222167969" class="er attributeBoxOdd"/><text style="dominant-baseline: middle; font-size: 10.2px;" transform="translate(103.80290222167969,35)" y="0" x="0" id="text-entity-Feature-e86b5be9-6a65-48fe-8a7e-b42ffe898ff7-attr-1-key" class="er entityLabel">PK</text><rect height="22" width="47.21253967285156" y="24" x="121.49058532714844" class="er attributeBoxOdd"/><text style="dominant-baseline: middle; font-size: 10.2px;" transform="translate(126.49058532714844,35)" y="0" x="0" id="text-entity-Feature-e86b5be9-6a65-48fe-8a7e-b42ffe898ff7-attr-1-comment" class="er entityLabel"/><rect height="22" width="37.39605712890625" y="46" x="0" class="er attributeBoxEven"/><text style="dominant-baseline: middle; font-size: 10.2px;" transform="translate(5,57)" y="0" x="0" id="text-entity-Feature-e86b5be9-6a65-48fe-8a7e-b42ffe898ff7-attr-2-type" class="er entityLabel">String</text><rect height="22" width="61.40684509277344" y="46" x="37.39605712890625" class="er attributeBoxEven"/><text style="dominant-baseline: middle; font-size: 10.2px;" transform="translate(42.39605712890625,57)" y="0" x="0" id="text-entity-Feature-e86b5be9-6a65-48fe-8a7e-b42ffe898ff7-attr-2-name" class="er entityLabel">title</text><rect height="22" width="22.68768310546875" y="46" x="98.80290222167969" class="er attributeBoxEven"/><text style="dominant-baseline: middle; font-size: 10.2px;" transform="translate(103.80290222167969,57)" y="0" x="0" id="text-entity-Feature-e86b5be9-6a65-48fe-8a7e-b42ffe898ff7-attr-2-key" class="er entityLabel"/><rect height="22" width="47.21253967285156" y="46" x="121.49058532714844" class="er attributeBoxEven"/><text style="dominant-baseline: middle; font-size: 10.2px;" transform="translate(126.49058532714844,57)" y="0" x="0" id="text-entity-Feature-e86b5be9-6a65-48fe-8a7e-b42ffe898ff7-attr-2-comment" class="er entityLabel">nullable</text><rect height="22" width="37.39605712890625" y="68" x="0" class="er attributeBoxOdd"/><text style="dominant-baseline: middle; font-size: 10.2px;" transform="translate(5,79)" y="0" x="0" id="text-entity-Feature-e86b5be9-6a65-48fe-8a7e-b42ffe898ff7-attr-3-type" class="er entityLabel">String</text><rect height="22" width="61.40684509277344" y="68" x="37.39605712890625" class="er attributeBoxOdd"/><text style="dominant-baseline: middle; font-size: 10.2px;" transform="translate(42.39605712890625,79)" y="0" x="0" id="text-entity-Feature-e86b5be9-6a65-48fe-8a7e-b42ffe898ff7-attr-3-name" class="er entityLabel">description</text><rect height="22" width="22.68768310546875" y="68" x="98.80290222167969" class="er attributeBoxOdd"/><text style="dominant-baseline: middle; font-size: 10.2px;" transform="translate(103.80290222167969,79)" y="0" x="0" id="text-entity-Feature-e86b5be9-6a65-48fe-8a7e-b42ffe898ff7-attr-3-key" class="er entityLabel"/><rect height="22" width="47.21253967285156" y="68" x="121.49058532714844" class="er attributeBoxOdd"/><text style="dominant-baseline: middle; font-size: 10.2px;" transform="translate(126.49058532714844,79)" y="0" x="0" id="text-entity-Feature-e86b5be9-6a65-48fe-8a7e-b42ffe898ff7-attr-3-comment" class="er entityLabel">nullable</text></g><g transform="translate(147.11532592773438,199 )" id="entity-Scenario-b5b6db71-516d-4b67-9a64-444b9a760d6c"><rect height="68" width="142.6951904296875" y="0" x="0" class="er entityBox"/><text style="dominant-baseline: middle; text-anchor: middle; font-size: 12px;" transform="translate(71.34759521484375,12)" y="0" x="0" id="text-entity-Scenario-b5b6db71-516d-4b67-9a64-444b9a760d6c" class="er entityLabel">Scenario</text><rect height="22" width="37.39605712890625" y="24" x="0" class="er attributeBoxOdd"/><text style="dominant-baseline: middle; font-size: 10.2px;" transform="translate(5,35)" y="0" x="0" id="text-entity-Scenario-b5b6db71-516d-4b67-9a64-444b9a760d6c-attr-1-type" class="er entityLabel">Int</text><rect height="22" width="35.39891052246094" y="24" x="37.39605712890625" class="er attributeBoxOdd"/><text style="dominant-baseline: middle; font-size: 10.2px;" transform="translate(42.39605712890625,35)" y="0" x="0" id="text-entity-Scenario-b5b6db71-516d-4b67-9a64-444b9a760d6c-attr-1-name" class="er entityLabel">id</text><rect height="22" width="22.68768310546875" y="24" x="72.79496765136719" class="er attributeBoxOdd"/><text style="dominant-baseline: middle; font-size: 10.2px;" transform="translate(77.79496765136719,35)" y="0" x="0" id="text-entity-Scenario-b5b6db71-516d-4b67-9a64-444b9a760d6c-attr-1-key" class="er entityLabel">PK</text><rect height="22" width="47.21253967285156" y="24" x="95.48265075683594" class="er attributeBoxOdd"/><text style="dominant-baseline: middle; font-size: 10.2px;" transform="translate(100.48265075683594,35)" y="0" x="0" id="text-entity-Scenario-b5b6db71-516d-4b67-9a64-444b9a760d6c-attr-1-comment" class="er entityLabel"/><rect height="22" width="37.39605712890625" y="46" x="0" class="er attributeBoxEven"/><text style="dominant-baseline: middle; font-size: 10.2px;" transform="translate(5,57)" y="0" x="0" id="text-entity-Scenario-b5b6db71-516d-4b67-9a64-444b9a760d6c-attr-2-type" class="er entityLabel">String</text><rect height="22" width="35.39891052246094" y="46" x="37.39605712890625" class="er attributeBoxEven"/><text style="dominant-baseline: middle; font-size: 10.2px;" transform="translate(42.39605712890625,57)" y="0" x="0" id="text-entity-Scenario-b5b6db71-516d-4b67-9a64-444b9a760d6c-attr-2-name" class="er entityLabel">name</text><rect height="22" width="22.68768310546875" y="46" x="72.79496765136719" class="er attributeBoxEven"/><text style="dominant-baseline: middle; font-size: 10.2px;" transform="translate(77.79496765136719,57)" y="0" x="0" id="text-entity-Scenario-b5b6db71-516d-4b67-9a64-444b9a760d6c-attr-2-key" class="er entityLabel"/><rect height="22" width="47.21253967285156" y="46" x="95.48265075683594" class="er attributeBoxEven"/><text style="dominant-baseline: middle; font-size: 10.2px;" transform="translate(100.48265075683594,57)" y="0" x="0" id="text-entity-Scenario-b5b6db71-516d-4b67-9a64-444b9a760d6c-attr-2-comment" class="er entityLabel">nullable</text></g><g transform="translate(439.8105163574219,20 )" id="entity-Step-48478c0a-2fd8-46f0-bf79-a85f87c23229"><rect height="68" width="100" y="0" x="0" class="er entityBox"/><text style="dominant-baseline: middle; text-anchor: middle; font-size: 12px;" transform="translate(50,12)" y="0" x="0" id="text-entity-Step-48478c0a-2fd8-46f0-bf79-a85f87c23229" class="er entityLabel">Step</text><rect height="22" width="29.484156290690105" y="24" x="0" class="er attributeBoxOdd"/><text style="dominant-baseline: middle; font-size: 10.2px;" transform="translate(5,35)" y="0" x="0" id="text-entity-Step-48478c0a-2fd8-46f0-bf79-a85f87c23229-attr-1-type" class="er entityLabel">Int</text><rect height="22" width="41.7560068766276" y="24" x="29.484156290690105" class="er attributeBoxOdd"/><text style="dominant-baseline: middle; font-size: 10.2px;" transform="translate(34.48415629069011,35)" y="0" x="0" id="text-entity-Step-48478c0a-2fd8-46f0-bf79-a85f87c23229-attr-1-name" class="er entityLabel">id</text><rect height="22" width="28.759836832682293" y="24" x="71.2401631673177" class="er attributeBoxOdd"/><text style="dominant-baseline: middle; font-size: 10.2px;" transform="translate(76.2401631673177,35)" y="0" x="0" id="text-entity-Step-48478c0a-2fd8-46f0-bf79-a85f87c23229-attr-1-key" class="er entityLabel">PK</text><rect height="22" width="29.484156290690105" y="46" x="0" class="er attributeBoxEven"/><text style="dominant-baseline: middle; font-size: 10.2px;" transform="translate(5,57)" y="0" x="0" id="text-entity-Step-48478c0a-2fd8-46f0-bf79-a85f87c23229-attr-2-type" class="er entityLabel">Int</text><rect height="22" width="41.7560068766276" y="46" x="29.484156290690105" class="er attributeBoxEven"/><text style="dominant-baseline: middle; font-size: 10.2px;" transform="translate(34.48415629069011,57)" y="0" x="0" id="text-entity-Step-48478c0a-2fd8-46f0-bf79-a85f87c23229-attr-2-name" class="er entityLabel">order</text><rect height="22" width="28.759836832682293" y="46" x="71.2401631673177" class="er attributeBoxEven"/><text style="dominant-baseline: middle; font-size: 10.2px;" transform="translate(76.2401631673177,57)" y="0" x="0" id="text-entity-Step-48478c0a-2fd8-46f0-bf79-a85f87c23229-attr-2-key" class="er entityLabel"/></g><g transform="translate(389.8105163574219,199 )" id="entity-Behaviour-6f458e57-a52d-417d-906a-2aa2f16ab227"><rect height="68" width="100" y="0" x="0" class="er entityBox"/><text style="dominant-baseline: middle; text-anchor: middle; font-size: 12px;" transform="translate(50,12)" y="0" x="0" id="text-entity-Behaviour-6f458e57-a52d-417d-906a-2aa2f16ab227" class="er entityLabel">Behaviour</text><rect height="22" width="38.72290547688802" y="24" x="0" class="er attributeBoxOdd"/><text style="dominant-baseline: middle; font-size: 10.2px;" transform="translate(5,35)" y="0" x="0" id="text-entity-Behaviour-6f458e57-a52d-417d-906a-2aa2f16ab227-attr-1-type" class="er entityLabel">Int</text><rect height="22" width="37.26256306966146" y="24" x="38.72290547688802" class="er attributeBoxOdd"/><text style="dominant-baseline: middle; font-size: 10.2px;" transform="translate(43.72290547688802,35)" y="0" x="0" id="text-entity-Behaviour-6f458e57-a52d-417d-906a-2aa2f16ab227-attr-1-name" class="er entityLabel">id</text><rect height="22" width="24.01453145345052" y="24" x="75.98546854654948" class="er attributeBoxOdd"/><text style="dominant-baseline: middle; font-size: 10.2px;" transform="translate(80.98546854654948,35)" y="0" x="0" id="text-entity-Behaviour-6f458e57-a52d-417d-906a-2aa2f16ab227-attr-1-key" class="er entityLabel">PK</text><rect height="22" width="38.72290547688802" y="46" x="0" class="er attributeBoxEven"/><text style="dominant-baseline: middle; font-size: 10.2px;" transform="translate(5,57)" y="0" x="0" id="text-entity-Behaviour-6f458e57-a52d-417d-906a-2aa2f16ab227-attr-2-type" class="er entityLabel">String</text><rect height="22" width="37.26256306966146" y="46" x="38.72290547688802" class="er attributeBoxEven"/><text style="dominant-baseline: middle; font-size: 10.2px;" transform="translate(43.72290547688802,57)" y="0" x="0" id="text-entity-Behaviour-6f458e57-a52d-417d-906a-2aa2f16ab227-attr-2-name" class="er entityLabel">value</text><rect height="22" width="24.01453145345052" y="46" x="75.98546854654948" class="er attributeBoxEven"/><text style="dominant-baseline: middle; font-size: 10.2px;" transform="translate(80.98546854654948,57)" y="0" x="0" id="text-entity-Behaviour-6f458e57-a52d-417d-906a-2aa2f16ab227-attr-2-key" class="er entityLabel"/></g><g transform="translate(589.8105163574219,188 )" id="entity-Param-d8a0f21d-2d2f-4bd1-a901-54c2a486a2a7"><rect height="90" width="100" y="0" x="0" class="er entityBox"/><text style="dominant-baseline: middle; text-anchor: middle; font-size: 12px;" transform="translate(50,12)" y="0" x="0" id="text-entity-Param-d8a0f21d-2d2f-4bd1-a901-54c2a486a2a7" class="er entityLabel">Param</text><rect height="22" width="38.72290547688802" y="24" x="0" class="er attributeBoxOdd"/><text style="dominant-baseline: middle; font-size: 10.2px;" transform="translate(5,35)" y="0" x="0" id="text-entity-Param-d8a0f21d-2d2f-4bd1-a901-54c2a486a2a7-attr-1-type" class="er entityLabel">Int</text><rect height="22" width="37.26256306966146" y="24" x="38.72290547688802" class="er attributeBoxOdd"/><text style="dominant-baseline: middle; font-size: 10.2px;" transform="translate(43.72290547688802,35)" y="0" x="0" id="text-entity-Param-d8a0f21d-2d2f-4bd1-a901-54c2a486a2a7-attr-1-name" class="er entityLabel">id</text><rect height="22" width="24.01453145345052" y="24" x="75.98546854654948" class="er attributeBoxOdd"/><text style="dominant-baseline: middle; font-size: 10.2px;" transform="translate(80.98546854654948,35)" y="0" x="0" id="text-entity-Param-d8a0f21d-2d2f-4bd1-a901-54c2a486a2a7-attr-1-key" class="er entityLabel">PK</text><rect height="22" width="38.72290547688802" y="46" x="0" class="er attributeBoxEven"/><text style="dominant-baseline: middle; font-size: 10.2px;" transform="translate(5,57)" y="0" x="0" id="text-entity-Param-d8a0f21d-2d2f-4bd1-a901-54c2a486a2a7-attr-2-type" class="er entityLabel">String</text><rect height="22" width="37.26256306966146" y="46" x="38.72290547688802" class="er attributeBoxEven"/><text style="dominant-baseline: middle; font-size: 10.2px;" transform="translate(43.72290547688802,57)" y="0" x="0" id="text-entity-Param-d8a0f21d-2d2f-4bd1-a901-54c2a486a2a7-attr-2-name" class="er entityLabel">name</text><rect height="22" width="24.01453145345052" y="46" x="75.98546854654948" class="er attributeBoxEven"/><text style="dominant-baseline: middle; font-size: 10.2px;" transform="translate(80.98546854654948,57)" y="0" x="0" id="text-entity-Param-d8a0f21d-2d2f-4bd1-a901-54c2a486a2a7-attr-2-key" class="er entityLabel"/><rect height="22" width="38.72290547688802" y="68" x="0" class="er attributeBoxOdd"/><text style="dominant-baseline: middle; font-size: 10.2px;" transform="translate(5,79)" y="0" x="0" id="text-entity-Param-d8a0f21d-2d2f-4bd1-a901-54c2a486a2a7-attr-3-type" class="er entityLabel">String</text><rect height="22" width="37.26256306966146" y="68" x="38.72290547688802" class="er attributeBoxOdd"/><text style="dominant-baseline: middle; font-size: 10.2px;" transform="translate(43.72290547688802,79)" y="0" x="0" id="text-entity-Param-d8a0f21d-2d2f-4bd1-a901-54c2a486a2a7-attr-3-name" class="er entityLabel">value</text><rect height="22" width="24.01453145345052" y="68" x="75.98546854654948" class="er attributeBoxOdd"/><text style="dominant-baseline: middle; font-size: 10.2px;" transform="translate(80.98546854654948,79)" y="0" x="0" id="text-entity-Param-d8a0f21d-2d2f-4bd1-a901-54c2a486a2a7-attr-3-key" class="er entityLabel"/></g><g transform="translate(639.8105163574219,389 )" id="entity-ParamType-b3cb6444-fcf1-44e6-818e-19e2684f8796"><rect height="68" width="100" y="0" x="0" class="er entityBox"/><text style="dominant-baseline: middle; text-anchor: middle; font-size: 12px;" transform="translate(50,12)" y="0" x="0" id="text-entity-ParamType-b3cb6444-fcf1-44e6-818e-19e2684f8796" class="er entityLabel">ParamType</text><rect height="22" width="40.44910685221354" y="24" x="0" class="er attributeBoxOdd"/><text style="dominant-baseline: middle; font-size: 10.2px;" transform="translate(5,35)" y="0" x="0" id="text-entity-ParamType-b3cb6444-fcf1-44e6-818e-19e2684f8796-attr-1-type" class="er entityLabel">Int</text><rect height="22" width="33.810160319010414" y="24" x="40.44910685221354" class="er attributeBoxOdd"/><text style="dominant-baseline: middle; font-size: 10.2px;" transform="translate(45.44910685221354,35)" y="0" x="0" id="text-entity-ParamType-b3cb6444-fcf1-44e6-818e-19e2684f8796-attr-1-name" class="er entityLabel">id</text><rect height="22" width="25.740732828776043" y="24" x="74.25926717122395" class="er attributeBoxOdd"/><text style="dominant-baseline: middle; font-size: 10.2px;" transform="translate(79.25926717122395,35)" y="0" x="0" id="text-entity-ParamType-b3cb6444-fcf1-44e6-818e-19e2684f8796-attr-1-key" class="er entityLabel">PK</text><rect height="22" width="40.44910685221354" y="46" x="0" class="er attributeBoxEven"/><text style="dominant-baseline: middle; font-size: 10.2px;" transform="translate(5,57)" y="0" x="0" id="text-entity-ParamType-b3cb6444-fcf1-44e6-818e-19e2684f8796-attr-2-type" class="er entityLabel">String</text><rect height="22" width="33.810160319010414" y="46" x="40.44910685221354" class="er attributeBoxEven"/><text style="dominant-baseline: middle; font-size: 10.2px;" transform="translate(45.44910685221354,57)" y="0" x="0" id="text-entity-ParamType-b3cb6444-fcf1-44e6-818e-19e2684f8796-attr-2-name" class="er entityLabel">type</text><rect height="22" width="25.740732828776043" y="46" x="74.25926717122395" class="er attributeBoxEven"/><text style="dominant-baseline: middle; font-size: 10.2px;" transform="translate(79.25926717122395,57)" y="0" x="0" id="text-entity-ParamType-b3cb6444-fcf1-44e6-818e-19e2684f8796-attr-2-key" class="er entityLabel"/></g><rect height="14" width="23.958984375" y="476.8188781738281" x="272.8020324707031" class="er relationshipLabelBox"/><text style="text-anchor: middle; dominant-baseline: middle; font-size: 12px;" y="483.8188781738281" x="284.7815246582031" id="rel1" class="er relationshipLabel">user</text><rect height="14" width="39.67578125" y="529.25" x="53.966796875" class="er relationshipLabelBox"/><text style="text-anchor: middle; dominant-baseline: middle; font-size: 12px;" y="536.25" x="73.8046875" id="rel2" class="er relationshipLabel">project</text><rect height="14" width="39.67578125" y="550.9742431640625" x="214.1433563232422" class="er relationshipLabelBox"/><text style="text-anchor: middle; dominant-baseline: middle; font-size: 12px;" y="557.9742431640625" x="233.9812469482422" id="rel3" class="er relationshipLabel">project</text><rect height="14" width="40.263671875" y="321.9932861328125" x="207.85525512695312" class="er relationshipLabelBox"/><text style="text-anchor: middle; dominant-baseline: middle; font-size: 12px;" y="328.9932861328125" x="227.98709106445312" id="rel4" class="er relationshipLabel">feature</text><rect height="14" width="45.291015625" y="105.20498657226562" x="286.91986083984375" class="er relationshipLabelBox"/><text style="text-anchor: middle; dominant-baseline: middle; font-size: 12px;" y="112.20498657226562" x="309.56536865234375" id="rel5" class="er relationshipLabel">scenario</text><rect height="14" width="54.38671875" y="133.7498016357422" x="417.3362731933594" class="er relationshipLabelBox"/><text style="text-anchor: middle; dominant-baseline: middle; font-size: 12px;" y="140.7498016357422" x="444.5296325683594" id="rel6" class="er relationshipLabel">behaviour</text><rect height="0" width="0" y="132.68893432617188" x="579.538330078125" class="er relationshipLabelBox"/><text style="text-anchor: middle; dominant-baseline: middle; font-size: 12px;" y="132.68893432617188" x="579.538330078125" id="rel7" class="er relationshipLabel"/><rect height="0" width="0" y="114.68740844726562" x="628.2420654296875" class="er relationshipLabelBox"/><text style="text-anchor: middle; dominant-baseline: middle; font-size: 12px;" y="114.68740844726562" x="628.2420654296875" id="rel8" class="er relationshipLabel"/><rect height="14" width="24.361328125" y="324.3071594238281" x="673.5830688476562" class="er relationshipLabelBox"/><text style="text-anchor: middle; dominant-baseline: middle; font-size: 12px;" y="331.3071594238281" x="685.7637329101562" id="rel9" class="er relationshipLabel">type</text><rect height="14" width="40.263671875" y="329.84912109375" x="477.41961669921875" class="er relationshipLabelBox"/><text style="text-anchor: middle; dominant-baseline: middle; font-size: 12px;" y="336.84912109375" x="497.55145263671875" id="rel10" class="er relationshipLabel">feature</text></svg>